<?xml version="1.0" encoding="UTF-8"?>
<svg version="1.1" xmlns="http://www.w3.org/2000/svg" width="327" height="313">
<path d="M0 0 C107.91 0 215.82 0 327 0 C327 103.29 327 206.58 327 313 C219.09 313 111.18 313 0 313 C0 209.71 0 106.42 0 0 Z " fill="#FEFDFD" transform="translate(0,0)"/>
<path d="M0 0 C107.91 0 215.82 0 327 0 C327 103.29 327 206.58 327 313 C219.09 313 111.18 313 0 313 C0 209.71 0 106.42 0 0 Z M10.875 9.8125 C10.39804688 10.29332031 9.92109375 10.77414063 9.4296875 11.26953125 C4.6319166 17.07666925 4.57383135 21.56322012 4.6257782 28.8870697 C4.62180379 29.99783467 4.61782939 31.10859964 4.61373454 32.25302416 C4.60409465 35.98253289 4.61594033 39.7116639 4.62768555 43.44116211 C4.62525813 46.1119438 4.6216558 48.78270033 4.61662292 51.45347595 C4.6071343 57.95933282 4.61373549 64.46507877 4.62588587 70.97092741 C4.63950852 78.54746232 4.63786774 86.12397082 4.63575254 93.70051486 C4.6325625 107.21988098 4.64423075 120.73919442 4.66381836 134.25854492 C4.68281879 147.37607427 4.6899069 160.49354186 4.68432617 173.61108398 C4.67826733 187.89468476 4.67844768 202.17825838 4.689812 216.4618569 C4.69101929 217.98521236 4.69222528 219.50856783 4.69342995 221.03192329 C4.69403349 221.78144208 4.69463702 222.53096086 4.69525885 223.30319233 C4.69913727 228.58384966 4.69874465 233.86449688 4.6968441 239.14515495 C4.69472117 245.58170671 4.69995354 252.0182044 4.71445765 258.45474093 C4.72169771 261.73850476 4.72471069 265.02217391 4.72121429 268.30594635 C4.71799843 271.86603397 4.72705969 275.42588352 4.73930359 278.98594666 C4.73552427 280.02339694 4.73174494 281.06084723 4.72785109 282.12973541 C4.76712463 288.56969836 4.93188216 293.65976139 9.375 298.6875 C14.68085472 303.36170535 17.86472957 305.11962447 24.98605824 305.13422108 C25.99640686 305.13867892 27.00675548 305.14313676 28.04772073 305.14772969 C29.15577858 305.14754533 30.26383644 305.14736097 31.4054718 305.14717102 C33.17340986 305.15268605 33.17340986 305.15268605 34.97706383 305.1583125 C38.24957327 305.16743087 41.52205323 305.17204716 44.79457319 305.17470181 C48.32364833 305.17860864 51.85270901 305.18818656 55.3817749 305.19691467 C63.90375465 305.21666608 72.42573557 305.2267426 80.94773248 305.23564246 C84.9610022 305.24002663 88.97427061 305.24539302 92.98753929 305.25063133 C106.32789111 305.26764059 119.6682421 305.2821356 133.0086031 305.28938007 C136.46952122 305.29128995 139.93043933 305.29321029 143.39135742 305.29516602 C144.68164166 305.29589163 144.68164166 305.29589163 145.99799224 305.2966319 C159.93811434 305.30493545 173.87815072 305.33027919 187.81823537 305.36274669 C202.13000459 305.39580826 216.44173022 305.41382792 230.75353783 305.41702431 C238.78925564 305.41919001 246.82484835 305.42794754 254.86052895 305.45348549 C261.70259856 305.47517999 268.5445127 305.48324903 275.38661281 305.47351871 C278.87716368 305.46897062 282.36739366 305.47088936 285.85790062 305.49028015 C289.64339865 305.50790546 293.42807945 305.50093788 297.21357727 305.48774719 C298.8656258 305.50420106 298.8656258 305.50420106 300.55104905 305.52098733 C307.95145061 305.45861864 312.41316478 304.32246689 317.9609375 299.18359375 C318.42757813 298.60738281 318.89421875 298.03117187 319.375 297.4375 C319.85710937 296.85871094 320.33921875 296.27992188 320.8359375 295.68359375 C322.93798639 292.6433821 323.12513613 289.96734675 323.12584114 286.39131165 C323.12844889 285.439705 323.13105664 284.48809835 323.13374341 283.50765514 C323.13151268 282.46010209 323.12928196 281.41254904 323.12698364 280.33325195 C323.12932363 278.66649272 323.12932363 278.66649272 323.13171089 276.96606159 C323.13571598 273.22345486 323.13253311 269.48088832 323.12939453 265.73828125 C323.13074879 263.0629362 323.13249253 260.38759397 323.13470459 257.71224976 C323.13915771 251.18844547 323.13818785 244.66465267 323.13529195 238.14084792 C323.13303613 232.84012365 323.13272617 227.5394026 323.13381577 222.23867798 C323.133969 221.48505236 323.13412223 220.73142674 323.13428011 219.95496398 C323.13459982 218.42412178 323.13492404 216.89327957 323.1352527 215.36243737 C323.13810615 200.99831346 323.13482258 186.63419592 323.12945233 172.27007306 C323.12498442 159.93753249 323.12576039 147.60500133 323.13037109 135.27246094 C323.13571923 120.96071181 323.13783147 106.64896827 323.13475883 92.33721828 C323.13444027 90.81191953 323.1341259 89.28662078 323.13381577 87.76132202 C323.13366149 87.01079113 323.13350721 86.26026024 323.13334826 85.48698598 C323.13248383 80.19091776 323.13394441 74.89485308 323.13629532 69.5987854 C323.13909617 63.14711285 323.13834901 56.69545248 323.13301457 50.24378133 C323.13038143 46.95029745 323.12990179 43.65683814 323.13266373 40.36335373 C323.13537901 36.79779796 323.13198937 33.23230008 323.12698364 29.66674805 C323.13032973 28.09541847 323.13032973 28.09541847 323.13374341 26.49234486 C323.12983178 25.06493489 323.12983178 25.06493489 323.12584114 23.60868835 C323.12567879 22.78518229 323.12551644 21.96167624 323.12534916 21.11321545 C323.08036416 18.80859448 323.08036416 18.80859448 322 16 C321.34 16 320.68 16 320 16 C319.7525 15.236875 319.505 14.47375 319.25 13.6875 C317.87869328 10.73919055 316.7648921 9.64165468 314 8 C313.34 8 312.68 8 312 8 C312 7.34 312 6.68 312 6 C309.0610413 5.0203471 307.17710781 4.87382418 304.1157856 4.87136555 C302.59617405 4.86652888 302.59617405 4.86652888 301.04586327 4.8615945 C299.92963739 4.8631431 298.81341151 4.8646917 297.6633606 4.86628723 C296.48009497 4.86402167 295.29682934 4.86175612 294.07770717 4.85942191 C290.78766384 4.85417503 287.49767502 4.85343901 284.20763135 4.85461628 C280.66153904 4.85481997 277.11545495 4.84930464 273.56936646 4.84455872 C266.61977212 4.83624452 259.67018627 4.83350353 252.72058739 4.83294634 C247.07281666 4.83247154 241.42504874 4.83041859 235.7772789 4.82724571 C219.772447 4.81843701 203.76762182 4.81382667 187.76278748 4.81457619 C186.89956859 4.81461614 186.0363497 4.8146561 185.14697266 4.81469727 C184.28270243 4.81473815 183.4184322 4.81477903 182.52797197 4.81482115 C168.51856614 4.81522767 154.50918719 4.80565712 140.49978913 4.7915589 C126.12252032 4.77720439 111.74526463 4.77028821 97.36798847 4.77115268 C89.29323815 4.77148497 81.218516 4.76872381 73.14377213 4.75797462 C66.26907819 4.74888178 59.39442518 4.74668434 52.51972784 4.75348405 C49.01129726 4.75675543 45.50294527 4.75678374 41.99452209 4.7481308 C38.19318029 4.73885174 34.39195404 4.74502571 30.59060669 4.75276184 C28.92296003 4.7450465 28.92296003 4.7450465 27.22162354 4.73717529 C26.20333368 4.74177408 25.18504381 4.74637288 24.13589668 4.75111103 C23.25847034 4.75089366 22.38104399 4.75067629 21.47702897 4.75045234 C17.13034972 5.18835745 13.89502954 6.68520166 10.875 9.8125 Z " fill="#FEFEFE" transform="translate(0,0)"/>
<path d="M0 0 C0.68835938 0.6496875 0.68835938 0.6496875 1.390625 1.3125 C2.31101562 2.1478125 2.31101562 2.1478125 3.25 3 C3.85328125 3.556875 4.4565625 4.11375 5.078125 4.6875 C7.162653 6.37597443 7.162653 6.37597443 11 6 C11.825 5.154375 12.65 4.30875 13.5 3.4375 C16 1 16 1 18 0.875 C20 2 20 2 22.5 4.625 C24.66854414 7.1941815 24.66854414 7.1941815 27 7.125 C29.82907082 5.53364766 31.81070285 3.37173858 34 1 C36.60380719 2.11591737 38.06099536 3.06671367 40 5.1875 C41.78942656 7.21684481 41.78942656 7.21684481 43.9375 7 C46.6165777 5.70105324 48.70103421 3.87856184 51 2 C51.27320833 10.31767577 50.75387177 18.35287578 49.85424805 26.61010742 C48.90770691 35.44091536 48.2897658 44.2899921 47.69775391 53.15087891 C47.58246338 54.81062744 47.58246338 54.81062744 47.46484375 56.50390625 C47.399021 57.49205322 47.33319824 58.4802002 47.26538086 59.49829102 C47 62 47 62 46 65 C21.58 65 -2.84 65 -28 65 C-31.45427852 31.60864094 -31.45427852 31.60864094 -32.6875 16.6875 C-32.81810543 15.13344218 -32.94896571 13.57940576 -33.08007812 12.02539062 C-33.38960462 8.35049788 -33.69586736 4.67534359 -34 1 C-33.54109375 1.44472656 -33.0821875 1.88945313 -32.609375 2.34765625 C-31.99578125 2.91355469 -31.3821875 3.47945313 -30.75 4.0625 C-30.14671875 4.63097656 -29.5434375 5.19945313 -28.921875 5.78515625 C-27.08645838 7.21282306 -27.08645838 7.21282306 -24.9375 6.84375 C-21.98169663 5.55654531 -20.16026219 3.34028404 -18 1 C-15.39619281 2.11591737 -13.93900464 3.06671367 -12 5.1875 C-11.34 5.785625 -10.68 6.38375 -10 7 C-6.63530728 6.65805968 -5.01645712 5.35848829 -2.75 2.9375 C-2.22921875 2.38964844 -1.7084375 1.84179688 -1.171875 1.27734375 C-0.78515625 0.85582031 -0.3984375 0.43429688 0 0 Z " fill="#FDFDFD" transform="translate(155,106)"/>
<path d="M0 0 C1.01629881 -0.00260775 2.03259763 -0.00521549 3.07969338 -0.00790226 C4.7517093 -0.00455618 4.7517093 -0.00455618 6.45750332 -0.0011425 C7.64303451 -0.00270249 8.82856569 -0.00426248 10.05002207 -0.00586975 C13.34166933 -0.00917213 16.63325968 -0.00797826 19.92490351 -0.00488353 C23.47434634 -0.00262438 27.02378414 -0.0061116 30.57322598 -0.00886345 C37.52669324 -0.01331446 44.48014973 -0.01234768 51.43361742 -0.00945081 C57.08328803 -0.00719434 62.73295561 -0.00688531 68.38262653 -0.00797462 C69.58779648 -0.00820447 69.58779648 -0.00820447 70.81731329 -0.00843897 C72.44937997 -0.00875868 74.08144664 -0.0090829 75.71351331 -0.00941156 C91.0237972 -0.01226434 106.33407512 -0.00898238 121.64435803 -0.00361119 C134.78930574 0.00085752 147.93424461 0.00007997 161.07919216 -0.00452995 C176.33546626 -0.0098778 191.5917351 -0.01199057 206.84801 -0.00891769 C208.47383718 -0.00859913 210.09966435 -0.00828476 211.72549152 -0.00797462 C212.52548141 -0.00782035 213.3254713 -0.00766607 214.14970331 -0.00750712 C219.79493829 -0.00664266 225.44016994 -0.00810331 231.0854044 -0.01045418 C237.96158693 -0.01325466 244.83775804 -0.01250861 251.71393926 -0.00717343 C255.22413199 -0.00453992 258.73430565 -0.00352548 262.24449825 -0.00682259 C266.04427056 -0.01033781 269.84401144 -0.00614905 273.64378262 -0.0011425 C274.76069062 -0.00337322 275.87759862 -0.00560395 277.02835232 -0.00790226 C278.54888892 -0.00399064 278.54888892 -0.00399064 280.10014343 0 C281.416609 0.00024353 281.416609 0.00024353 282.75966984 0.00049198 C284.98715115 0.12584114 284.98715115 0.12584114 287.98715115 1.12584114 C287.98715115 1.78584114 287.98715115 2.44584114 287.98715115 3.12584114 C288.75027615 3.37334114 289.51340115 3.62084114 290.29965115 3.87584114 C293.2479606 5.24714786 294.34549646 6.36094904 295.98715115 9.12584114 C295.98715115 9.78584114 295.98715115 10.44584114 295.98715115 11.12584114 C296.64715115 11.12584114 297.30715115 11.12584114 297.98715115 11.12584114 C298.94066529 13.98638357 299.11407842 15.75874509 299.11857891 18.72614956 C299.12242006 19.67590611 299.1262612 20.62566266 299.13021874 21.60419971 C299.12935226 22.6497064 299.12848578 23.69521309 299.12759304 24.77240181 C299.13204972 26.43598599 299.13204972 26.43598599 299.13659644 28.13317794 C299.14530408 31.86877698 299.14679343 35.60434406 299.14828396 39.33995247 C299.15291065 42.0104303 299.15791434 44.68090519 299.16332912 47.3513813 C299.17691545 54.61996807 299.1829376 61.88854933 299.18733978 69.15714669 C299.19010164 73.69488152 299.19433888 78.23261421 299.19884396 82.7703476 C299.21103689 95.33174728 299.22133624 107.89314526 299.22471905 120.45455074 C299.22493861 121.25862627 299.22515818 122.06270179 299.2253844 122.89114324 C299.22560268 123.69715204 299.22582095 124.50316084 299.22604585 125.33359414 C299.22648931 126.96689848 299.22693588 128.60020282 299.22738552 130.23350716 C299.22760695 131.04368401 299.22782838 131.85386086 299.22805652 132.68858852 C299.23200497 145.81788528 299.24946031 158.94712655 299.27274504 172.07640187 C299.29645312 185.55305592 299.30892065 199.02968212 299.31008697 212.50635737 C299.31100402 220.07422417 299.31676399 227.64201867 299.33490658 235.20986557 C299.35030022 241.65378886 299.35543241 248.0976175 299.34716848 254.54155568 C299.34325934 257.82940948 299.34583341 261.11703259 299.35822582 264.40487099 C299.37087544 267.96952244 299.36510614 271.53368197 299.35464382 275.09832954 C299.36672843 276.65655134 299.36672843 276.65655134 299.37905717 278.24625236 C299.33447786 284.72413684 298.63071366 289.28507739 294.04965115 294.20787239 C293.36902615 294.77892708 292.68840115 295.34998177 291.98715115 295.93834114 C291.30652615 296.52228645 290.62590115 297.10623177 289.92465115 297.70787239 C286.7062888 300.06324645 283.98506036 300.25175603 280.12414074 300.25726891 C279.11578316 300.26111005 278.10742559 300.2649512 277.06851172 300.26890874 C275.95754103 300.26804226 274.84657033 300.26717577 273.70193386 300.26628304 C272.52416291 300.26925416 271.34639197 300.27222528 270.13293099 300.27528644 C266.85816011 300.28247409 263.58342116 300.28514633 260.30864358 300.2858839 C256.77887111 300.28773347 253.24911003 300.29528035 249.71934414 300.30201912 C241.99822522 300.31560731 234.27711148 300.32162799 226.55598259 300.32602978 C221.73548364 300.32879153 216.91498669 300.33302877 212.0944891 300.33753395 C198.74988716 300.34972753 185.40528683 300.36002649 172.06067944 300.36340904 C170.7792694 300.36373839 170.7792694 300.36373839 169.4719723 300.36407439 C168.61564485 300.36429267 167.75931739 300.36451095 166.87704062 300.36473584 C165.14177147 300.36517931 163.40650233 300.36562587 161.67123318 300.36607552 C160.81047819 300.36629695 159.94972319 300.36651838 159.06288472 300.36674652 C145.11624942 300.37069434 131.16966639 300.38814747 117.22305128 300.41143504 C102.90679331 300.43514699 88.59056157 300.44761083 74.27428365 300.44877696 C66.23522265 300.44969384 58.19622972 300.45544932 50.15718746 300.47359657 C43.31145046 300.4889955 36.46580256 300.49411929 29.62005153 300.48585847 C26.12753677 300.48195113 22.63520147 300.48288546 19.14270878 300.49691582 C15.3550849 300.50957501 11.56792334 300.50379075 7.780303 300.49333382 C6.12723129 300.50541842 6.12723129 300.50541842 4.44076419 300.51774716 C-1.48616375 300.47940993 -5.80843329 300.0533843 -11.01284885 297.12584114 C-13.26284885 294.62584114 -13.26284885 294.62584114 -15.01284885 292.12584114 C-15.84816135 291.35240364 -15.84816135 291.35240364 -16.70034885 290.56334114 C-19.29558011 287.720945 -19.1397422 284.09626809 -19.15265656 280.40807152 C-19.1583478 279.45755732 -19.16403904 278.50704312 -19.16990274 277.52772546 C-19.17167256 275.96588104 -19.17167256 275.96588104 -19.17347813 274.37248421 C-19.17856595 273.26398479 -19.18365377 272.15548538 -19.18889576 271.01339507 C-19.20463716 267.28557887 -19.21314974 263.55778208 -19.22158909 259.8299427 C-19.22869676 257.84200265 -19.23581072 255.85406258 -19.24342941 253.86612442 C-19.2767256 245.17342994 -19.2982676 236.48072371 -19.31662926 227.7879864 C-19.32142574 225.52442526 -19.32640886 223.2608646 -19.33143449 220.99730396 C-19.36240256 206.9377537 -19.38908442 192.87819929 -19.40585327 178.8186245 C-19.40980268 175.56328257 -19.4138057 172.30794072 -19.41787815 169.05259895 C-19.41888651 168.24351222 -19.41989487 167.4344255 -19.42093379 166.60082099 C-19.43794309 153.49227055 -19.47905709 140.3839088 -19.52990114 127.2754505 C-19.5816824 113.81457809 -19.61079598 100.35380274 -19.61805016 86.89283156 C-19.62271128 79.33598893 -19.63745071 71.77945553 -19.67779446 64.22271156 C-19.71210885 57.78758682 -19.72602818 51.35282714 -19.71337032 44.91761616 C-19.70754676 41.63532691 -19.71466347 38.35397079 -19.74153996 35.07176399 C-19.76915023 31.50958002 -19.75974186 27.94933168 -19.74110508 24.38713264 C-19.75790001 23.35482592 -19.77469494 22.32251919 -19.7919988 21.25893044 C-19.69894023 14.14086422 -17.8613585 10.2913807 -13.01284885 5.12584114 C-12.31159885 4.32146614 -11.61034885 3.51709114 -10.88784885 2.68834114 C-7.59700293 -0.05403046 -4.16145944 0.00076967 0 0 Z M-14.01284885 9.12584114 C-17.23241576 15.5698152 -17.44495347 22.1417937 -17.40725803 29.20799446 C-17.41334914 30.29147557 -17.41944024 31.37495667 -17.42571592 32.49127054 C-17.44230179 36.10459479 -17.43757631 39.71756493 -17.43277073 43.33091927 C-17.44011348 45.92845207 -17.44870031 48.52598161 -17.45843601 51.12350655 C-17.47943625 57.4359579 -17.48403406 63.74831731 -17.48224813 70.06079948 C-17.48093809 75.19305145 -17.48475695 80.32527484 -17.49217319 85.45752144 C-17.49427248 86.93846019 -17.49637008 88.41939894 -17.49846601 89.9003377 C-17.49950954 90.63753536 -17.50055307 91.37473302 -17.50162822 92.13427001 C-17.52050783 106.05939639 -17.51948703 119.98447002 -17.51265889 133.90960389 C-17.50708168 146.63885821 -17.52792044 159.36791137 -17.56101936 172.09711868 C-17.59477768 185.18187797 -17.60992227 198.26654094 -17.60530233 211.35134459 C-17.60306025 218.69178364 -17.60826292 226.03203667 -17.63319492 233.37243843 C-17.65643727 240.27380831 -17.65359945 247.17475262 -17.6332674 254.07612991 C-17.62985433 256.60730057 -17.6349591 259.13849935 -17.64925098 261.66963196 C-17.66743043 265.12813965 -17.65470189 268.585223 -17.63430882 272.04368782 C-17.65308559 273.54180779 -17.65308559 273.54180779 -17.67224169 275.07019281 C-17.57067629 283.1183546 -14.95074818 288.4757238 -9.95034885 294.68834114 C-7.8795389 296.52307242 -7.8795389 296.52307242 -4.01284885 296.12584114 C-4.01284885 296.78584114 -4.01284885 297.44584114 -4.01284885 298.12584114 C32.44711101 298.19449143 68.90705956 298.24736187 105.36707074 298.27903713 C109.670444 298.2827893 113.97381714 298.28667226 118.27719021 298.29063606 C119.13392279 298.29142299 119.99065536 298.29220993 120.87334953 298.2930207 C134.74971496 298.3060785 148.62604314 298.3297344 162.50238647 298.35729953 C176.73830934 298.38534333 190.97421268 298.40201523 205.21016204 298.40810663 C213.99616854 298.4122252 222.78206977 298.42523848 231.56804387 298.44959054 C237.59099863 298.46543508 243.61389887 298.47024441 249.63687296 298.46634527 C253.11304591 298.46442172 256.58903475 298.46739299 260.06517506 298.48345757 C263.83359607 298.49833706 267.6015631 298.49481085 271.36999416 298.48660469 C272.46921928 298.49534321 273.56844439 298.50408174 274.70097935 298.51308507 C281.45595393 298.47320248 285.90469504 297.69455456 291.23715115 293.25084114 C293.12972858 290.9527114 293.9866747 288.91288266 294.98715115 286.12584114 C295.64715115 285.13584114 296.30715115 284.14584114 296.98715115 283.12584114 C297.28760976 281.00062447 297.28760976 281.00062447 297.24162674 278.62203026 C297.24745893 277.69379078 297.25329113 276.7655513 297.25930005 275.80918336 C297.25552073 274.78770447 297.25174141 273.76622559 297.24784756 272.7137928 C297.2516731 271.62994356 297.25549865 270.54609432 297.25944012 269.42940116 C297.26980094 265.77901223 297.26577207 262.12877968 297.26180935 258.4783802 C297.26615418 255.8686375 297.27133656 253.25889608 297.27729702 250.64915657 C297.29006395 244.28442629 297.29183513 237.91973816 297.28949676 231.55499724 C297.2877152 226.38111512 297.28945976 221.20724583 297.2937212 216.03336525 C297.29461398 214.92963741 297.29461398 214.92963741 297.2955248 213.80361204 C297.29673654 212.30885476 297.29795067 210.81409748 297.29916718 209.3193402 C297.31005098 195.29177647 297.30787661 181.26423675 297.30178233 167.23667166 C297.2966158 154.40550599 297.30786013 141.5744163 297.32688055 128.74326566 C297.34625758 115.57057513 297.35451498 102.39792055 297.3507573 89.22521567 C297.34884461 81.82890878 297.3513391 74.43266651 297.36547184 67.03637123 C297.37863041 60.07936209 297.37612732 53.1225074 297.36306095 46.16549873 C297.3606905 43.61092007 297.36344656 41.05633078 297.37168407 38.5017643 C297.38211345 35.0162733 297.37408079 31.53129639 297.36137295 28.04582405 C297.36874723 27.03326805 297.37612152 26.02071206 297.38371927 24.97747254 C297.32905913 17.85785223 296.35752192 13.02296098 291.73715115 7.37584114 C284.98839527 1.85413178 278.88911912 1.69103873 270.46888638 1.73816109 C269.31431574 1.73277555 268.15974511 1.72739001 266.97018749 1.72184128 C263.77855262 1.71003637 260.58725388 1.71162064 257.39561617 1.71900809 C253.94832015 1.72374597 250.50107966 1.71122434 247.05380154 1.70099068 C240.30491906 1.68380853 233.5561297 1.68296157 226.80723103 1.68820358 C221.31977367 1.69224817 215.83234379 1.69079828 210.34488773 1.68545532 C209.56329616 1.6847069 208.78170459 1.68395848 207.97642842 1.68318738 C206.38850547 1.68165586 204.80058252 1.68011752 203.21265958 1.67857241 C188.32609259 1.66484909 173.43957819 1.67028352 158.55301241 1.68175762 C144.94488929 1.69168635 131.33690221 1.67875529 117.72880008 1.65482343 C103.74574259 1.63041807 89.76274842 1.6208283 75.77967006 1.62747616 C67.93338682 1.63096564 60.08720815 1.62875446 52.24094105 1.61122513 C45.56040737 1.59648501 38.88005187 1.59589107 32.19952162 1.61329604 C28.79364938 1.6217943 25.38809518 1.62398494 21.98223972 1.60864449 C18.28331632 1.59544265 14.58525345 1.60697678 10.88636684 1.6246357 C9.81913173 1.61503069 8.75189661 1.60542568 7.65232104 1.59552962 C-0.08585947 1.67136861 -8.78863315 2.76425137 -14.01284885 9.12584114 Z " fill="#D7D7D7" transform="translate(24.01284885406494,4.87415885925293)"/>
<path d="M0 0 C1.17369141 -0.00386719 1.17369141 -0.00386719 2.37109375 -0.0078125 C4.5625 0.125 4.5625 0.125 7.5625 1.125 C7.76166016 2.98705078 7.76166016 2.98705078 7.96484375 4.88671875 C8.14311151 6.52865861 8.32150346 8.17058499 8.5 9.8125 C8.63051758 11.03743164 8.63051758 11.03743164 8.76367188 12.28710938 C9.20008728 16.27950219 9.67552376 20.20152852 10.5625 24.125 C11.2225 24.125 11.8825 24.125 12.5625 24.125 C12.80742187 23.39925781 13.05234375 22.67351562 13.3046875 21.92578125 C14.70301207 18.81212063 16.37546221 16.81099245 18.6875 14.3125 C19.41195312 13.52230469 20.13640625 12.73210937 20.8828125 11.91796875 C21.71425781 11.03044922 21.71425781 11.03044922 22.5625 10.125 C23.5525 10.62 23.5525 10.62 24.5625 11.125 C24.01980469 11.71667969 23.47710937 12.30835937 22.91796875 12.91796875 C22.20253906 13.70816406 21.48710937 14.49835938 20.75 15.3125 C19.68845703 16.47845703 19.68845703 16.47845703 18.60546875 17.66796875 C16.60767141 20.07067339 14.96748326 22.33345948 13.5625 25.125 C14.30693113 27.94578213 14.30693113 27.94578213 15.5625 31.125 C15.83233326 33.70251171 15.99783359 36.26700536 16.12109375 38.85546875 C16.64900872 41.5697926 17.33994251 42.51193818 19.5625 44.125 C20.5525 44.125 21.5425 44.125 22.5625 44.125 C23.2225 43.135 23.8825 42.145 24.5625 41.125 C25.2225 41.125 25.8825 41.125 26.5625 41.125 C26.8925 40.135 27.2225 39.145 27.5625 38.125 C31.43183162 38.69823431 33.71472057 40.51453552 36.5625 43.125 C36.5625 43.785 36.5625 44.445 36.5625 45.125 C38.75140072 44.30726504 38.75140072 44.30726504 39.37890625 42.0859375 C42.80484877 30.21172835 43.59564113 20.84031472 39.5625 9.125 C40.2225 9.125 40.8825 9.125 41.5625 9.125 C46.4257723 19.66208999 44.76581167 30.02975195 42.5625 41.125 C44.2125 39.805 45.8625 38.485 47.5625 37.125 C47.04153147 50.74203955 45.90232059 64.2860841 44.66674805 77.85302734 C44.60271286 78.55674469 44.53867767 79.26046204 44.47270203 79.98550415 C44.34609359 81.37453407 44.21891593 82.76351223 44.09114075 84.1524353 C43.59311098 89.62102167 43.18908165 95.09368038 42.82617188 100.57275391 C42.5625 103.125 42.5625 103.125 41.5625 106.125 C16.4825 106.125 -8.5975 106.125 -34.4375 106.125 C-35.45190469 103.08178592 -35.74462111 100.5622765 -36.01000977 97.37182617 C-36.11003799 96.1901738 -36.21006622 95.00852142 -36.31312561 93.7910614 C-36.41733322 92.51294083 -36.52154083 91.23482025 -36.62890625 89.91796875 C-36.73847153 88.60468094 -36.8480368 87.29139313 -36.96092224 85.93830872 C-37.19268421 83.15689603 -37.42187914 80.37528741 -37.64916992 77.59350586 C-37.93971301 74.03912101 -38.23571665 70.48521764 -38.53355503 66.93143749 C-38.76279888 64.19057202 -38.9895534 61.44950504 -39.21552849 58.7083683 C-39.3761303 56.76407524 -39.53846043 54.81992519 -39.70082092 52.8757782 C-39.79769699 51.68466934 -39.89457306 50.49356049 -39.99438477 49.26635742 C-40.08019302 48.22283615 -40.16600128 47.17931488 -40.25440979 46.10417175 C-40.43885275 43.10298867 -40.4693218 40.13102939 -40.4375 37.125 C-39.7775 37.455 -39.1175 37.785 -38.4375 38.125 C-38.30214844 37.52171875 -38.16679688 36.9184375 -38.02734375 36.296875 C-36.30569219 29.90511472 -36.30569219 29.90511472 -33.8203125 27.671875 C-30.86964871 25.97492672 -27.80735407 24.66417665 -24.4375 24.125 C-26.24162643 20.86039027 -27.27144693 19.23570205 -30.4375 17.125 C-30.4375 16.465 -30.4375 15.805 -30.4375 15.125 C-29.1175 15.785 -27.7975 16.445 -26.4375 17.125 C-26.004375 16.17625 -25.57125 15.2275 -25.125 14.25 C-23.4375 11.125 -23.4375 11.125 -20.4375 9.125 C-19.4475 9.125 -18.4575 9.125 -17.4375 9.125 C-17.4375 12.095 -17.4375 15.065 -17.4375 18.125 C-14.4675 18.455 -11.4975 18.785 -8.4375 19.125 C-7.04805035 14.95665104 -7.08597889 10.75642156 -6.91992188 6.3984375 C-6.82868356 4.63564445 -6.64046439 2.87844496 -6.4375 1.125 C-4.08479407 -0.05135297 -2.616748 -0.00859359 0 0 Z M-5.4375 39.125 C-5.89640625 39.64191406 -6.3553125 40.15882812 -6.828125 40.69140625 C-7.44171875 41.35011719 -8.0553125 42.00882813 -8.6875 42.6875 C-9.29078125 43.34878906 -9.8940625 44.01007813 -10.515625 44.69140625 C-12.4375 46.125 -12.4375 46.125 -14.5 46 C-17.43680764 44.67369977 -19.27623246 42.46637317 -21.4375 40.125 C-24.04130719 41.24091737 -25.49849536 42.19171367 -27.4375 44.3125 C-29.4375 46.125 -29.4375 46.125 -31.3125 46.1875 C-34.42676529 44.63036735 -36.7840224 42.37720238 -39.4375 40.125 C-38.90933914 46.66837154 -38.37564564 53.21127615 -37.83837891 59.75390625 C-37.65681211 61.97255608 -37.47644127 64.19130415 -37.29736328 66.41015625 C-37.03744786 69.62788009 -36.77300981 72.84520765 -36.5078125 76.0625 C-36.39205368 77.51354126 -36.39205368 77.51354126 -36.2739563 78.99389648 C-35.57195188 87.42325632 -34.48982611 95.70639116 -33.4375 104.125 C-9.0175 104.125 15.4025 104.125 40.5625 104.125 C41.8591257 100.2351229 42.00324826 96.38982231 42.28125 92.328125 C42.34405151 91.46112976 42.40685303 90.59413452 42.47155762 89.7008667 C42.67220202 86.92582616 42.86775616 84.15046041 43.0625 81.375 C43.25772709 78.61386228 43.45411992 75.85282521 43.65344238 73.09197998 C43.7772846 71.37475152 43.89874836 69.65734933 44.01745605 67.9397583 C44.35085237 63.29575347 44.88498024 58.73421465 45.5625 54.125 C45.62650078 51.81329193 45.64883991 49.49997096 45.625 47.1875 C45.61597656 46.04410156 45.60695313 44.90070313 45.59765625 43.72265625 C45.58605469 42.86542969 45.57445312 42.00820312 45.5625 41.125 C44.655 41.970625 43.7475 42.81625 42.8125 43.6875 C39.86988536 46.10637058 39.86988536 46.10637058 37.5 46.25 C34.720222 44.63593535 32.73121065 42.47443654 30.5625 40.125 C27.95869281 41.24091737 26.50150464 42.19171367 24.5625 44.3125 C22.5625 46.125 22.5625 46.125 20.625 46.1875 C18.5625 45.125 18.5625 45.125 16.0625 42.5 C13.89395586 39.9308185 13.89395586 39.9308185 11.5625 40 C8.73342918 41.59135234 6.75179715 43.75326142 4.5625 46.125 C0.62110922 44.45748852 -2.2267812 41.89789351 -5.4375 39.125 Z " fill="#F9F7F9" transform="translate(160.4375,66.875)"/>
<path d="M0 0 C5.58187469 11.61029935 4.28559347 21.76191791 1 34 C-0.1015625 36.421875 -0.1015625 36.421875 -1 38 C-1.66 38 -2.32 38 -3 38 C-3.78375 37.195625 -4.5675 36.39125 -5.375 35.5625 C-7.81366675 33.18189674 -8.7272326 32.36364082 -12 32 C-13.65 33.98 -15.3 35.96 -17 38 C-20.28789198 37.43312207 -21.91534372 36.620378 -24 34 C-24.44140625 31.73046875 -24.44140625 31.73046875 -24.5625 29.1875 C-24.72361347 26.03846402 -25.01328569 23.96864247 -26.2578125 21.03125 C-27 18 -27 18 -25.55078125 15.11328125 C-24.81214844 14.18902344 -24.07351562 13.26476562 -23.3125 12.3125 C-22.58675781 11.38050781 -21.86101562 10.44851562 -21.11328125 9.48828125 C-19 7 -19 7 -17.29296875 5.35546875 C-15.73494696 3.91482017 -15.73494696 3.91482017 -15 1 C-10.67636371 -1.48936635 -4.55534773 -2.27767386 0 0 Z " fill="#F9F6F8" transform="translate(200,74)"/>
<path d="M0 0 C0.66 0 1.32 0 2 0 C6.8632723 10.53708999 5.20331167 20.90475195 3 32 C4.65 30.68 6.3 29.36 8 28 C7.47903147 41.61703955 6.33982059 55.1610841 5.10424805 68.72802734 C5.04021286 69.43174469 4.97617767 70.13546204 4.91020203 70.86050415 C4.78359359 72.24953407 4.65641593 73.63851223 4.52864075 75.0274353 C4.03061098 80.49602167 3.62658165 85.96868038 3.26367188 91.44775391 C3 94 3 94 2 97 C-23.08 97 -48.16 97 -74 97 C-75.01440469 93.95678592 -75.30712111 91.4372765 -75.57250977 88.24682617 C-75.67253799 87.0651738 -75.77256622 85.88352142 -75.87562561 84.6660614 C-75.97983322 83.38794083 -76.08404083 82.10982025 -76.19140625 80.79296875 C-76.30097153 79.47968094 -76.4105368 78.16639313 -76.52342224 76.81330872 C-76.75518421 74.03189603 -76.98437914 71.25028741 -77.21166992 68.46850586 C-77.50221301 64.91412101 -77.79821665 61.36021764 -78.09605503 57.80643749 C-78.32529888 55.06557202 -78.5520534 52.32450504 -78.77802849 49.5833683 C-78.9386303 47.63907524 -79.10096043 45.69492519 -79.26332092 43.7507782 C-79.36019699 42.55966934 -79.45707306 41.36856049 -79.55688477 40.14135742 C-79.64269302 39.09783615 -79.72850128 38.05431488 -79.81690979 36.97917175 C-80.00135275 33.97798867 -80.0318218 31.00602939 -80 28 C-79.34 28.33 -78.68 28.66 -78 29 C-77.01 26.03 -76.02 23.06 -75 20 C-74.01 20 -73.02 20 -72 20 C-72.495 20.86625 -72.99 21.7325 -73.5 22.625 C-75.07381214 26.1660773 -75.50885714 28.18357148 -75 32 C-73.89350331 34.02478463 -73.89350331 34.02478463 -72 35 C-68.70982308 35 -67.68607492 33.7074789 -65.25 31.4375 C-64.5075 30.633125 -63.765 29.82875 -63 29 C-59.08597051 30.26941497 -57.20927127 31.51167694 -55 35 C-50.75177626 34.52797514 -48.80010291 32.03344482 -46 29 C-39.35384615 30.47692308 -39.35384615 30.47692308 -37.5625 33.125 C-37.376875 33.74375 -37.19125 34.3625 -37 35 C-34.47392093 33.91739468 -32.90126188 32.90126188 -30.9375 30.9375 C-29 29 -29 29 -26 28 C-26 25.36 -26 22.72 -26 20 C-23.10296933 22.89703067 -23.62240307 25.62542953 -23.44140625 29.58984375 C-22.92647061 32.40148348 -22.30647919 33.34784115 -20 35 C-19.01 35 -18.02 35 -17 35 C-16.34 34.01 -15.68 33.02 -15 32 C-14.34 32 -13.68 32 -13 32 C-12.505 30.515 -12.505 30.515 -12 29 C-8.13066838 29.57323431 -5.84777943 31.38953552 -3 34 C-3 34.66 -3 35.32 -3 36 C-0.81109928 35.18226504 -0.81109928 35.18226504 -0.18359375 32.9609375 C3.24234877 21.08672835 4.03314113 11.71531472 0 0 Z M-45 30 C-45.45890625 30.51691406 -45.9178125 31.03382812 -46.390625 31.56640625 C-47.00421875 32.22511719 -47.6178125 32.88382813 -48.25 33.5625 C-48.85328125 34.22378906 -49.4565625 34.88507813 -50.078125 35.56640625 C-52 37 -52 37 -54.0625 36.875 C-56.99930764 35.54869977 -58.83873246 33.34137317 -61 31 C-63.60380719 32.11591737 -65.06099536 33.06671367 -67 35.1875 C-69 37 -69 37 -70.875 37.0625 C-73.98926529 35.50536735 -76.3465224 33.25220238 -79 31 C-78.47183914 37.54337154 -77.93814564 44.08627615 -77.40087891 50.62890625 C-77.21931211 52.84755608 -77.03894127 55.06630415 -76.85986328 57.28515625 C-76.59994786 60.50288009 -76.33550981 63.72020765 -76.0703125 66.9375 C-75.95455368 68.38854126 -75.95455368 68.38854126 -75.8364563 69.86889648 C-75.13445188 78.29825632 -74.05232611 86.58139116 -73 95 C-48.58 95 -24.16 95 1 95 C2.2966257 91.1101229 2.44074826 87.26482231 2.71875 83.203125 C2.78155151 82.33612976 2.84435303 81.46913452 2.90905762 80.5758667 C3.10970202 77.80082616 3.30525616 75.02546041 3.5 72.25 C3.69522709 69.48886228 3.89161992 66.72782521 4.09094238 63.96697998 C4.2147846 62.24975152 4.33624836 60.53234933 4.45495605 58.8147583 C4.78835237 54.17075347 5.32248024 49.60921465 6 45 C6.06400078 42.68829193 6.08633991 40.37497096 6.0625 38.0625 C6.05347656 36.91910156 6.04445313 35.77570313 6.03515625 34.59765625 C6.02355469 33.74042969 6.01195312 32.88320312 6 32 C5.0925 32.845625 4.185 33.69125 3.25 34.5625 C0.30738536 36.98137058 0.30738536 36.98137058 -2.0625 37.125 C-4.842278 35.51093535 -6.83128935 33.34943654 -9 31 C-11.60380719 32.11591737 -13.06099536 33.06671367 -15 35.1875 C-17 37 -17 37 -18.9375 37.0625 C-21 36 -21 36 -23.5 33.375 C-25.66854414 30.8058185 -25.66854414 30.8058185 -28 30.875 C-30.82907082 32.46635234 -32.81070285 34.62826142 -35 37 C-38.94139078 35.33248852 -41.7892812 32.77289351 -45 30 Z " fill="#736880" transform="translate(200,76)"/>
<path d="M0 0 C13 0 13 0 18 2 C20.67526249 6.20398391 20.38872905 11.17252764 20 16 C19.67 16.99 19.34 17.98 19 19 C18.34 19 17.68 19 17 19 C17 19.66 17 20.32 17 21 C13.33134759 23.44576827 11.32799657 23.23607254 7 23 C6.34 22.67 5.68 22.34 5 22 C5 24.97 5 27.94 5 31 C3.35 31 1.7 31 0 31 C0 20.77 0 10.54 0 0 Z " fill="#4E215A" transform="translate(132,195)"/>
<path d="M0 0 C1.21042969 -0.020625 2.42085937 -0.04125 3.66796875 -0.0625 C4.82683594 -0.06765625 5.98570312 -0.0728125 7.1796875 -0.078125 C8.24687012 -0.0874707 9.31405273 -0.09681641 10.41357422 -0.10644531 C13.125 0.25 13.125 0.25 14.95385742 1.60009766 C17.94859463 5.81907494 17.23415524 11.67954404 17.1875 16.625 C17.17847656 17.87023437 17.16945312 19.11546875 17.16015625 20.3984375 C17.14855469 21.33945313 17.13695312 22.28046875 17.125 23.25 C15.475 23.25 13.825 23.25 12.125 23.25 C11.795 17.31 11.465 11.37 11.125 5.25 C9.145 5.25 7.165 5.25 5.125 5.25 C4.795 11.19 4.465 17.13 4.125 23.25 C2.145 23.25 0.165 23.25 -1.875 23.25 C-2.205 17.31 -2.535 11.37 -2.875 5.25 C-5.845 4.755 -5.845 4.755 -8.875 4.25 C-8.875 10.52 -8.875 16.79 -8.875 23.25 C-10.525 23.25 -12.175 23.25 -13.875 23.25 C-13.90387512 19.60418313 -13.92175585 15.95839537 -13.9375 12.3125 C-13.94587891 11.27158203 -13.95425781 10.23066406 -13.96289062 9.15820312 C-13.96772461 7.67416992 -13.96772461 7.67416992 -13.97265625 6.16015625 C-13.97789307 5.24371338 -13.98312988 4.32727051 -13.98852539 3.38305664 C-13.68833458 -2.2573028 -4.21880489 0.01785738 0 0 Z " fill="#52275D" transform="translate(194.875,194.75)"/>
<path d="M0 0 C3.96 0 7.92 0 12 0 C12.268125 1.505625 12.53625 3.01125 12.8125 4.5625 C13.88146079 9.90730394 15.04184252 15.04184252 19 19 C19.4140625 21.1640625 19.4140625 21.1640625 19.625 23.625 C19.69976562 24.44226563 19.77453125 25.25953125 19.8515625 26.1015625 C19.92503906 27.04128906 19.92503906 27.04128906 20 28 C18.9171875 28.3403125 18.9171875 28.3403125 17.8125 28.6875 C14.46790687 30.24831013 12.48396041 32.3031287 10 35 C8.0625 34.1875 8.0625 34.1875 6 33 C4.51359905 28.54079716 4.77026434 24.02606949 4.671875 19.34765625 C3.82633026 15.13468044 2.25268029 14.59693994 -1 12 C-1.3717434 7.840784 -0.58921711 4.16984415 0 0 Z " fill="#F7F5F8" transform="translate(155,77)"/>
<path d="M0 0 C3.49890004 2.11391877 4.70578686 3.11736059 6 7 C6.52442906 12.38548303 6.56606775 16.64147274 3 21 C-0.71042531 23.47361688 -3.69862675 23.54607278 -8 23 C-11.86427775 21.31987924 -13.42572015 19.84901021 -15 16 C-15.59269481 11.69718966 -15.46581833 8.04254578 -13.6875 4.0625 C-9.80696697 -0.68037371 -5.72230586 -0.83324805 0 0 Z " fill="#4A1957" transform="translate(120,195)"/>
<path d="M0 0 C1.72774308 -0.10892951 3.45750948 -0.18601092 5.1875 -0.25 C6.15042969 -0.29640625 7.11335937 -0.3428125 8.10546875 -0.390625 C11.99789694 0.13466895 13.46232687 0.98421454 16 4 C16.60092159 7.10808539 16.47248574 10.09951148 16.3125 13.25 C16.28994141 14.09046875 16.26738281 14.9309375 16.24414062 15.796875 C16.18537714 17.86534964 16.09569885 19.93290488 16 22 C12.96693887 23.01102038 10.74059761 23.1982535 7.5625 23.25 C6.61503906 23.27578125 5.66757813 23.3015625 4.69140625 23.328125 C1.53638415 22.94347789 0.20308504 22.27481339 -2 20 C-2.49609375 18.0625 -2.49609375 18.0625 -2.4375 16 C-2.43621094 15.319375 -2.43492187 14.63875 -2.43359375 13.9375 C-1.8623574 11.38494837 -1.13845916 10.50157024 1 9 C3.48046875 8.70703125 3.48046875 8.70703125 6.1875 8.8125 C7.08855469 8.83957031 7.98960937 8.86664063 8.91796875 8.89453125 C9.94857422 8.94673828 9.94857422 8.94673828 11 9 C10.34 7.68 9.68 6.36 9 5 C6.03 5 3.06 5 0 5 C0 3.35 0 1.7 0 0 Z " fill="#502558" transform="translate(219,195)"/>
<path d="M0 0 C0.495 0.165 0.99 0.33 1.5 0.5 C1.5 2.15 1.5 3.8 1.5 5.5 C-2.13 5.5 -5.76 5.5 -9.5 5.5 C-9.5 7.15 -9.5 8.8 -9.5 10.5 C-8.89671875 10.74234375 -8.2934375 10.9846875 -7.671875 11.234375 C1.15903308 14.93765903 1.15903308 14.93765903 3.5 18.5 C4.19182497 22.72781927 3.94829471 24.7475053 1.75 28.4375 C-3.12964957 31.53420069 -7.86507997 31.06188661 -13.5 30.5 C-14.49 30.17 -15.48 29.84 -16.5 29.5 C-16.5 27.85 -16.5 26.2 -16.5 24.5 C-15.65695313 24.5721875 -14.81390625 24.644375 -13.9453125 24.71875 C-12.84960938 24.8115625 -11.75390625 24.904375 -10.625 25 C-8.98917969 25.13921875 -8.98917969 25.13921875 -7.3203125 25.28125 C-5.71670436 25.40562958 -4.10842449 25.5 -2.5 25.5 C-3.16 22.86 -3.82 20.22 -4.5 17.5 C-5.386875 17.4175 -6.27375 17.335 -7.1875 17.25 C-10.94700715 16.39879084 -12.72084432 15.12034678 -15.5 12.5 C-16.92041821 9.65916359 -16.81452272 7.64522722 -16.5 4.5 C-11.95670266 -1.10340006 -6.77272205 -1.35454441 0 0 Z " fill="#53265E" transform="translate(172.5,187.5)"/>
<path d="M0 0 C0 1.65 0 3.3 0 5 C-3.63 5 -7.26 5 -11 5 C-10.61427251 9.95915965 -10.61427251 9.95915965 -7.78515625 11.51171875 C-6.88667969 11.89972656 -5.98820312 12.28773438 -5.0625 12.6875 C-0.13659794 14.86340206 -0.13659794 14.86340206 2 17 C2.1953125 19.1640625 2.1953125 19.1640625 2.125 21.625 C2.10695313 22.44226563 2.08890625 23.25953125 2.0703125 24.1015625 C2.04710938 24.72804687 2.02390625 25.35453125 2 26 C1.34 26 0.68 26 0 26 C0 26.66 0 27.32 0 28 C-3.43673813 30.10022886 -6.13616813 30.24140313 -10.125 30.1875 C-11.17945313 30.18105469 -12.23390625 30.17460937 -13.3203125 30.16796875 C-16 30 -16 30 -18 29 C-17.67 27.35 -17.34 25.7 -17 24 C-16.30132812 24.08378906 -15.60265625 24.16757813 -14.8828125 24.25390625 C-13.97273438 24.35574219 -13.06265625 24.45757812 -12.125 24.5625 C-11.22007813 24.66691406 -10.31515625 24.77132812 -9.3828125 24.87890625 C-6.98346943 25.19674852 -6.98346943 25.19674852 -5 24 C-5 22.35 -5 20.7 -5 19 C-5.68707031 18.69707031 -6.37414062 18.39414063 -7.08203125 18.08203125 C-14.35471127 14.7005992 -14.35471127 14.7005992 -17.1875 11.625 C-18.32828512 7.93938655 -18.15776167 5.6775959 -17 2 C-11.83552315 -1.81187577 -6.01267265 -1.92405525 0 0 Z " fill="#52285C" transform="translate(74,188)"/>
<path d="M0 0 C0 3.63 0 7.26 0 11 C1.4025 10.938125 2.805 10.87625 4.25 10.8125 C7.21535092 10.821825 8.79034956 10.90041604 11.5 12.1875 C14.85613326 16.24282769 14.12488363 21.7978157 14.0625 26.8125 C14.05798828 27.50537109 14.05347656 28.19824219 14.04882812 28.91210938 C14.03713156 30.60811068 14.01919924 32.30406703 14 34 C12.35 34 10.7 34 9 34 C8.67 28.06 8.34 22.12 8 16 C5.69 16 3.38 16 1 16 C0.67 21.94 0.34 27.88 0 34 C-1.65 34 -3.3 34 -5 34 C-5 23.11 -5 12.22 -5 1 C-2 0 -2 0 0 0 Z " fill="#4A1C55" transform="translate(86,184)"/>
<path d="M0 0 C0.99 0 1.98 0 3 0 C3.309375 1.0725 3.61875 2.145 3.9375 3.25 C5.01042657 5.83335718 5.69008201 6.81836308 8.1328125 8.25 C9.71854899 8.90265039 11.32193393 9.51436781 12.94140625 10.078125 C15 11 15 11 17 14 C17.125 16.6875 17.125 16.6875 17 19 C13.19044361 20.90477819 9.59283679 20.17565535 5.625 19 C4.75875 18.67 3.8925 18.34 3 18 C3 19.65 3 21.3 3 23 C7.95 23.33 12.9 23.66 18 24 C18 24.33 18 24.66 18 25 C11.565 25.495 11.565 25.495 5 26 C5 26.66 5 27.32 5 28 C1.30458414 28.95024979 -1.30458414 28.95024979 -5 28 C-3.35 26.35 -1.7 24.7 0 23 C-0.66 22.34 -1.32 21.68 -2 21 C-2.16015625 18.1015625 -2.16015625 18.1015625 -2.0625 14.625 C-1.91217821 9.23504003 -1.91217821 9.23504003 -3 4 C-2.34 3.67 -1.68 3.34 -1 3 C-0.67 2.01 -0.34 1.02 0 0 Z " fill="#F5F0F6" transform="translate(153,194)"/>
<path d="M0 0 C1.17369141 -0.00386719 1.17369141 -0.00386719 2.37109375 -0.0078125 C4.5625 0.125 4.5625 0.125 7.5625 1.125 C7.76166016 2.98705078 7.76166016 2.98705078 7.96484375 4.88671875 C8.14311151 6.52865861 8.32150346 8.17058499 8.5 9.8125 C8.58701172 10.62912109 8.67402344 11.44574219 8.76367188 12.28710938 C9.20008728 16.27950219 9.67552376 20.20152852 10.5625 24.125 C11.2225 24.125 11.8825 24.125 12.5625 24.125 C12.80742187 23.39925781 13.05234375 22.67351562 13.3046875 21.92578125 C14.70301207 18.81212063 16.37546221 16.81099245 18.6875 14.3125 C19.41195312 13.52230469 20.13640625 12.73210937 20.8828125 11.91796875 C21.71425781 11.03044922 21.71425781 11.03044922 22.5625 10.125 C23.2225 10.455 23.8825 10.785 24.5625 11.125 C24.01980469 11.71667969 23.47710937 12.30835937 22.91796875 12.91796875 C22.20253906 13.70816406 21.48710937 14.49835938 20.75 15.3125 C19.68845703 16.47845703 19.68845703 16.47845703 18.60546875 17.66796875 C15.6583312 21.2124229 13.40937664 24.55186616 12.5625 29.125 C7.18867365 23.03466347 6.29159704 17.98118574 6.5625 10.125 C5.510625 10.310625 4.45875 10.49625 3.375 10.6875 C-0.00869882 11.07579331 -2.20175888 11.00747485 -5.4375 10.125 C-5.416875 11.176875 -5.39625 12.22875 -5.375 13.3125 C-5.42646802 16.45204904 -5.70267187 19.09383396 -6.4375 22.125 C-5.509375 22.558125 -5.509375 22.558125 -4.5625 23 C-2.4375 24.125 -2.4375 24.125 -0.4375 26.125 C-0.7675 27.115 -1.0975 28.105 -1.4375 29.125 C-2.035625 28.34125 -2.63375 27.5575 -3.25 26.75 C-6.12887271 23.29535275 -8.23331392 21.93196912 -12.625 21.5 C-13.883125 21.37625 -15.14125 21.2525 -16.4375 21.125 C-16.4375 20.795 -16.4375 20.465 -16.4375 20.125 C-12.4775 19.63 -12.4775 19.63 -8.4375 19.125 C-7.04805035 14.95665104 -7.08597889 10.75642156 -6.91992188 6.3984375 C-6.82868356 4.63564445 -6.64046439 2.87844496 -6.4375 1.125 C-4.08479407 -0.05135297 -2.616748 -0.00859359 0 0 Z " fill="#786B81" transform="translate(160.4375,66.875)"/>
<path d="M0 0 C0.33 0 0.66 0 1 0 C1.33648748 23.18024893 1.33648748 23.18024893 -2 29 C-2.33 29.66 -2.66 30.32 -3 31 C-3.99 31 -4.98 31 -6 31 C-6 30.34 -6 29.68 -6 29 C-5.34 29 -4.68 29 -4 29 C-3.82590013 25.80352646 -3.94739195 23.04029996 -5 20 C-7.11743381 18.23832936 -9.16589066 17.19042896 -11.67578125 16.0703125 C-14.06758602 14.96887636 -15.95042702 13.64153442 -18 12 C-17.67 10.35 -17.34 8.7 -17 7 C-15.54176788 6.9729957 -14.08339325 6.95360213 -12.625 6.9375 C-11.81289062 6.92589844 -11.00078125 6.91429687 -10.1640625 6.90234375 C-8 7 -8 7 -6 8 C-6 6.68 -6 5.36 -6 4 C-5.34 4 -4.68 4 -4 4 C-4 4.66 -4 5.32 -4 6 C-3.34 6 -2.68 6 -2 6 C-1.34 4.02 -0.68 2.04 0 0 Z " fill="#F6EFF6" transform="translate(80,185)"/>
<path d="M0 0 C0 2.31 0 4.62 0 7 C2.64 7 5.28 7 8 7 C8 8.32 8 9.64 8 11 C5.36 11 2.72 11 0 11 C0.33 15.62 0.66 20.24 1 25 C3.64 25 6.28 25 9 25 C9 26.32 9 27.64 9 29 C5.81897402 30.59051299 2.4630901 30.39740378 -1 30 C-3.20850216 28.5751599 -3.78253708 27.69247018 -4.56030273 25.21582031 C-5.06148469 22.69015265 -5.11262656 20.3717678 -5.09765625 17.796875 C-5.09443359 16.8171875 -5.09121094 15.8375 -5.08789062 14.828125 C-5.07951172 13.81234375 -5.07113281 12.7965625 -5.0625 11.75 C-5.05798828 10.71875 -5.05347656 9.6875 -5.04882812 8.625 C-5.03706088 6.08327427 -5.02062011 3.54166681 -5 1 C-1.125 0 -1.125 0 0 0 Z " fill="#441E50" transform="translate(263,188)"/>
<path d="M0 0 C4.29 0 8.58 0 13 0 C13 0.66 13 1.32 13 2 C9.91190305 3.76462683 8.76687864 4 5 4 C5 8.62 5 13.24 5 18 C7.475 18.99 7.475 18.99 10 20 C9.67 20.66 9.34 21.32 9 22 C7.68 22 6.36 22 5 22 C5 24.97 5 27.94 5 31 C3.35 31 1.7 31 0 31 C0 20.77 0 10.54 0 0 Z " fill="#491C54" transform="translate(132,195)"/>
<path d="M0 0 C0.78503906 0.08378906 1.57007813 0.16757813 2.37890625 0.25390625 C8.14610559 0.81293539 13.31162979 1.16353027 19 0 C19.33 0.66 19.66 1.32 20 2 C18.79302468 5.40147591 17.06495314 7.14245264 14 9 C13.01 9 12.02 9 11 9 C9.54965396 10.30456502 9.54965396 10.30456502 8.3125 12 C7.1678125 13.485 7.1678125 13.485 6 15 C2.71921733 14.43434782 1.07524054 13.6219753 -1 11 C-1.328125 8.80859375 -1.328125 8.80859375 -1.25 6.4375 C-1.23453125 5.65246094 -1.2190625 4.86742188 -1.203125 4.05859375 C-1 2 -1 2 0 0 Z " fill="#E5E1E7" transform="translate(177,97)"/>
<path d="M0 0 C1.09570312 0.00902344 2.19140625 0.01804688 3.3203125 0.02734375 C4.16335937 0.03894531 5.00640625 0.05054688 5.875 0.0625 C5.545 1.7125 5.215 3.3625 4.875 5.0625 C2.565 4.7325 0.255 4.4025 -2.125 4.0625 C-2.125 10.3325 -2.125 16.6025 -2.125 23.0625 C-4.105 23.0625 -6.085 23.0625 -8.125 23.0625 C-8.125 15.8025 -8.125 8.5425 -8.125 1.0625 C-5.36047967 -0.31976016 -3.0788637 -0.03275387 0 0 Z " fill="#683F71" transform="translate(249.125,194.9375)"/>
<path d="M0 0 C3.19269567 1.59634783 3.83710989 4.80547246 5 8 C6.86068199 14.59696341 6.10921948 21.34468311 5 28 C2.32072659 23.98108988 2.84398752 21.75838077 3 17 C2.34 17.33 1.68 17.66 1 18 C0.34 17.67 -0.32 17.34 -1 17 C-1 17.66 -1 18.32 -1 19 C-2.64846769 18.55123384 -4.29373455 18.09069512 -5.9375 17.625 C-7.31228516 17.24214844 -7.31228516 17.24214844 -8.71484375 16.8515625 C-11 16 -11 16 -12 14 C-9.36 14 -6.72 14 -4 14 C-3.87625 13.236875 -3.7525 12.47375 -3.625 11.6875 C-3 9 -3 9 -1 6 C-1 4.68 -1 3.36 -1 2 C-5.46839215 1.78721942 -8.82262526 2.40861915 -13 4 C-13 3.34 -13 2.68 -13 2 C-8.49009758 -0.25495121 -4.94269981 -0.2430836 0 0 Z " fill="#D8D3DB" transform="translate(198,73)"/>
<path d="M0 0 C2.31 0 4.62 0 7 0 C7 0.66 7 1.32 7 2 C7.99 2 8.98 2 10 2 C10 1.34 10 0.68 10 0 C10.66 0 11.32 0 12 0 C12.66 1.65 13.32 3.3 14 5 C14.66 3.35 15.32 1.7 16 0 C16.66 0.33 17.32 0.66 18 1 C18.40729228 3.32156597 18.74438677 5.6568787 19 8 C18.01 7.34 17.02 6.68 16 6 C15.34 7.32 14.68 8.64 14 10 C13.01 9.34 12.02 8.68 11 8 C10.484375 8.515625 9.96875 9.03125 9.4375 9.5625 C6.0289729 11.57265701 3.76893143 10.79727396 0 10 C0 6.7 0 3.4 0 0 Z " fill="#C6C1CA" transform="translate(110,232)"/>
<path d="M0 0 C1.72774308 -0.10892951 3.45750948 -0.18601092 5.1875 -0.25 C6.15042969 -0.29640625 7.11335937 -0.3428125 8.10546875 -0.390625 C11.99789694 0.13466895 13.46232687 0.98421454 16 4 C16.60092159 7.10808539 16.47248574 10.09951148 16.3125 13.25 C16.28994141 14.09046875 16.26738281 14.9309375 16.24414062 15.796875 C16.18537714 17.86534964 16.09569885 19.93290488 16 22 C14.35 21.67 12.7 21.34 11 21 C11.02320313 20.43152344 11.04640625 19.86304688 11.0703125 19.27734375 C11.19191688 14.07441352 10.67723492 9.92687757 9 5 C6.03 5 3.06 5 0 5 C0 3.35 0 1.7 0 0 Z " fill="#6F4878" transform="translate(219,195)"/>
<path d="M0 0 C2.31 0.33 4.62 0.66 7 1 C8.1845131 4.55353929 8.26641894 7.27013478 8 11 C6.875 12.9375 6.875 12.9375 5 14 C1.9375 14.375 1.9375 14.375 -1 14 C-3.47342266 10.28986601 -3.38503486 8.38939738 -3 4 C-1.5 1.5625 -1.5 1.5625 0 0 Z " fill="#F8F3F8" transform="translate(113,199)"/>
<path d="M0 0 C6 0 6 0 8.375 1.625 C10.49970879 4.73034361 10.60386292 6.3013396 10 10 C8 12.875 8 12.875 6 15 C3.03 14.505 3.03 14.505 0 14 C0 9.38 0 4.76 0 0 Z " fill="#F5ECF5" transform="translate(137,199)"/>
<path d="M0 0 C3.49890004 2.11391877 4.70578686 3.11736059 6 7 C6.06740865 8.56118428 6.08514456 10.1250252 6.0625 11.6875 C6.05347656 12.49574219 6.04445313 13.30398437 6.03515625 14.13671875 C6.02355469 14.75160156 6.01195313 15.36648437 6 16 C5.01 16 4.02 16 3 16 C3 16.66 3 17.32 3 18 C2.34 18 1.68 18 1 18 C0.67 18.99 0.34 19.98 0 21 C-1.125 17.25 -1.125 17.25 0 15 C0.06996014 13.29297265 0.08440154 11.58331997 0.0625 9.875 C0.041875 8.26625 0.02125 6.6575 0 5 C-3.63 4.67 -7.26 4.34 -11 4 C-11 3.01 -11 2.02 -11 1 C-7.53984865 -0.73007568 -3.78327445 -0.4835273 0 0 Z " fill="#4A1F55" transform="translate(120,195)"/>
<path d="M0 0 C0.76681614 7.66816143 0.76681614 7.66816143 -1.11328125 10.93359375 C-2.5 12.5625 -2.5 12.5625 -5 15 C-4.34 15.33 -3.68 15.66 -3 16 C-2.67 16.99 -2.34 17.98 -2 19 C-3.98 19.33 -5.96 19.66 -8 20 C-8 19.67 -8 19.34 -8 19 C-10.31 19 -12.62 19 -15 19 C-14.67 18.34 -14.34 17.68 -14 17 C-11.6859378 16.26924352 -9.35171131 15.59861742 -7 15 C-8.80412643 11.73539027 -9.83394693 10.11070205 -13 8 C-13 7.34 -13 6.68 -13 6 C-11.68 6.66 -10.36 7.32 -9 8 C-8.3503125 6.576875 -8.3503125 6.576875 -7.6875 5.125 C-5.62145317 1.29898736 -4.42606997 0 0 0 Z " fill="#7B6D87" transform="translate(143,76)"/>
<path d="M0 0 C2.89703067 2.89703067 2.37759693 5.62542953 2.55859375 9.58984375 C3.07352939 12.40148348 3.69352081 13.34784115 6 15 C6.99 15 7.98 15 9 15 C9.66 14.01 10.32 13.02 11 12 C11.66 12 12.32 12 13 12 C13.33 11.01 13.66 10.02 14 9 C17.86933162 9.57323431 20.15222057 11.38953552 23 14 C23 14.66 23 15.32 23 16 C23.66 16 24.32 16 25 16 C25 16.66 25 17.32 25 18 C21.63408134 16.55746343 19.48952921 14.66735273 17 12 C14.39619281 13.11591737 12.93900464 14.06671367 11 16.1875 C9 18 9 18 7.0625 18.0625 C5 17 5 17 2.5 14.375 C0.33145586 11.8058185 0.33145586 11.8058185 -2 11.875 C-4.82907082 13.46635234 -6.81070285 15.62826142 -9 18 C-13.2742558 16.4169423 -15.26531794 13.49431596 -18 10 C-15.625 10.25 -15.625 10.25 -13 11 C-11.6875 13.0625 -11.6875 13.0625 -11 15 C-8.47392093 13.91739468 -6.90126188 12.90126188 -4.9375 10.9375 C-3 9 -3 9 0 8 C0 5.36 0 2.72 0 0 Z " fill="#7A6E86" transform="translate(174,96)"/>
<path d="M0 0 C2.15853811 3.42826641 1.86836009 5.14062184 1 9 C1.36856864 11.23167185 1.36856864 11.23167185 2 13 C-0.73019786 14.06528748 -1.79298812 14.07998186 -4.578125 13.00390625 C-5.45984375 12.52824219 -6.3415625 12.05257812 -7.25 11.5625 C-8.14203125 11.08941406 -9.0340625 10.61632812 -9.953125 10.12890625 C-10.62859375 9.75636719 -11.3040625 9.38382813 -12 9 C-12.042721 7.33388095 -12.04063832 5.66617115 -12 4 C-10.11940967 2.11940967 -7.50109962 2.87638782 -5.0078125 2.8671875 C-3 3 -3 3 0 4 C0 2.68 0 1.36 0 0 Z " fill="#F3EDF3" transform="translate(174,189)"/>
<path d="M0 0 C1.98 0 3.96 0 6 0 C5.67 0.66 5.34 1.32 5 2 C4.91627341 3.52148326 4.89269973 5.04655778 4.90234375 6.5703125 C4.90556641 7.46621094 4.90878906 8.36210937 4.91210938 9.28515625 C4.92048828 10.22230469 4.92886719 11.15945312 4.9375 12.125 C4.94201172 13.06988281 4.94652344 14.01476562 4.95117188 14.98828125 C4.96297643 17.32558387 4.97944241 19.66276061 5 22 C3.35 22 1.7 22 0 22 C0 14.74 0 7.48 0 0 Z " fill="#4B1D54" transform="translate(181,196)"/>
<path d="M0 0 C2.64 0 5.28 0 8 0 C9.231394 3.69418201 8.64432764 6.2056261 8 10 C5.36 10 2.72 10 0 10 C-1.36952673 7.26094655 -1.12621361 5.02912668 -1 2 C-0.67 1.34 -0.34 0.68 0 0 Z " fill="#F9F5FB" transform="translate(163,232)"/>
<path d="M0 0 C5.875 1.875 5.875 1.875 7 3 C7.25 5.4375 7.25 5.4375 7 8 C3.81967735 10.1202151 3.45432601 10.2495865 -0.0625 9.75 C-0.75472656 9.66234375 -1.44695313 9.5746875 -2.16015625 9.484375 C-4 9 -4 9 -6 7 C-5.34 7 -4.68 7 -4 7 C-4.33 5.68 -4.66 4.36 -5 3 C-4.01 3 -3.02 3 -2 3 C-1.34 2.67 -0.68 2.34 0 2 C0 1.34 0 0.68 0 0 Z " fill="#F2EAF3" transform="translate(63,204)"/>
<path d="M0 0 C3.375 -0.1875 3.375 -0.1875 7 0 C9.14915785 3.22373677 9.38286803 4.26703674 9 8 C7 10 7 10 3.375 10.125 C2.26125 10.08375 1.1475 10.0425 0 10 C0 6.7 0 3.4 0 0 Z " fill="#C6C0CA" transform="translate(143,232)"/>
<path d="M0 0 C0 3.96 0 7.92 0 12 C-1.32 11.67 -2.64 11.34 -4 11 C-3.67 18.26 -3.34 25.52 -3 33 C-3.66 33 -4.32 33 -5 33 C-5 22.44 -5 11.88 -5 1 C-2 0 -2 0 0 0 Z " fill="#441C4C" transform="translate(86,184)"/>
<path d="M0 0 C0 1.65 0 3.3 0 5 C-0.77085938 4.97679687 -1.54171875 4.95359375 -2.3359375 4.9296875 C-3.84027344 4.90261719 -3.84027344 4.90261719 -5.375 4.875 C-6.37273437 4.85179687 -7.37046875 4.82859375 -8.3984375 4.8046875 C-11.16262173 4.72783152 -11.16262173 4.72783152 -13 7 C-13.99 6.01 -14.98 5.02 -16 4 C-15.34 3.67 -14.68 3.34 -14 3 C-14 2.01 -14 1.02 -14 0 C-9.35601989 -1.54799337 -4.67482292 -1.49594333 0 0 Z " fill="#54295E" transform="translate(74,188)"/>
<path d="M0 0 C-0.33 0.99 -0.66 1.98 -1 3 C-3.21484375 4.09765625 -3.21484375 4.09765625 -5.9375 5.0625 C-9.83779411 6.42832255 -9.83779411 6.42832255 -13 9 C-13.81008624 11.31150263 -14.46077507 13.64562524 -15.12109375 16.00390625 C-15.41113281 16.66261719 -15.70117188 17.32132813 -16 18 C-16.99 18.33 -17.98 18.66 -19 19 C-19.4688666 15.87422267 -19.42258876 13.72088671 -17.8046875 10.9609375 C-10.94046103 1.7511462 -10.94046103 1.7511462 -7.0625 0.25 C-4.68971323 -0.03761052 -2.38781133 -0.06632809 0 0 Z " fill="#DFDFDF" transform="translate(24,5)"/>
<path d="M0 0 C0.66 0.66 1.32 1.32 2 2 C5.58343976 2.16677282 5.58343976 2.16677282 9 2 C9.33 2.99 9.66 3.98 10 5 C10.33 4.34 10.66 3.68 11 3 C11.66 3 12.32 3 13 3 C13 2.34 13 1.68 13 1 C13.66 1 14.32 1 15 1 C14.64978759 3.53903996 14.15988127 4.82093298 12.4375 6.75 C8.99083504 8.51752049 5.75650395 8.58021249 2 8 C-1 6.5 -1 6.5 -3 5 C-2.01 3.35 -1.02 1.7 0 0 Z " fill="#52255D" transform="translate(110,210)"/>
<path d="M0 0 C1.65 0 3.3 0 5 0 C5.82638376 2.89234315 6 4.88742431 6 8 C6.33 8.99 6.66 9.98 7 11 C6.01 11.99 5.02 12.98 4 14 C3.34 12.68 2.68 11.36 2 10 C1.34 10 0.68 10 0 10 C0 6.7 0 3.4 0 0 Z " fill="#F5F0F8" transform="translate(232,232)"/>
<path d="M0 0 C0.33 0.99 0.66 1.98 1 3 C3.64 3 6.28 3 9 3 C9 4.32 9 5.64 9 7 C5.81857548 8.59071226 2.46336466 8.39662254 -1 8 C-3 6.75 -3 6.75 -4 5 C-4 3.68 -4 2.36 -4 1 C-2.68 1.33 -1.36 1.66 0 2 C0 1.34 0 0.68 0 0 Z " fill="#552D61" transform="translate(263,210)"/>
<path d="M0 0 C0.66 0 1.32 0 2 0 C6.8632723 10.53708999 5.20331167 20.90475195 3 32 C4.32 31.67 5.64 31.34 7 31 C5.80873219 33.38253561 4.61305574 34.12188876 2.4375 35.625 C1.79683594 36.07101563 1.15617188 36.51703125 0.49609375 36.9765625 C0.00238281 37.31429687 -0.49132812 37.65203125 -1 38 C-0.70833333 36.54166667 -0.41666667 35.08333333 -0.125 33.625 C0.05546875 32.71234375 0.2359375 31.7996875 0.421875 30.859375 C0.79111907 29.03311379 1.1750903 27.20972758 1.578125 25.390625 C3.64139872 15.89956587 3.17633213 9.22648858 0 0 Z " fill="#746981" transform="translate(200,76)"/>
<path d="M0 0 C3.73639216 1.24546405 4.18756513 2.63404953 6 6 C6.33 4.02 6.66 2.04 7 0 C7.33 0 7.66 0 8 0 C8 3.63 8 7.26 8 11 C6.35 11 4.7 11 3 11 C2.67 11.66 2.34 12.32 2 13 C2 12.01 2 11.02 2 10 C1.34 10 0.68 10 0 10 C0 6.7 0 3.4 0 0 Z " fill="#BBB6BF" transform="translate(97,232)"/>
<path d="M0 0 C10.15988137 5.00539229 10.15988137 5.00539229 12 10 C11.67 10.99 11.34 11.98 11 13 C10.60039062 12.54496094 10.20078125 12.08992187 9.7890625 11.62109375 C7.18516286 9.26166504 4.2187329 8.37787589 0.9609375 7.16015625 C-1 6 -1 6 -1.7734375 3.87109375 C-1.84820312 3.25363281 -1.92296875 2.63617188 -2 2 C-1.34 2 -0.68 2 0 2 C0 1.34 0 0.68 0 0 Z " fill="#4E205A" transform="translate(160,196)"/>
<path d="M0 0 C7.09821429 6.02678571 7.09821429 6.02678571 10 9 C5.25 13 5.25 13 3 13 C2.34 13.66 1.68 14.32 1 15 C0.67 10.05 0.34 5.1 0 0 Z " fill="#F7F3FA" transform="translate(121,107)"/>
<path d="M0 0 C9.04347826 3.65217391 9.04347826 3.65217391 11 6 C11.32926755 9.02818192 11.22890489 11.96701021 11 15 C10.67 15 10.34 15 10 15 C9.67 12.69 9.34 10.38 9 8 C8.34 8 7.68 8 7 8 C6.67 9.98 6.34 11.96 6 14 C5.34 13.67 4.68 13.34 4 13 C4 11.35 4 9.7 4 8 C3.34 7.67 2.68 7.34 2 7 C0.42451317 4.37418862 0 3.12900213 0 0 Z " fill="#5D3266" transform="translate(65,199)"/>
<path d="M0 0 C0.99 0 1.98 0 3 0 C4.50156874 3.00313748 4.09281204 5.79067522 4.0625 9.125 C4.05347656 10.40632812 4.04445312 11.68765625 4.03515625 13.0078125 C4.02355469 13.99523437 4.01195312 14.98265625 4 16 C2.68 16 1.36 16 0 16 C0 10.72 0 5.44 0 0 Z " fill="#481455" transform="translate(230,200)"/>
<path d="M0 0 C3.91402949 1.26941497 5.79072873 2.51167694 8 6 C12.24822374 5.52797514 14.19989709 3.03344482 17 0 C17.66 0.33 18.32 0.66 19 1 C17.76600937 2.36877116 16.51219377 3.71969166 15.25 5.0625 C14.55390625 5.81660156 13.8578125 6.57070312 13.140625 7.34765625 C11 9 11 9 8.90625 8.90625 C6.01277307 7.53066261 4.15101616 5.33026751 2 3 C-0.56490126 4.0992434 -2.12843192 5.12843192 -4.125 7.125 C-4.74375 7.74375 -5.3625 8.3625 -6 9 C-6.66 9 -7.32 9 -8 9 C-8 8.34 -8 7.68 -8 7 C-6.25 5.2734375 -6.25 5.2734375 -4 3.375 C-3.2575 2.74335937 -2.515 2.11171875 -1.75 1.4609375 C-1.1725 0.97882813 -0.595 0.49671875 0 0 Z " fill="#80788E" transform="translate(137,105)"/>
<path d="M0 0 C0.66 0.33 1.32 0.66 2 1 C1.45730469 1.59167969 0.91460937 2.18335937 0.35546875 2.79296875 C-0.71767578 3.97826172 -0.71767578 3.97826172 -1.8125 5.1875 C-2.87404297 6.35345703 -2.87404297 6.35345703 -3.95703125 7.54296875 C-6.9041688 11.0874229 -9.15312336 14.42686616 -10 19 C-13.08800082 15.50026574 -14.95171584 12.57433087 -16 8 C-15.625 5.125 -15.625 5.125 -15 3 C-14.67 3 -14.34 3 -14 3 C-13.34 6.63 -12.68 10.26 -12 14 C-11.34 14 -10.68 14 -10 14 C-9.75507813 13.27425781 -9.51015625 12.54851562 -9.2578125 11.80078125 C-7.85948793 8.68712063 -6.18703779 6.68599245 -3.875 4.1875 C-3.15054688 3.39730469 -2.42609375 2.60710937 -1.6796875 1.79296875 C-1.12539062 1.20128906 -0.57109375 0.60960938 0 0 Z " fill="#7C7486" transform="translate(183,77)"/>
<path d="M0 0 C1.65 0.33 3.3 0.66 5 1 C5 1.66 5 2.32 5 3 C6.1446875 3.37125 6.1446875 3.37125 7.3125 3.75 C10.26080945 5.12130672 11.35834532 6.2351079 13 9 C13 9.66 13 10.32 13 11 C13.66 11 14.32 11 15 11 C15.33 12.65 15.66 14.3 16 16 C15.01 16.33 14.02 16.66 13 17 C10.125 10.375 10.125 10.375 9 7 C7.01363702 6.29373761 5.01151741 5.63106429 3 5 C0.625 3.375 0.625 3.375 -1 2 C-0.67 1.34 -0.34 0.68 0 0 Z " fill="#DDDDDD" transform="translate(307,5)"/>
<path d="M0 0 C2.97 0.495 2.97 0.495 6 1 C5.67 2.32 5.34 3.64 5 5 C4.34 5 3.68 5 3 5 C3 5.66 3 6.32 3 7 C-0.6441774 9.4294516 -2.71241272 9.16179575 -7 9 C-6.34 8.34 -5.68 7.68 -5 7 C-5.33 6.34 -5.66 5.68 -6 5 C-5.195625 4.54625 -4.39125 4.0925 -3.5625 3.625 C-0.91143428 2.25274335 -0.91143428 2.25274335 0 0 Z " fill="#50245F" transform="translate(146,209)"/>
<path d="M0 0 C2.00720923 0.28674418 4.0085944 0.61866701 6 1 C6 2.32 6 3.64 6 5 C5.34 5 4.68 5 4 5 C4.33 6.32 4.66 7.64 5 9 C4.01 9 3.02 9 2 9 C1.67 7.68 1.34 6.36 1 5 C0.67 9.62 0.34 14.24 0 19 C-0.33 19 -0.66 19 -1 19 C-1.02683987 16.02077407 -1.04676037 13.04178705 -1.0625 10.0625 C-1.07087891 9.21236328 -1.07925781 8.36222656 -1.08789062 7.48632812 C-1.09111328 6.67744141 -1.09433594 5.86855469 -1.09765625 5.03515625 C-1.10289307 4.2862915 -1.10812988 3.53742676 -1.11352539 2.76586914 C-1 1 -1 1 0 0 Z " fill="#F9EEF8" transform="translate(200,199)"/>
<path d="M0 0 C0.99 0.66 1.98 1.32 3 2 C1.81555969 6.88581628 -1.2782877 9.45652132 -4.83203125 12.7421875 C-7 14 -7 14 -9.76171875 13.6953125 C-10.50035156 13.46585937 -11.23898437 13.23640625 -12 13 C-11 11 -11 11 -8.625 10.0625 C-4.85033248 8.53465839 -3.47651864 7.11187682 -1.875 3.375 C-1.58625 2.59125 -1.2975 1.8075 -1 1 C-0.67 0.67 -0.34 0.34 0 0 Z " fill="#DEDEDE" transform="translate(319,290)"/>
<path d="M0 0 C0.66 0.99 1.32 1.98 2 3 C1.071875 3.0825 0.14375 3.165 -0.8125 3.25 C-4.08509879 3.70257552 -4.08509879 3.70257552 -5.875 6.0625 C-6.24625 6.701875 -6.6175 7.34125 -7 8 C-8.32 7.34 -9.64 6.68 -11 6 C-11 4.68 -11 3.36 -11 2 C-6.91569792 -0.72286806 -4.85409123 -0.38524534 0 0 Z " fill="#EAE1F0" transform="translate(150,86)"/>
<path d="M0 0 C0 1.98 0 3.96 0 6 C-2.64 6 -5.28 6 -8 6 C-8 4.02 -8 2.04 -8 0 C-4.71023192 -1.09658936 -3.28696233 -0.79953138 0 0 Z " fill="#ECDDEE" transform="translate(230,208)"/>
<path d="M0 0 C0.66 0 1.32 0 2 0 C2.33 1.65 2.66 3.3 3 5 C3.33 5 3.66 5 4 5 C4 8.63 4 12.26 4 16 C2.68 15.67 1.36 15.34 0 15 C0 10.05 0 5.1 0 0 Z " fill="#4C185D" transform="translate(259,194)"/>
<path d="M0 0 C3.18772993 2.12515329 4.24920753 3.66515721 6 7 C6 7.66 6 8.32 6 9 C8.97 9.495 8.97 9.495 12 10 C11.67 10.99 11.34 11.98 11 13 C4.98631707 12.10908401 1.47344745 7.63126326 -2 3 C-1 1 -1 1 0 0 Z " fill="#E1E1E1" transform="translate(8,291)"/>
<path d="M0 0 C3.125 6.625 3.125 6.625 2 10 C2 9.34 2 8.68 2 8 C0.02 8 -1.96 8 -4 8 C-4 8.99 -4 9.98 -4 11 C-4.66 11 -5.32 11 -6 11 C-5.38857603 3.54062751 -5.38857603 3.54062751 -3.5625 1 C-2 0 -2 0 0 0 Z " fill="#AAA2B2" transform="translate(83,232)"/>
<path d="M0 0 C4.19469571 0.59924224 8.00999834 1.57499941 12 3 C11.01 3.495 11.01 3.495 10 4 C9.01 3.67 8.02 3.34 7 3 C7 3.66 7 4.32 7 5 C9.64 5 12.28 5 15 5 C15 5.33 15 5.66 15 6 C13.06257659 6.02703381 11.12504521 6.04641125 9.1875 6.0625 C8.10855469 6.07410156 7.02960938 6.08570313 5.91796875 6.09765625 C3 6 3 6 0 5 C0 3.35 0 1.7 0 0 Z " fill="#4F2459" transform="translate(156,212)"/>
<path d="M0 0 C0.33 0.66 0.66 1.32 1 2 C1.66 2 2.32 2 3 2 C3.33 1.34 3.66 0.68 4 0 C4.99 0.33 5.98 0.66 7 1 C7 1.99 7 2.98 7 4 C6.01 4.495 6.01 4.495 5 5 C2.73417819 8.42318403 2.6168674 11.7188767 2.375 15.75 C2.26285156 17.50570312 2.26285156 17.50570312 2.1484375 19.296875 C2.07496094 20.63492188 2.07496094 20.63492188 2 22 C1.67 22 1.34 22 1 22 C0.95101562 20.73542969 0.90203125 19.47085938 0.8515625 18.16796875 C0.7765262 16.50779053 0.70097873 14.84763536 0.625 13.1875 C0.57859375 11.93743164 0.57859375 11.93743164 0.53125 10.66210938 C0.49257812 9.85966797 0.45390625 9.05722656 0.4140625 8.23046875 C0.3826416 7.49207764 0.3512207 6.75368652 0.31884766 5.99291992 C0.09165386 3.68650412 0.09165386 3.68650412 -2 1 C-1.34 0.67 -0.68 0.34 0 0 Z " fill="#F6EEF7" transform="translate(234,195)"/>
<path d="M0 0 C1.17369141 -0.00386719 1.17369141 -0.00386719 2.37109375 -0.0078125 C4.5625 0.125 4.5625 0.125 7.5625 1.125 C7.2325 2.115 6.9025 3.105 6.5625 4.125 C2.6025 4.125 -1.3575 4.125 -5.4375 4.125 C-5.7675 3.135 -6.0975 2.145 -6.4375 1.125 C-4.08479407 -0.05135297 -2.616748 -0.00859359 0 0 Z " fill="#81798A" transform="translate(160.4375,66.875)"/>
<path d="M0 0 C2.64 0 5.28 0 8 0 C8.66 1.65 9.32 3.3 10 5 C6.37 5.33 2.74 5.66 -1 6 C-0.67 4.02 -0.34 2.04 0 0 Z " fill="#FCF5FD" transform="translate(220,199)"/>
<path d="M0 0 C1.32 0.66 2.64 1.32 4 2 C3.01 2 2.02 2 1 2 C1.01160156 2.80824219 1.02320313 3.61648437 1.03515625 4.44921875 C1.04869141 6.05216797 1.04869141 6.05216797 1.0625 7.6875 C1.07410156 8.74324219 1.08570313 9.79898438 1.09765625 10.88671875 C1.00865425 13.72410262 0.64939838 16.2438919 0 19 C0.928125 19.433125 0.928125 19.433125 1.875 19.875 C4 21 4 21 6 23 C5.67 23.99 5.34 24.98 5 26 C4.401875 25.21625 3.80375 24.4325 3.1875 23.625 C0.30862729 20.17035275 -1.79581392 18.80696912 -6.1875 18.375 C-7.445625 18.25125 -8.70375 18.1275 -10 18 C-10 17.67 -10 17.34 -10 17 C-6.04 16.505 -6.04 16.505 -2 16 C-0.89485234 12.68455701 -0.67892369 9.79589889 -0.4375 6.3125 C-0.35371094 5.13300781 -0.26992187 3.95351562 -0.18359375 2.73828125 C-0.12300781 1.83464844 -0.06242188 0.93101563 0 0 Z " fill="#6A5F78" transform="translate(154,70)"/>
<path d="M0 0 C2 0 2 0 3.5625 1.0625 C5.64056847 3.86337489 5.67810527 6.58791584 6 10 C5.34 10 4.68 10 4 10 C4 9.34 4 8.68 4 8 C2.02 8 0.04 8 -2 8 C-2.33 8.66 -2.66 9.32 -3 10 C-2.39009109 6.44219804 -1.4216319 3.3171411 0 0 Z " fill="#A8A0B1" transform="translate(245,232)"/>
<path d="M0 0 C2 1 2 1 2.8515625 3.06640625 C3.10679687 3.89011719 3.36203125 4.71382812 3.625 5.5625 C3.88539063 6.38878906 4.14578125 7.21507812 4.4140625 8.06640625 C4.60742188 8.70449219 4.80078125 9.34257812 5 10 C2.69 9.34 0.38 8.68 -2 8 C-2 8.66 -2 9.32 -2 10 C-2.66 10 -3.32 10 -4 10 C-3.52449439 8.51965236 -3.04448784 7.04074979 -2.5625 5.5625 C-2.29566406 4.73878906 -2.02882812 3.91507813 -1.75390625 3.06640625 C-1 1 -1 1 0 0 Z " fill="#A297A9" transform="translate(196,232)"/>
<path d="M0 0 C2.64 0 5.28 0 8 0 C7.01 0.33 6.02 0.66 5 1 C5 1.66 5 2.32 5 3 C5.99 3.33 6.98 3.66 8 4 C8.66 4.66 9.32 5.32 10 6 C5.25 10 5.25 10 3 10 C3 7.03 3 4.06 3 1 C2.01 0.67 1.02 0.34 0 0 Z " fill="#B5B0BA" transform="translate(181,232)"/>
<path d="M0 0 C5.94 0 11.88 0 18 0 C18 1.65 18 3.3 18 5 C17.01 4.34 16.02 3.68 15 3 C12.66702567 2.95907063 10.33294775 2.95758277 8 3 C7.34 2.67 6.68 2.34 6 2 C6 2.66 6 3.32 6 4 C4.35 3.67 2.7 3.34 1 3 C0.67 2.01 0.34 1.02 0 0 Z " fill="#552660" transform="translate(182,195)"/>
<path d="M0 0 C2.31 0 4.62 0 7 0 C7 0.33 7 0.66 7 1 C6.030625 1.2475 5.06125 1.495 4.0625 1.75 C3.051875 2.1625 2.04125 2.575 1 3 C0.03122943 5.03243548 0.03122943 5.03243548 0 7 C1.65 7.33 3.3 7.66 5 8 C5.33 7.34 5.66 6.68 6 6 C6.66 5.67 7.32 5.34 8 5 C8 6.65 8 8.3 8 10 C5.36 10 2.72 10 0 10 C-1.36952673 7.26094655 -1.12621361 5.02912668 -1 2 C-0.67 1.34 -0.34 0.68 0 0 Z " fill="#A19DA5" transform="translate(163,232)"/>
<path d="M0 0 C3.96 0 7.92 0 12 0 C11.67 1.65 11.34 3.3 11 5 C7.7 4.34 4.4 3.68 1 3 C0.67 2.01 0.34 1.02 0 0 Z " fill="#51275B" transform="translate(243,195)"/>
<path d="M0 0 C0.99 0.66 1.98 1.32 3 2 C4.71444889 2.43738696 6.44667784 2.80848688 8.1875 3.125 C9.08855469 3.29257813 9.98960937 3.46015625 10.91796875 3.6328125 C11.60503906 3.75398437 12.29210937 3.87515625 13 4 C11.390625 5.58203125 11.390625 5.58203125 9 7 C5.984375 6.63671875 5.984375 6.63671875 2.75 5.6875 C1.67234375 5.38199219 0.5946875 5.07648438 -0.515625 4.76171875 C-1.33546875 4.51035156 -2.1553125 4.25898438 -3 4 C-2.01 3.34 -1.02 2.68 0 2 C0 1.34 0 0.68 0 0 Z " fill="#F5EDF4" transform="translate(259,215)"/>
<path d="M0 0 C0.625 1.875 0.625 1.875 1 4 C0.34 4.66 -0.32 5.32 -1 6 C-1 6.99 -1 7.98 -1 9 C-1.33 9.66 -1.66 10.32 -2 11 C-2.66 11 -3.32 11 -4 11 C-4 10.34 -4 9.68 -4 9 C-4.71027344 8.95101562 -5.42054687 8.90203125 -6.15234375 8.8515625 C-7.07144531 8.77679688 -7.99054688 8.70203125 -8.9375 8.625 C-9.85402344 8.55539063 -10.77054687 8.48578125 -11.71484375 8.4140625 C-12.84599609 8.20910156 -12.84599609 8.20910156 -14 8 C-14.33 7.34 -14.66 6.68 -15 6 C-14.32453125 6.03480469 -13.6490625 6.06960937 -12.953125 6.10546875 C-12.06109375 6.13253906 -11.1690625 6.15960938 -10.25 6.1875 C-8.92742187 6.23970703 -8.92742187 6.23970703 -7.578125 6.29296875 C-4.49506897 5.94262147 -3.21484036 5.14001467 -1 3 C-0.67 2.01 -0.34 1.02 0 0 Z " fill="#F3E8F4" transform="translate(125,211)"/>
<path d="M0 0 C1.32 0.33 2.64 0.66 4 1 C4.33 1.66 4.66 2.32 5 3 C4.01 3.33 3.02 3.66 2 4 C2 8.62 2 13.24 2 18 C2.66 18 3.32 18 4 18 C4 18.99 4 19.98 4 21 C2.68 21 1.36 21 0 21 C0 14.07 0 7.14 0 0 Z " fill="#42154C" transform="translate(242,196)"/>
<path d="M0 0 C1.32 0 2.64 0 4 0 C4.36923077 7.50769231 4.36923077 7.50769231 2.5 10 C2.005 10.33 1.51 10.66 1 11 C0.01 10.67 -0.98 10.34 -2 10 C-1.34 9.34 -0.68 8.68 0 8 C0.24212873 6.01871492 0.24212873 6.01871492 0.125 3.875 C0.063125 1.956875 0.063125 1.956875 0 0 Z " fill="#461451" transform="translate(71,206)"/>
<path d="M0 0 C3 1 3 1 5 3 C5.125 6.125 5.125 6.125 5 9 C3.35 9.33 1.7 9.66 0 10 C-0.19412181 8.52168779 -0.38012131 7.04230684 -0.5625 5.5625 C-0.66691406 4.73878906 -0.77132812 3.91507813 -0.87890625 3.06640625 C-0.91886719 2.38449219 -0.95882812 1.70257813 -1 1 C-0.67 0.67 -0.34 0.34 0 0 Z " fill="#491955" transform="translate(147,201)"/>
<path d="M0 0 C3.63 0 7.26 0 11 0 C11.33 0.66 11.66 1.32 12 2 C8.04 2.99 4.08 3.98 0 5 C0 3.35 0 1.7 0 0 Z " fill="#482250" transform="translate(219,195)"/>
<path d="M0 0 C3.86933162 0.57323431 6.15222057 2.38953552 9 5 C9 5.66 9 6.32 9 7 C9.66 7 10.32 7 11 7 C11 7.66 11 8.32 11 9 C7.63408134 7.55746343 5.48952921 5.66735273 3 3 C0.50638429 4.20381448 -1.68143083 5.45428722 -4 7 C-3.67 5.68 -3.34 4.36 -3 3 C-2.34 3 -1.68 3 -1 3 C-0.67 2.01 -0.34 1.02 0 0 Z " fill="#938BA0" transform="translate(188,105)"/>
<path d="M0 0 C-0.75 6.625 -0.75 6.625 -3 10 C-3.99 9.67 -4.98 9.34 -6 9 C-5.38983051 3.50847458 -5.38983051 3.50847458 -3.5625 1.125 C-2 0 -2 0 0 0 Z " fill="#F6F1F9" transform="translate(142,78)"/>
<path d="M0 0 C3.96 0 7.92 0 12 0 C12 0.99 12 1.98 12 3 C9.59454362 4.20272819 8.05003047 4.10071472 5.375 4.0625 C4.14910156 4.04896484 4.14910156 4.04896484 2.8984375 4.03515625 C1.95871094 4.01775391 1.95871094 4.01775391 1 4 C0.67 2.68 0.34 1.36 0 0 Z " fill="#EFE3F6" transform="translate(155,72)"/>
<path d="M0 0 C0.33 0 0.66 0 1 0 C1.36103152 6.3782235 1.36103152 6.3782235 -0.125 8.9375 C-2.87801549 10.49754211 -4.9003407 10.39570119 -8 10 C-10 7 -10 7 -9.625 4.8125 C-9.41875 4.214375 -9.2125 3.61625 -9 3 C-9 3.99 -9 4.98 -9 6 C-4.46859347 6.93380961 -4.46859347 6.93380961 0 6 C0 4.02 0 2.04 0 0 Z " fill="#EDDDF1" transform="translate(120,203)"/>
<path d="M0 0 C0.66 0 1.32 0 2 0 C1.125 4.875 1.125 4.875 0 6 C-2.52596259 6.23653523 -5.03107207 6.42173692 -7.5625 6.5625 C-8.62887695 6.62727539 -8.62887695 6.62727539 -9.71679688 6.69335938 C-11.47761912 6.79971777 -13.2387832 6.90038846 -15 7 C-15.33 6.01 -15.66 5.02 -16 4 C-14.906875 4.020625 -13.81375 4.04125 -12.6875 4.0625 C-9.05615809 4.18544452 -9.05615809 4.18544452 -6 3 C-3.3125 3.4375 -3.3125 3.4375 -1 4 C-0.67 2.68 -0.34 1.36 0 0 Z " fill="#EADDED" transform="translate(256,189)"/>
<path d="M0 0 C0.99 0.33 1.98 0.66 3 1 C0 4 0 4 -1.625 5.375 C-3.4066588 7.48059676 -3.63580052 9.30492384 -4 12 C-4.99 12 -5.98 12 -7 12 C-7.33 11.01 -7.66 10.02 -8 9 C-7.34 8.34 -6.68 7.68 -6 7 C-4.95061054 5.79836751 -3.9095304 4.58944874 -2.875 3.375 C-2.33617187 2.74335937 -1.79734375 2.11171875 -1.2421875 1.4609375 C-0.83226562 0.97882813 -0.42234375 0.49671875 0 0 Z " fill="#F2EEF3" transform="translate(171,107)"/>
<path d="M0 0 C1.98 0.495 1.98 0.495 4 1 C4.125 8.75 4.125 8.75 3 11 C2.34 11 1.68 11 1 11 C0.67 11.99 0.34 12.98 0 14 C-1.125 10.25 -1.125 10.25 0 8 C0.0689472 6.62657169 0.08467708 5.24997898 0.0625 3.875 C0.041875 2.59625 0.02125 1.3175 0 0 Z " fill="#52215F" transform="translate(120,202)"/>
<path d="M0 0 C1.65 0 3.3 0 5 0 C5.97001682 3.39505887 6 6.47064557 6 10 C5.34 10 4.68 10 4 10 C1.875 5.375 1.875 5.375 3 2 C2.34 1.67 1.68 1.34 1 1 C1 3.97 1 6.94 1 10 C0.67 10 0.34 10 0 10 C0 6.7 0 3.4 0 0 Z " fill="#8E8595" transform="translate(232,232)"/>
<path d="M0 0 C2.475 0.99 2.475 0.99 5 2 C4.67 4.64 4.34 7.28 4 10 C2.68 9.34 1.36 8.68 0 8 C0 5.36 0 2.72 0 0 Z " fill="#54295E" transform="translate(217,207)"/>
<path d="M0 0 C2.475 0.495 2.475 0.495 5 1 C5.93065133 3.60582371 6.14917407 4.64198224 5.0625 7.25 C4.711875 7.8275 4.36125 8.405 4 9 C3.34 9 2.68 9 2 9 C0.50178941 5.62902617 0 3.79557881 0 0 Z " fill="#F5F0F9" transform="translate(169,82)"/>
<path d="M0 0 C1.65 0 3.3 0 5 0 C5 0.66 5 1.32 5 2 C4.34 2 3.68 2 3 2 C3 2.66 3 3.32 3 4 C2.34 4 1.68 4 1 4 C1 9.61 1 15.22 1 21 C0.67 21 0.34 21 0 21 C0 14.07 0 7.14 0 0 Z " fill="#541B62" transform="translate(82,195)"/>
<path d="M0 0 C2.45391569 3.68087353 2.22802759 6.44355588 2.125 10.6875 C2.11597656 11.38939453 2.10695313 12.09128906 2.09765625 12.81445312 C2.07413704 14.54311525 2.03826713 16.27160145 2 18 C1.67 18 1.34 18 1 18 C1 14.7 1 11.4 1 8 C-0.32 8 -1.64 8 -3 8 C-3 7.01 -3 6.02 -3 5 C-2.34 4.67 -1.68 4.34 -1 4 C-0.34786708 1.97536745 -0.34786708 1.97536745 0 0 Z " fill="#EDDEEF" transform="translate(93,200)"/>
<path d="M0 0 C3.63 0 7.26 0 11 0 C11.33 0.99 11.66 1.98 12 3 C12.66 3.66 13.32 4.32 14 5 C12.02 5.33 10.04 5.66 8 6 C7.67 4.68 7.34 3.36 7 2 C4.69 1.67 2.38 1.34 0 1 C0 0.67 0 0.34 0 0 Z " fill="#F8F1F8" transform="translate(59,218)"/>
<path d="M0 0 C7.42857143 -0.14285714 7.42857143 -0.14285714 11 1 C11 1.99 11 2.98 11 4 C3.375 3.125 3.375 3.125 0 2 C0 1.34 0 0.68 0 0 Z " fill="#462151" transform="translate(63,187)"/>
<path d="M0 0 C0.33 0 0.66 0 1 0 C1 3.3 1 6.6 1 10 C0.34 10 -0.32 10 -1 10 C-0.67 10.99 -0.34 11.98 0 13 C-1.98 13.99 -3.96 14.98 -6 16 C-5.34 14.68 -4.68 13.36 -4 12 C-3.34 12 -2.68 12 -2 12 C-2 10.02 -2 8.04 -2 6 C-1.34 6 -0.68 6 0 6 C0 4.02 0 2.04 0 0 Z " fill="#C9C7CA" transform="translate(176,232)"/>
<path d="M0 0 C0 3.96 0 7.92 0 12 C-0.33 12 -0.66 12 -1 12 C-1.33 9.36 -1.66 6.72 -2 4 C-3.98 4.99 -3.98 4.99 -6 6 C-6.33 4.68 -6.66 3.36 -7 2 C-2.25 0 -2.25 0 0 0 Z " fill="#F4E8F5" transform="translate(131,196)"/>
<path d="M0 0 C0 0.99 0 1.98 0 3 C-0.99 3.33 -1.98 3.66 -3 4 C-2.67 4.66 -2.34 5.32 -2 6 C-3.65 6.33 -5.3 6.66 -7 7 C-6.75 4.125 -6.75 4.125 -6 1 C-2.77922078 -1.38961039 -2.77922078 -1.38961039 0 0 Z " fill="#F6F3F6" transform="translate(151,113)"/>
<path d="M0 0 C0.66 0.33 1.32 0.66 2 1 C0.1875 3 0.1875 3 -2 5 C-2.99 5 -3.98 5 -5 5 C-5 4.34 -5 3.68 -5 3 C-7.16666667 3.83333333 -7.16666667 3.83333333 -8 6 C-8.66 5.34 -9.32 4.68 -10 4 C-10 3.01 -10 2.02 -10 1 C-9.36191406 1.01160156 -8.72382813 1.02320313 -8.06640625 1.03515625 C-7.24011719 1.04417969 -6.41382813 1.05320313 -5.5625 1.0625 C-4.32693359 1.07990234 -4.32693359 1.07990234 -3.06640625 1.09765625 C-1.00836062 1.23267348 -1.00836062 1.23267348 0 0 Z " fill="#EFE3F1" transform="translate(147,216)"/>
<path d="M0 0 C0.639375 0.165 1.27875 0.33 1.9375 0.5 C4.04582216 1.24598544 4.04582216 1.24598544 6 0 C6 0.99 6 1.98 6 3 C3.59454362 4.20272819 2.05003047 4.10071472 -0.625 4.0625 C-1.85089844 4.04896484 -1.85089844 4.04896484 -3.1015625 4.03515625 C-4.04128906 4.01775391 -4.04128906 4.01775391 -5 4 C-5 3.34 -5 2.68 -5 2 C-4.360625 1.855625 -3.72125 1.71125 -3.0625 1.5625 C-1.02454854 1.18992819 -1.02454854 1.18992819 0 0 Z " fill="#43174D" transform="translate(168,213)"/>
<path d="M0 0 C0.99 0.66 1.98 1.32 3 2 C2.6875 3.9375 2.6875 3.9375 2 6 C1.01 6.33 0.02 6.66 -1 7 C-1.33 7.66 -1.66 8.32 -2 9 C-3.35439668 6.29120665 -3.06501451 3.99066732 -3 1 C-2.34 1.66 -1.68 2.32 -1 3 C-0.67 2.01 -0.34 1.02 0 0 Z " fill="#5D2C6A" transform="translate(159,191)"/>
<path d="M0 0 C1.67542976 0.28604898 3.34385343 0.61781233 5 1 C4.625 2.9375 4.625 2.9375 4 5 C2 6 2 6 -1 6 C-1.042721 4.33388095 -1.04063832 2.66617115 -1 1 C-0.67 0.67 -0.34 0.34 0 0 Z " fill="#F0E3F0" transform="translate(163,192)"/>
<path d="M0 0 C-0.66 1.32 -1.32 2.64 -2 4 C-5.40418314 3.17830062 -8.67757548 2.10747484 -12 1 C-7.58774263 -0.47075246 -4.51718381 -1.36884358 0 0 Z " fill="#53225F" transform="translate(72,214)"/>
<path d="M0 0 C1.32 0.33 2.64 0.66 4 1 C3.67 4.3 3.34 7.6 3 11 C2.34 11 1.68 11 1 11 C0.67 7.37 0.34 3.74 0 0 Z " fill="#B5ABC1" transform="translate(160,95)"/>
<path d="M0 0 C0.33 0 0.66 0 1 0 C1 5.61 1 11.22 1 17 C-0.65 17 -2.3 17 -4 17 C-3.34 16.67 -2.68 16.34 -2 16 C-0.89485234 12.68455701 -0.67892369 9.79589889 -0.4375 6.3125 C-0.35371094 5.13300781 -0.26992187 3.95351562 -0.18359375 2.73828125 C-0.12300781 1.83464844 -0.06242187 0.93101562 0 0 Z " fill="#492953" transform="translate(85,201)"/>
<path d="M0 0 C1.9375 0.875 1.9375 0.875 3.25 2.75 C3.9375 4.875 3.9375 4.875 2.9375 7.875 C2.545625 7.441875 2.15375 7.00875 1.75 6.5625 C-0.34569278 4.61133776 -2.57839333 3.28489838 -5.0625 1.875 C-2.0625 -0.125 -2.0625 -0.125 0 0 Z " fill="#471455" transform="translate(168.0625,201.125)"/>
<path d="M0 0 C1.32 0 2.64 0 4 0 C4.33 0.99 4.66 1.98 5 3 C4.01 4.485 4.01 4.485 3 6 C2.34 5.34 1.68 4.68 1 4 C-1.20250992 3.53993654 -1.20250992 3.53993654 -3.625 3.375 C-4.85089844 3.26285156 -4.85089844 3.26285156 -6.1015625 3.1484375 C-6.72804687 3.09945312 -7.35453125 3.05046875 -8 3 C-8 2.67 -8 2.34 -8 2 C-5.36 1.67 -2.72 1.34 0 1 C0 0.67 0 0.34 0 0 Z " fill="#E8DDE9" transform="translate(207,192)"/>
<path d="M0 0 C1.65 0.99 3.3 1.98 5 3 C4.01 4.98 3.02 6.96 2 9 C1.34 8.67 0.68 8.34 0 8 C0 5.33333333 0 2.66666667 0 0 Z " fill="#F6F3F3" transform="translate(129,83)"/>
<path d="M0 0 C1.98 0 3.96 0 6 0 C5.67 0.99 5.34 1.98 5 3 C3.68 3.33 2.36 3.66 1 4 C1 6.97 1 9.94 1 13 C0.67 13 0.34 13 0 13 C0 8.71 0 4.42 0 0 Z " fill="#42194C" transform="translate(181,196)"/>
<path d="M0 0 C0.8971875 0.5259375 0.8971875 0.5259375 1.8125 1.0625 C1.4825 1.7225 1.1525 2.3825 0.8125 3.0625 C0.1525 2.7325 -0.5075 2.4025 -1.1875 2.0625 C-1.1875 2.7225 -1.1875 3.3825 -1.1875 4.0625 C-3.4975 3.4025 -5.8075 2.7425 -8.1875 2.0625 C-3.10054348 -1.32880435 -3.10054348 -1.32880435 0 0 Z " fill="#54295E" transform="translate(97.1875,196.9375)"/>
<path d="M0 0 C0.33 0 0.66 0 1 0 C1 4.95 1 9.9 1 15 C0.67 15 0.34 15 0 15 C-0.33 12.03 -0.66 9.06 -1 6 C-1.99 6.495 -1.99 6.495 -3 7 C-1.125 1.125 -1.125 1.125 0 0 Z " fill="#F9EBFB" transform="translate(257,193)"/>
<path d="M0 0 C1.32 0.66 2.64 1.32 4 2 C3.67 2.66 3.34 3.32 3 4 C2.34 4 1.68 4 1 4 C0.34 5.32 -0.32 6.64 -1 8 C-3 4.25 -3 4.25 -3 2 C-2.01 2 -1.02 2 0 2 C0 1.34 0 0.68 0 0 Z " fill="#F0EEF1" transform="translate(132,104)"/>
<path d="M0 0 C0.33 0 0.66 0 1 0 C1 1.98 1 3.96 1 6 C1.99 6.33 2.98 6.66 4 7 C2.35 8.98 0.7 10.96 -1 13 C-2.40742022 10.18515955 -1.66652164 8.43063887 -1.0625 5.375 C-0.86785156 4.37210937 -0.67320312 3.36921875 -0.47265625 2.3359375 C-0.31667969 1.56507812 -0.16070312 0.79421875 0 0 Z " fill="#EBE2F1" transform="translate(204,96)"/>
<path d="M0 0 C1.8871875 0.061875 1.8871875 0.061875 3.8125 0.125 C3.8125 0.455 3.8125 0.785 3.8125 1.125 C1.8325 1.125 -0.1475 1.125 -2.1875 1.125 C-2.8475 2.445 -3.5075 3.765 -4.1875 5.125 C-5.5075 5.125 -6.8275 5.125 -8.1875 5.125 C-6.68328007 0.61234022 -4.4443381 -0.145716 0 0 Z " fill="#C5B8D0" transform="translate(146.1875,85.875)"/>
<path d="M0 0 C0.66 0.66 1.32 1.32 2 2 C5.58343976 2.16677282 5.58343976 2.16677282 9 2 C9 2.66 9 3.32 9 4 C6.36 4 3.72 4 1 4 C1 4.99 1 5.98 1 7 C-0.32 6.34 -1.64 5.68 -3 5 C-2.01 3.35 -1.02 1.7 0 0 Z " fill="#6F487A" transform="translate(110,210)"/>
<path d="M0 0 C2.97 0.495 2.97 0.495 6 1 C5.67 2.32 5.34 3.64 5 5 C4.34 5 3.68 5 3 5 C2.67 5.66 2.34 6.32 2 7 C1.34 6.01 0.68 5.02 0 4 C-0.66 3.67 -1.32 3.34 -2 3 C-1.34 2.01 -0.68 1.02 0 0 Z " fill="#63366F" transform="translate(146,209)"/>
<path d="M0 0 C2.64 0 5.28 0 8 0 C8.66 1.65 9.32 3.3 10 5 C8.35 5 6.7 5 5 5 C5 4.01 5 3.02 5 2 C3.35 1.67 1.7 1.34 0 1 C0 0.67 0 0.34 0 0 Z " fill="#F5E5F7" transform="translate(220,199)"/>
<path d="M0 0 C1.9375 1.375 1.9375 1.375 2.6875 4 C2.77 4.78375 2.8525 5.5675 2.9375 6.375 C1.6175 6.375 0.2975 6.375 -1.0625 6.375 C-1.3925 7.035 -1.7225 7.695 -2.0625 8.375 C-2.0625 7.385 -2.0625 6.395 -2.0625 5.375 C-1.4025 5.375 -0.7425 5.375 -0.0625 5.375 C-0.32926204 3.39008358 -0.32926204 3.39008358 -1.0625 1.375 C-2.0525 1.045 -3.0425 0.715 -4.0625 0.375 C-2.0625 -0.625 -2.0625 -0.625 0 0 Z " fill="#582C60" transform="translate(208.0625,195.625)"/>
<path d="M0 0 C2.31 0.33 4.62 0.66 7 1 C6.01 1.495 6.01 1.495 5 2 C4.67 2.66 4.34 3.32 4 4 C1.9375 5.125 1.9375 5.125 0 6 C0 4.02 0 2.04 0 0 Z " fill="#EFE8F5" transform="translate(155,77)"/>
<path d="M0 0 C0 0.66 0 1.32 0 2 C-3.3 2 -6.6 2 -10 2 C-10 1.34 -10 0.68 -10 0 C-6.30581799 -1.231394 -3.7943739 -0.64432764 0 0 Z " fill="#F7EFFB" transform="translate(166,69)"/>
<path d="M0 0 C2.31 0.33 4.62 0.66 7 1 C6.67 2.32 6.34 3.64 6 5 C4.35 5.33 2.7 5.66 1 6 C0.67 4.02 0.34 2.04 0 0 Z " fill="#F1F1F2" transform="translate(241,239)"/>
<path d="M0 0 C2.475 0.99 2.475 0.99 5 2 C4.01 3.32 3.02 4.64 2 6 C0.68 5.67 -0.64 5.34 -2 5 C-1.125 1.125 -1.125 1.125 0 0 Z " fill="#562A60" transform="translate(108,197)"/>
<path d="M0 0 C-1.39332574 3.36720387 -2.9789286 4.9859524 -6 7 C-6.66 6.34 -7.32 5.68 -8 5 C-7.34 5 -6.68 5 -6 5 C-6 3.35 -6 1.7 -6 0 C-2.25 -1.125 -2.25 -1.125 0 0 Z " fill="#F2ECF5" transform="translate(197,99)"/>
<path d="M0 0 C0 4.29 0 8.58 0 13 C-0.33 13 -0.66 13 -1 13 C-1.185625 11.63875 -1.185625 11.63875 -1.375 10.25 C-1.92109677 7.41029677 -2.57263803 5.47409409 -4 3 C-1.125 0 -1.125 0 0 0 Z " fill="#E6DAEB" transform="translate(206,108)"/>
<path d="M0 0 C1.98 0 3.96 0 6 0 C6 1.65 6 3.3 6 5 C4.68 4.67 3.36 4.34 2 4 C2 3.01 2 2.02 2 1 C1.34 0.67 0.68 0.34 0 0 Z " fill="#462751" transform="translate(168,188)"/>
<path d="M0 0 C1.32 0.66 2.64 1.32 4 2 C3.01 3.485 3.01 3.485 2 5 C0.35 4.67 -1.3 4.34 -3 4 C-2.01 2.68 -1.02 1.36 0 0 Z " fill="#F8F3FA" transform="translate(137,107)"/>
<path d="M0 0 C0.66 0 1.32 0 2 0 C2.33 2.31 2.66 4.62 3 7 C2.01 7.33 1.02 7.66 0 8 C0 5.36 0 2.72 0 0 Z " fill="#50115D" transform="translate(96,208)"/>
<path d="M0 0 C0.66 0.33 1.32 0.66 2 1 C2 1.66 2 2.32 2 3 C3.32 3.33 4.64 3.66 6 4 C4.35 4 2.7 4 1 4 C1 4.66 1 5.32 1 6 C-0.32 5.34 -1.64 4.68 -3 4 C-2.67 3.34 -2.34 2.68 -2 2 C-1.34 2.33 -0.68 2.66 0 3 C0 2.01 0 1.02 0 0 Z " fill="#F7F6F8" transform="translate(167,194)"/>
<path d="M0 0 C1.32 1.32 2.64 2.64 4 4 C3.67 4.33 3.34 4.66 3 5 C2.76712992 6.68183948 2.58735834 8.3712416 2.4375 10.0625 C2.31181641 11.44115234 2.31181641 11.44115234 2.18359375 12.84765625 C2.12300781 13.55792969 2.06242187 14.26820312 2 15 C1.67 15 1.34 15 1 15 C0.67 10.05 0.34 5.1 0 0 Z " fill="#DDD1EA" transform="translate(121,107)"/>
<path d="M0 0 C2 3.75 2 3.75 2 6 C0.35 6 -1.3 6 -3 6 C-3 5.34 -3 4.68 -3 4 C-3.66 3.67 -4.32 3.34 -5 3 C-3.35 3 -1.7 3 0 3 C0 2.01 0 1.02 0 0 Z " fill="#F7EEF7" transform="translate(137,223)"/>
<path d="M0 0 C2.97 0.495 2.97 0.495 6 1 C5.01 1.33 4.02 1.66 3 2 C3 2.99 3 3.98 3 5 C2.01 5 1.02 5 0 5 C0 3.35 0 1.7 0 0 Z " fill="#65426A" transform="translate(156,212)"/>
<path d="M0 0 C0.99 0 1.98 0 3 0 C3.66 1.98 4.32 3.96 5 6 C2.525 5.01 2.525 5.01 0 4 C0 2.66666667 0 1.33333333 0 0 Z " fill="#451B4E" transform="translate(62,199)"/>
<path d="M0 0 C-3 2 -3 2 -5.125 2.5 C-5.74375 2.665 -6.3625 2.83 -7 3 C-7.33 3.66 -7.66 4.32 -8 5 C-8.33 3.68 -8.66 2.36 -9 1 C-5.64919071 -1.10976881 -3.77897651 -1.0497157 0 0 Z " fill="#F6EAF7" transform="translate(165,186)"/>
<path d="M0 0 C1.65 0 3.3 0 5 0 C4.67 0.99 4.34 1.98 4 3 C1.4375 4.1875 1.4375 4.1875 -1 5 C-1 2 -1 2 0 0 Z " fill="#FDFAFB" transform="translate(191,75)"/>
<path d="M0 0 C1.65 0.33 3.3 0.66 5 1 C5.33 2.32 5.66 3.64 6 5 C1.25 4.25 1.25 4.25 -1 2 C-0.67 1.34 -0.34 0.68 0 0 Z " fill="#E4E4E4" transform="translate(307,5)"/>
<path d="M0 0 C-0.33 0.99 -0.66 1.98 -1 3 C-3.91482778 3.80967438 -5.46113217 4.21845993 -8.3125 3.0625 C-8.869375 2.711875 -9.42625 2.36125 -10 2 C-6.49223216 0.39644899 -3.85645121 -0.22036864 0 0 Z " fill="#E6E6E6" transform="translate(24,5)"/>
<path d="M0 0 C0.99 0.66 1.98 1.32 3 2 C2.34 3.32 1.68 4.64 1 6 C0.01 6 -0.98 6 -2 6 C-1.125 1.125 -1.125 1.125 0 0 Z " fill="#E9E9E9" transform="translate(319,290)"/>
<path d="M0 0 C0.66 0.33 1.32 0.66 2 1 C1.34 2.98 0.68 4.96 0 7 C-3 5 -3 5 -4 3 C-3.01 2.34 -2.02 1.68 -1 1 C-0.67 0.67 -0.34 0.34 0 0 Z " fill="#EDE9EF" transform="translate(170,232)"/>
<path d="M0 0 C2.32992644 3.49488966 3.13620929 5.00761804 2.5625 9.1875 C2.376875 10.115625 2.19125 11.04375 2 12 C1.67 12 1.34 12 1 12 C1 9.69 1 7.38 1 5 C0.34 5 -0.32 5 -1 5 C-0.67 3.35 -0.34 1.7 0 0 Z " fill="#461153" transform="translate(121,197)"/>
<path d="M0 0 C0.66 0 1.32 0 2 0 C2.66 2.31 3.32 4.62 4 7 C3.34 7.66 2.68 8.32 2 9 C1.67 7.68 1.34 6.36 1 5 C0.01 5 -0.98 5 -2 5 C-2 4.34 -2 3.68 -2 3 C-1.01 3 -0.02 3 1 3 C0.67 2.01 0.34 1.02 0 0 Z " fill="#5C3268" transform="translate(148,197)"/>
<path d="M0 0 C0.33 0.99 0.66 1.98 1 3 C-3.29 2.67 -7.58 2.34 -12 2 C-12 1.67 -12 1.34 -12 1 C-10.37512529 0.83211627 -8.75009558 0.66573213 -7.125 0.5 C-6.22007812 0.4071875 -5.31515625 0.314375 -4.3828125 0.21875 C-2 0 -2 0 0 0 Z " fill="#D9C2DE" transform="translate(197,193)"/>
<path d="M0 0 C0.66 0 1.32 0 2 0 C2 0.66 2 1.32 2 2 C2.66 2.33 3.32 2.66 4 3 C3.01 3.99 2.02 4.98 1 6 C0.01 5.01 -0.98 4.02 -2 3 C-1.34 2.67 -0.68 2.34 0 2 C0 1.34 0 0.68 0 0 Z " fill="#421353" transform="translate(60,189)"/>
<path d="M0 0 C1.32 1.32 2.64 2.64 4 4 C3.01 5.485 3.01 5.485 2 7 C1.01 6.67 0.02 6.34 -1 6 C-0.67 4.02 -0.34 2.04 0 0 Z " fill="#E9E1F1" transform="translate(137,81)"/>
<path d="M0 0 C2.875 -0.125 2.875 -0.125 6 0 C6.66 0.66 7.32 1.32 8 2 C5.6875 2.6875 5.6875 2.6875 3 3 C1.1875 1.5625 1.1875 1.5625 0 0 Z " fill="#F7F2F7" transform="translate(143,242)"/>
<path d="M0 0 C0.99 0.33 1.98 0.66 3 1 C3.33 3.31 3.66 5.62 4 8 C3.34 7.67 2.68 7.34 2 7 C1.65657551 5.66923011 1.32380126 4.33568021 1 3 C0.34 2.34 -0.32 1.68 -1 1 C-0.67 0.67 -0.34 0.34 0 0 Z " fill="#BBB5C2" transform="translate(148,232)"/>
<path d="M0 0 C0.33 0.66 0.66 1.32 1 2 C3.02463255 2.65213292 3.02463255 2.65213292 5 3 C3.68799596 4.35432675 2.35368596 5.68733482 1 7 C0.67 7 0.34 7 0 7 C0 4.69 0 2.38 0 0 Z " fill="#4D1A5C" transform="translate(133,214)"/>
<path d="M0 0 C2.97 0.495 2.97 0.495 6 1 C4.68 2.65 3.36 4.3 2 6 C1.34 5.34 0.68 4.68 0 4 C0 2.68 0 1.36 0 0 Z " fill="#44134D" transform="translate(218,206)"/>
<path d="M0 0 C1.32 0.33 2.64 0.66 4 1 C3.34 2.65 2.68 4.3 2 6 C0.68 5.01 -0.64 4.02 -2 3 C-1.34 3 -0.68 3 0 3 C0 2.01 0 1.02 0 0 Z " fill="#F0EAEE" transform="translate(122,192)"/>
<path d="M0 0 C0 0.99 0 1.98 0 3 C-2.31 3.33 -4.62 3.66 -7 4 C-6.34 3.67 -5.68 3.34 -5 3 C-5 2.34 -5 1.68 -5 1 C-2 0 -2 0 0 0 Z " fill="#F6EBFB" transform="translate(167,72)"/>
</svg>
