<?xml version="1.0" encoding="UTF-8"?>
<svg version="1.1" xmlns="http://www.w3.org/2000/svg" width="512" height="512">
<path d="M0 0 C1.77041603 -0.00761181 1.77041603 -0.00761181 3.57659805 -0.0153774 C4.87958945 -0.01587516 6.18258085 -0.01637292 7.52505684 -0.01688576 C8.91826631 -0.02090023 10.31147462 -0.02533843 11.70468152 -0.03016531 C15.54198152 -0.04213785 19.37926894 -0.04778081 23.21658397 -0.05234647 C27.35164322 -0.05829979 31.48668742 -0.06991011 35.62173653 -0.08063698 C45.6109486 -0.1051641 55.60016565 -0.119787 65.58939856 -0.13269705 C68.40953951 -0.13640824 71.22967997 -0.14038152 74.04982042 -0.14444971 C91.55409792 -0.16968147 109.05837618 -0.19173939 126.56266785 -0.20417786 C130.61744248 -0.20710765 134.67221708 -0.2100693 138.72699165 -0.21308327 C140.23872126 -0.21420234 140.23872126 -0.21420234 141.78099085 -0.21534403 C158.1183878 -0.2280061 174.45567613 -0.26124079 190.79302226 -0.3028851 C207.55687608 -0.34526731 224.32067422 -0.36886844 241.08458149 -0.37409842 C250.50078696 -0.37751636 259.91682256 -0.38931686 269.33297539 -0.42220116 C277.34956149 -0.45015162 285.3659429 -0.461223 293.38257395 -0.4500057 C297.47441623 -0.44480649 301.56582952 -0.44778702 305.65760994 -0.47247124 C309.40201664 -0.49487193 313.14568391 -0.49429655 316.89010276 -0.47526737 C318.88951013 -0.47111961 320.88892133 -0.49168053 322.88821876 -0.51305425 C332.55894409 -0.42681304 332.55894409 -0.42681304 335.66687679 2.48795223 C337.75339263 5.74069832 337.97237152 7.63628769 337.93377876 11.48784447 C337.93340111 12.74877419 337.93302345 14.0097039 337.93263435 15.30884361 C337.90710505 16.67475445 337.88102514 18.04065508 337.85443306 19.40654564 C337.8451004 20.81186221 337.83798642 22.21719511 337.83299446 23.6225338 C337.81395953 27.31039898 337.76489152 30.99726989 337.70947456 34.68474388 C337.65820485 38.45190037 337.63546411 42.21921849 337.61029243 45.98662376 C337.55676718 53.37053919 337.47149963 60.75363715 337.36615181 68.13701439 C338.34233467 68.11444572 339.31851753 68.09187706 340.32428169 68.0686245 C341.59686836 68.05107109 342.86945503 68.03351768 344.18060493 68.01543236 C345.4455378 67.99286369 346.71047066 67.97029503 348.01373482 67.94704247 C351.36615181 68.13701439 351.36615181 68.13701439 354.33490181 70.08232689 C355.00521431 71.09037376 355.67552681 72.09842064 356.36615181 73.13701439 C357.416178 74.53179461 358.46845969 75.92487832 359.52240181 77.31670189 C360.64169318 78.87844255 361.75618208 80.44363489 362.86615181 82.01201439 C363.42173775 82.78931908 363.97732368 83.56662376 364.54974556 84.36748314 C365.64158456 85.89605774 366.73022292 87.42692448 367.81537056 88.96025658 C368.82729133 90.38064158 369.8502916 91.79321671 370.88568306 93.1965847 C374.36615181 97.92953199 374.36615181 97.92953199 374.36615181 100.13701439 C375.81247993 100.08480736 375.81247993 100.08480736 377.28802681 100.03154564 C378.55130806 100.00447533 379.81458931 99.97740501 381.11615181 99.94951439 C382.36912056 99.9147097 383.62208931 99.87990501 384.91302681 99.84404564 C388.67131267 100.16290473 389.71306617 100.57817696 392.36615181 103.13701439 C393.13208485 105.39624023 393.13208485 105.39624023 393.50914192 108.06514549 C393.65874776 109.06101362 393.8083536 110.05688175 393.96249294 111.0829277 C394.10625457 112.15861322 394.25001619 113.23429874 394.39813423 114.3425808 C394.64355477 116.02096755 394.64355477 116.02096755 394.8939333 117.73326111 C395.23310867 120.06308877 395.56491359 122.39400044 395.88961601 124.72588921 C396.32783837 127.86276017 396.78716789 130.99537352 397.25839424 134.12743187 C398.14514089 140.03123137 399.00344565 145.93890195 399.85443306 151.84795189 C400.00646879 152.9035191 400.15850452 153.9590863 400.3151474 155.0466404 C401.11443173 160.60271929 401.91045411 166.1592557 402.70428658 171.71611595 C403.35596808 176.2727984 404.01488684 180.82834856 404.67987251 185.38310814 C405.49317423 190.95410964 406.29408326 196.52676221 407.08623505 202.1008091 C407.38695714 204.20240361 407.69192391 206.30339568 408.00139999 208.40371895 C412.13301426 236.5033734 412.13301426 236.5033734 403.61615181 249.88701439 C399.46792581 254.03524039 395.05287318 256.71533405 389.36615181 258.13701439 C389.03615181 264.40701439 388.70615181 270.67701439 388.36615181 277.13701439 C389.95427681 277.03388939 391.54240181 276.93076439 393.17865181 276.82451439 C395.88568306 276.64873314 395.88568306 276.64873314 398.36615181 277.13701439 C401.68329203 281.25616629 401.83352837 285.23783829 401.83490181 290.32451439 C401.84251534 291.1046389 401.85012886 291.88476341 401.8579731 292.68852806 C401.86874407 294.3324572 401.87163943 295.97645459 401.86712837 297.62041283 C401.86615464 300.12971303 401.90783266 302.63596669 401.95208931 305.14482689 C401.95729593 306.74638304 401.95998451 308.34794977 401.95990181 309.94951439 C401.97629707 310.69547874 401.99269234 311.4414431 402.00958443 312.21001244 C401.95664342 316.21656942 401.5115023 317.95625516 398.96893501 321.11821556 C395.11143456 324.11021174 393.09605634 323.53785376 388.36615181 323.13701439 C388.36615181 327.09701439 388.36615181 331.05701439 388.36615181 335.13701439 C389.78927681 335.09576439 391.21240181 335.05451439 392.67865181 335.01201439 C396.34675214 334.90569264 397.16235164 335.00114761 400.36615181 337.13701439 C401.60276823 340.84686365 401.52845791 344.29999731 401.53412056 348.16435814 C401.53744896 348.94968422 401.54077736 349.7350103 401.54420662 350.54413414 C401.54926644 352.20423866 401.55161524 353.86435334 401.55145454 355.52446556 C401.5536406 358.06150151 401.57180477 360.59810226 401.59076118 363.13506126 C401.5936954 364.74899207 401.59568001 366.36292494 401.59662056 367.97685814 C401.60380608 368.73425789 401.61099159 369.49165764 401.61839485 370.2720089 C401.58914406 377.02951654 401.58914406 377.02951654 399.36615181 380.13701439 C395.9368311 381.85167475 392.14899116 381.19105495 388.36615181 381.13701439 C388.36615181 385.09701439 388.36615181 389.05701439 388.36615181 393.13701439 C389.58302681 393.03388939 390.79990181 392.93076439 392.05365181 392.82451439 C395.3641384 392.54396468 396.2771841 393.06800829 398.96893501 395.15581322 C401.97474476 398.89386626 402.06091054 401.72874142 401.95990181 406.32451439 C401.95994209 407.1046389 401.95998238 407.88476341 401.96002388 408.68852806 C401.95467913 410.33257192 401.9371408 411.97661602 401.908144 413.62041283 C401.86627971 416.12934956 401.86707893 418.63559958 401.87396431 421.14482689 C401.86347081 422.74640794 401.85053183 424.34797523 401.83490181 425.94951439 C401.83470039 426.69547874 401.83449898 427.4414431 401.83429146 428.21001244 C401.73397326 432.64991805 401.18102281 435.64156939 398.36615181 439.13701439 C394.93024507 439.81337398 391.89675153 439.36627411 388.36615181 439.13701439 C388.36615181 444.74701439 388.36615181 450.35701439 388.36615181 456.13701439 C390.84011014 456.00680606 393.31406848 455.87659772 395.78802681 455.74638939 C399.2686472 456.27375611 400.21956579 457.37451251 402.36615181 460.13701439 C402.85199165 463.29741478 402.85199165 463.29741478 402.82708931 466.98467064 C402.82617287 467.63777718 402.82525642 468.29088371 402.82431221 468.96378136 C402.81828828 470.3397152 402.80257813 471.71563667 402.7777729 473.09136009 C402.7412083 475.19626246 402.7367541 477.29940532 402.73724556 479.40459251 C402.66172128 489.69366018 402.66172128 489.69366018 400.36615181 493.13701439 C396.73499686 494.34739937 393.4164437 494.27603127 389.63678265 494.26564884 C388.43801936 494.2682784 388.43801936 494.2682784 387.21503863 494.27096108 C384.51446191 494.27564426 381.81393849 494.27314964 379.11335945 494.27072716 C377.16671483 494.27259396 375.22007059 494.27489414 373.27342695 494.27759248 C367.90638036 494.28373299 362.53934929 494.28357425 357.17229998 494.2823981 C351.39103365 494.28219467 345.60977237 494.28770738 339.82850838 494.29245567 C328.49568838 494.30077493 317.16287357 494.30351108 305.83005077 494.30406805 C296.62248874 494.30454258 287.41492843 494.30659413 278.20736694 494.30976868 C256.37275539 494.317144 234.53814518 494.32329313 212.70353222 494.32277012 C212.0049211 494.32275454 211.30630998 494.32273896 210.58652882 494.32272291 C207.04548189 494.3226398 203.50443496 494.32254076 199.96338803 494.3224382 C199.26009232 494.32241826 198.55679661 494.32239831 197.8321889 494.32237776 C196.40995339 494.32233733 194.98771789 494.32229553 193.56548238 494.32225237 C171.43140534 494.32163944 149.29734361 494.32914873 127.16327095 494.34282494 C102.31019548 494.35817474 77.45713014 494.36677916 52.60404962 494.36586171 C39.43930996 494.36552912 26.27458756 494.3683034 13.10985184 494.37903976 C1.90305231 494.3881205 -9.30372212 494.39034006 -20.51052373 494.38353034 C-26.23243559 494.38025291 -31.95429924 494.38025228 -37.67620659 494.38888359 C-42.90870505 494.39669575 -48.14111663 494.39537177 -53.37361283 494.38659946 C-55.27196707 494.38505274 -57.17032763 494.38692422 -59.06867444 494.39245953 C-61.63876917 494.39946039 -64.20855412 494.39427295 -66.77863789 494.38590336 C-67.52452334 494.39087154 -68.27040879 494.39583972 -69.03889683 494.40095845 C-72.70246279 494.37554215 -75.58248313 494.29114336 -78.63384819 492.13701439 C-80.78097129 487.84276818 -79.90190879 482.15571408 -79.92901421 477.38847923 C-79.94622886 475.27665367 -79.99011758 473.1663938 -80.03423882 471.05498314 C-80.04436614 469.70994255 -80.05288212 468.36488868 -80.05962944 467.01982689 C-80.07421196 465.79666771 -80.08879448 464.57350853 -80.10381889 463.31328392 C-79.54729044 459.55201888 -78.64419365 458.3853909 -75.63384819 456.13701439 C-73.05572319 455.74638939 -73.05572319 455.74638939 -70.38384819 455.88701439 C-68.81634819 455.96951439 -67.24884819 456.05201439 -65.63384819 456.13701439 C-65.63384819 450.52701439 -65.63384819 444.91701439 -65.63384819 439.13701439 C-67.22197319 439.24013939 -68.81009819 439.34326439 -70.44634819 439.44951439 C-73.15337944 439.62529564 -73.15337944 439.62529564 -75.63384819 439.13701439 C-78.95098841 435.01786249 -79.10122475 431.03619049 -79.10259819 425.94951439 C-79.11021172 425.16938988 -79.11782524 424.38926537 -79.12566948 423.58550072 C-79.13644045 421.94157158 -79.13933581 420.29757418 -79.13482475 418.65361595 C-79.13385102 416.14431575 -79.17552904 413.63806209 -79.21978569 411.12920189 C-79.22499231 409.52764574 -79.22768089 407.926079 -79.22759819 406.32451439 C-79.25219109 405.20556786 -79.25219109 405.20556786 -79.27728081 404.06401634 C-79.2243398 400.05745936 -78.77919868 398.31777361 -76.23663139 395.15581322 C-72.37913094 392.16381704 -70.36375272 392.73617502 -65.63384819 393.13701439 C-65.63384819 389.17701439 -65.63384819 385.21701439 -65.63384819 381.13701439 C-67.76853569 381.19888939 -67.76853569 381.19888939 -69.94634819 381.26201439 C-73.61444852 381.36833614 -74.43004802 381.27288117 -77.63384819 379.13701439 C-78.87046461 375.42716513 -78.79615429 371.97403147 -78.80181694 368.10967064 C-78.80514534 367.32434456 -78.80847374 366.53901848 -78.811903 365.72989464 C-78.81696282 364.06979012 -78.81931162 362.40967544 -78.81915092 360.74956322 C-78.82133698 358.21252726 -78.83950115 355.67592652 -78.85845757 353.13896751 C-78.86139178 351.52503671 -78.86337639 349.91110384 -78.86431694 348.29717064 C-78.87150246 347.53977089 -78.87868797 346.78237114 -78.88609123 346.00201988 C-78.85684044 339.24451224 -78.85684044 339.24451224 -76.63384819 336.13701439 C-73.20452748 334.42235403 -69.41668754 335.08297383 -65.63384819 335.13701439 C-65.63384819 331.17701439 -65.63384819 327.21701439 -65.63384819 323.13701439 C-66.85072319 323.24013939 -68.06759819 323.34326439 -69.32134819 323.44951439 C-72.63183478 323.7300641 -73.54488048 323.20602048 -76.23663139 321.11821556 C-79.24244114 317.38016251 -79.32860692 314.54528736 -79.22759819 309.94951439 C-79.22763847 309.16938988 -79.22767876 308.38926537 -79.22772026 307.58550072 C-79.22237551 305.94145686 -79.20483719 304.29741276 -79.17584038 302.65361595 C-79.13397609 300.14467922 -79.13477532 297.63842919 -79.14166069 295.12920189 C-79.13116719 293.52762084 -79.11822821 291.92605355 -79.10259819 290.32451439 C-79.10239677 289.57855003 -79.10219536 288.83258568 -79.10198784 288.06401634 C-79.00166964 283.62411072 -78.44871919 280.63245939 -75.63384819 277.13701439 C-72.19794145 276.4606548 -69.16444791 276.90775467 -65.63384819 277.13701439 C-65.96384819 270.86701439 -66.29384819 264.59701439 -66.63384819 258.13701439 C-70.59384819 256.65201439 -70.59384819 256.65201439 -74.63384819 255.13701439 C-80.85970861 250.86436508 -84.97845836 245.29434592 -87.00884819 238.01201439 C-89.3678969 223.67778467 -85.14330742 207.43462991 -83.14166069 193.22685814 C-82.79146157 190.72537047 -82.4413553 188.2238698 -82.0913372 185.7223568 C-81.36015171 180.5066433 -80.62491279 175.29151448 -79.88726616 170.07671165 C-79.03619165 164.05894526 -78.19721333 158.03957293 -77.36359322 152.0193662 C-76.55701751 146.19912561 -75.73804503 140.38068286 -74.91445351 134.56282806 C-74.56712537 132.09736902 -74.22348362 129.63138772 -73.88360786 127.16489029 C-73.40878227 123.7268366 -72.9198373 120.2910756 -72.42730522 116.85552025 C-72.29005028 115.8388578 -72.15279533 114.82219536 -72.01138115 113.77472496 C-70.72712801 105.00659357 -70.72712801 105.00659357 -67.63384819 101.13701439 C-64.63071071 99.63544565 -61.84317297 100.04420235 -58.50884819 100.07451439 C-57.22752007 100.08353783 -55.94619194 100.09256126 -54.62603569 100.10185814 C-53.63861382 100.1134597 -52.65119194 100.12506126 -51.63384819 100.13701439 C-51.36217827 99.39749535 -51.09050835 98.6579763 -50.810606 97.89604759 C-49.69489008 95.28013356 -48.47990902 93.27776312 -46.80572319 90.99248314 C-46.25271538 90.2325808 -45.69970757 89.47267845 -45.12994194 88.68974876 C-44.553731 87.90922142 -43.97752007 87.12869408 -43.38384819 86.32451439 C-42.823106 85.55558861 -42.26236382 84.78666283 -41.68462944 83.99443626 C-40.0095083 81.70226704 -38.32201481 79.41958507 -36.63384819 77.13701439 C-35.79756889 75.9877346 -35.79756889 75.9877346 -34.94439507 74.81523705 C-34.41394585 74.09255638 -33.88349663 73.36987572 -33.33697319 72.62529564 C-32.86420952 71.97730003 -32.39144585 71.32930443 -31.904356 70.66167259 C-30.63384819 69.13701439 -30.63384819 69.13701439 -28.63384819 68.13701439 C-27.25836663 68.05392801 -25.87899023 68.02965423 -24.50103569 68.03935814 C-23.69537163 68.0425808 -22.88970757 68.04580345 -22.05962944 68.04912376 C-20.79699272 68.06169212 -20.79699272 68.06169212 -19.50884819 68.07451439 C-18.659356 68.07902611 -17.80986382 68.08353783 -16.93462944 68.08818626 C-14.8343391 68.09998565 -12.73408489 68.11792133 -10.63384819 68.13701439 C-10.63828941 67.34187935 -10.64273064 66.54674431 -10.64730644 65.72751427 C-10.68736319 58.23793843 -10.71782239 50.74841446 -10.73747253 43.2587595 C-10.74791444 39.40815414 -10.76208098 35.55763721 -10.7847271 31.70708275 C-10.8064411 27.99181116 -10.81841375 24.2766247 -10.82360268 20.56129456 C-10.82730104 19.14309728 -10.83452294 17.72490471 -10.8453083 16.30674362 C-10.85980321 14.32207206 -10.86066494 12.33731504 -10.86089897 10.35259056 C-10.86534019 9.22229927 -10.86978142 8.09200798 -10.87435722 6.92746544 C-10.63384819 4.13701439 -10.63384819 4.13701439 -8.63384819 1.13701439 C-5.49316251 0.09011916 -3.29673731 0.0075114 0 0 Z " fill="#69312C" transform="translate(94.63384819030762,8.862985610961914)"/>
<path d="M0 0 C0.61875 0.70125 1.2375 1.4025 1.875 2.125 C7.48333044 7.76556223 14.94013414 12.06966738 22.9375 12.375 C33.46995823 12.24961359 41.7760554 7.37267288 49 0 C49.61875 0.70125 50.2375 1.4025 50.875 2.125 C56.48333044 7.76556223 63.94013414 12.06966738 71.9375 12.375 C81.10461129 12.28989419 89.5479789 8.4520211 96 2 C96.33 1.34 96.66 0.68 97 0 C100 1 100 1 102.1875 3.25 C109.02575221 9.93629105 115.36371068 12.3803935 124.8671875 12.27734375 C132.69305827 11.58452975 139.23911331 7.14364883 145 2 C145.33 1.34 145.66 0.68 146 0 C149 1 149 1 151.1875 3.25 C155.57183784 7.53690811 160.69993855 11.54999561 167 12 C167.71800781 12.061875 168.43601563 12.12375 169.17578125 12.1875 C177.62189493 12.60783536 184.54790004 10.2994016 191.0625 4.875 C192.85426061 3.24765977 193.91366498 2.17267005 195 0 C195.66 0 196.32 0 197 0 C197.495 0.70125 197.99 1.4025 198.5 2.125 C203.36026146 7.71430068 210.04602321 11.51726424 217.4453125 12.23828125 C225.83628746 12.47068435 232.85352157 10.74824548 239.5 5.4375 C242.10746221 3.06469452 242.10746221 3.06469452 244 0 C244.66 0 245.32 0 246 0 C246.804375 1.0828125 246.804375 1.0828125 247.625 2.1875 C252.4825484 7.93985995 259.20465642 11.48422177 266.6875 12.2890625 C274.26378048 12.65628018 279.70794469 11.26422902 286 7 C288.81356892 4.43802877 288.81356892 4.43802877 291 2 C293.3125 0.6875 293.3125 0.6875 295 0 C295.495 0.721875 295.99 1.44375 296.5 2.1875 C301.44266553 7.74799872 308.01188196 11.48616851 315.46484375 12.25390625 C323.75807286 12.61448143 330.9268756 10.72938683 337.4375 5.4375 C339.31926394 3.64752942 341.16947246 1.84120117 343 0 C343.4846875 0.45890625 343.969375 0.9178125 344.46875 1.390625 C352.3918576 8.64331581 359.77278274 12.50261289 370.65625 12.41015625 C377.75157042 11.53981905 384.60243307 8.12352989 389.25 2.625 C389.8275 1.75875 390.405 0.8925 391 0 C391.65742187 0.54527344 391.65742187 0.54527344 392.328125 1.1015625 C398.14446736 5.71207778 404.30722454 8.8057208 411 12 C411 18.6 411 25.2 411 32 C408.4609375 32.1953125 405.921875 32.390625 403.3828125 32.5859375 C400.82058097 32.79568132 400.82058097 32.79568132 399 35 C398.80001676 37.91749135 398.72025113 40.73801929 398.734375 43.65625 C398.73246155 44.51432251 398.7305481 45.37239502 398.72857666 46.25646973 C398.72721456 48.07218722 398.73091272 49.88791445 398.73925781 51.70361328 C398.74995709 54.4888285 398.73936347 57.27339868 398.7265625 60.05859375 C398.72788409 61.82031393 398.73044647 63.58203371 398.734375 65.34375 C398.72830231 66.59847107 398.72830231 66.59847107 398.72210693 67.87854004 C398.55971434 72.41472931 398.55971434 72.41472931 401 76 C403.43252661 76.46162427 403.43252661 76.46162427 406.125 76.625 C408.538125 76.810625 408.538125 76.810625 411 77 C411 81.62 411 86.24 411 91 C408.16796875 91.22786458 405.3359375 91.45572917 402.50390625 91.68359375 C400.06359221 91.73211468 400.06359221 91.73211468 399 93 C398.89890614 95.86095624 398.86030572 98.69726057 398.8671875 101.55859375 C398.86623077 102.41808121 398.86527405 103.27756866 398.86428833 104.1631012 C398.86360643 105.98479282 398.86546139 107.80648685 398.86962891 109.62817383 C398.87497054 112.4220932 398.86968761 115.21585133 398.86328125 118.00976562 C398.86394216 119.77604202 398.86522358 121.54231832 398.8671875 123.30859375 C398.86415115 124.5680204 398.86415115 124.5680204 398.86105347 125.85289001 C398.7621169 130.06021468 398.7621169 130.06021468 400 134 C403.65149561 134.60383547 407.30350275 134.74506916 411 135 C411 139.62 411 144.24 411 149 C408.4609375 149.1953125 405.921875 149.390625 403.3828125 149.5859375 C400.82058097 149.79568132 400.82058097 149.79568132 399 152 C398.80001676 154.91749135 398.72025113 157.73801929 398.734375 160.65625 C398.73246155 161.51432251 398.7305481 162.37239502 398.72857666 163.25646973 C398.72721456 165.07218722 398.73091272 166.88791445 398.73925781 168.70361328 C398.74995709 171.4888285 398.73936347 174.27339868 398.7265625 177.05859375 C398.72788409 178.82031393 398.73044647 180.58203371 398.734375 182.34375 C398.72830231 183.59847107 398.72830231 183.59847107 398.72210693 184.87854004 C398.55971434 189.41472931 398.55971434 189.41472931 401 193 C403.43252661 193.46162427 403.43252661 193.46162427 406.125 193.625 C408.538125 193.810625 408.538125 193.810625 411 194 C411 199.94 411 205.88 411 212 C400.44 212 389.88 212 379 212 C378.98018066 206.89096191 378.96036133 201.78192383 378.93994141 196.51806641 C378.87317332 179.67834331 378.79563336 162.83868273 378.71247292 145.99903297 C378.66229506 135.78452689 378.61585285 125.57002904 378.578125 115.35546875 C378.54524208 106.45518385 378.50543158 97.55496192 378.45720994 88.65474641 C378.43190802 83.9396906 378.41013777 79.22467674 378.39665604 74.50957108 C378.38386904 70.07565965 378.36185143 65.64189187 378.33261681 61.20805931 C378.3235146 59.57700715 378.31784468 57.94593184 378.31578636 56.31485558 C378.31248235 54.0952062 378.29705642 51.87596874 378.2784729 49.65640259 C378.27294214 48.41198206 378.26741138 47.16756153 378.26171303 45.88543129 C378.29886492 42.8719699 378.29886492 42.8719699 376 41 C374.11846766 40.69819388 374.11846766 40.69819388 371.93602848 40.74831772 C371.08046456 40.74310222 370.22490065 40.73788673 369.34341055 40.73251319 C367.92529512 40.73920535 367.92529512 40.73920535 366.47853088 40.74603271 C364.97843716 40.74135274 364.97843716 40.74135274 363.44803852 40.73657823 C360.07540761 40.72855996 356.70295472 40.73493677 353.33032227 40.74121094 C350.92113133 40.73850276 348.51194122 40.73494281 346.10275269 40.73059082 C340.22517049 40.72239482 334.34763502 40.72362635 328.4700541 40.7294161 C323.69418827 40.73392645 318.91833675 40.73454822 314.14246941 40.73236847 C313.46364305 40.732062 312.7848167 40.73175554 312.08541984 40.73143978 C310.7065351 40.73080035 309.32765036 40.73015193 307.94876563 40.7294946 C295.00720946 40.72378629 282.06568159 40.73035681 269.12413006 40.74109533 C258.01332187 40.75002929 246.90255548 40.74848106 235.79174805 40.73925781 C222.89915797 40.72856054 210.00659273 40.72433779 197.11399883 40.73048234 C195.73978134 40.73111946 194.36556385 40.7317482 192.99134636 40.73236847 C192.31515146 40.73267702 191.63895655 40.73298557 190.94227089 40.73330347 C186.17119479 40.73503219 181.40013441 40.73211146 176.62906075 40.72740936 C170.20971463 40.72122211 163.790429 40.72561237 157.37108994 40.73719788 C155.00995325 40.73985055 152.64880994 40.73906909 150.28767586 40.73467255 C147.07451042 40.72923953 143.86160167 40.73602399 140.64845276 40.74603271 C139.23368341 40.73934055 139.23368341 40.73934055 137.79033285 40.73251319 C136.93216119 40.73772868 136.07398953 40.74294418 135.18981266 40.74831772 C134.44778412 40.74864242 133.70575558 40.74896713 132.94124132 40.74930167 C130.6754614 40.89600809 130.6754614 40.89600809 128 43 C127.53396341 46.02325794 127.53396341 46.02325794 127.60127258 49.65640259 C127.59462576 50.34823179 127.58797893 51.04006099 127.58113068 51.7528547 C127.56240612 54.08229151 127.56511219 56.41121894 127.56762695 58.74072266 C127.55861552 60.40602856 127.54828984 62.07132779 127.53674316 63.73661804 C127.50907415 68.26736417 127.49987528 72.79798479 127.49388909 77.32880449 C127.48453108 82.06010481 127.4583299 86.79131041 127.43388367 91.52255249 C127.39014393 100.48624851 127.36164295 109.44992623 127.33856028 118.41369665 C127.31154858 128.61674705 127.26763467 138.81970254 127.22227156 149.02268529 C127.12931827 170.01507416 127.05828613 191.00748873 127 212 C120.07 212 113.14 212 106 212 C105.99191315 209.9122525 105.98382629 207.824505 105.97549438 205.67349243 C105.89851056 186.04271854 105.81057866 166.41201571 105.71247292 146.78133583 C105.66229539 136.68789824 105.61585317 126.59446899 105.578125 116.50097656 C105.54524175 107.70616657 105.50543106 98.91142028 105.45720994 90.1166805 C105.43190835 85.45751607 105.410138 80.7983941 105.39665604 76.13917923 C105.38386874 71.75779657 105.3618508 67.37655927 105.33261681 62.99525642 C105.32351484 61.38355514 105.31784473 59.77183043 105.31578636 58.16010475 C105.31248218 55.96672779 105.29705581 53.7737676 105.2784729 51.58047485 C105.27294214 50.35080301 105.26741138 49.12113117 105.26171303 47.85419655 C105.29473695 44.86834621 105.29473695 44.86834621 103 43 C100.03340703 42.79588403 97.1597859 42.71686111 94.19165039 42.7253418 C92.82318718 42.7176754 92.82318718 42.7176754 91.42707825 42.70985413 C88.40053818 42.69591323 85.37422468 42.69691828 82.34765625 42.69921875 C80.2501975 42.69533426 78.15273953 42.6910001 76.05528259 42.68623352 C71.65442355 42.6787616 67.25364471 42.67906959 62.8527832 42.68432617 C57.20539612 42.6901217 51.55833691 42.67319237 45.91100407 42.6499815 C41.57793753 42.63526927 37.24495041 42.63436904 32.91186333 42.63749123 C30.82939441 42.63697674 28.74692119 42.6317152 26.66447639 42.62167931 C23.75534724 42.60938101 20.84686252 42.61606683 17.93774414 42.62768555 C17.07270264 42.62004181 16.20766113 42.61239807 15.31640625 42.60452271 C11.09409733 42.54990868 11.09409733 42.54990868 7.28017616 44.10696602 C5.36346116 46.94126862 5.61410142 49.26312415 5.60127258 52.6627655 C5.59462576 53.34319847 5.58797893 54.02363144 5.58113068 54.72468358 C5.56244637 57.00955932 5.5651095 59.2939139 5.56762695 61.57885742 C5.55861307 63.21475467 5.54828678 64.85064514 5.53674316 66.48652649 C5.50910298 70.93250574 5.49987916 75.37835709 5.49388909 79.82441115 C5.48452364 84.46895553 5.45832179 89.11340367 5.43388367 93.75788879 C5.39016453 102.55509614 5.36165086 111.35228487 5.33856028 120.1495679 C5.31153758 130.16401241 5.26762431 140.17836037 5.22227156 150.19273603 C5.12934776 170.79510712 5.05830163 191.39750436 5 212 C-2.92 212 -10.84 212 -19 212 C-19 206.06 -19 200.12 -19 194 C-16.4609375 193.8046875 -13.921875 193.609375 -11.3828125 193.4140625 C-8.82058097 193.20431868 -8.82058097 193.20431868 -7 191 C-6.80001676 188.08250865 -6.72025113 185.26198071 -6.734375 182.34375 C-6.73246155 181.48567749 -6.7305481 180.62760498 -6.72857666 179.74353027 C-6.72721456 177.92781278 -6.73091272 176.11208555 -6.73925781 174.29638672 C-6.74995709 171.5111715 -6.73936347 168.72660132 -6.7265625 165.94140625 C-6.72788409 164.17968607 -6.73044647 162.41796629 -6.734375 160.65625 C-6.73032654 159.81976929 -6.72627808 158.98328857 -6.72210693 158.12145996 C-6.55971434 153.58527069 -6.55971434 153.58527069 -9 150 C-11.20250992 149.53993654 -11.20250992 149.53993654 -13.625 149.375 C-15.06875 149.25125 -16.5125 149.1275 -18 149 C-18 144.71 -18 140.42 -18 136 C-15.42838542 135.51171875 -12.85677083 135.0234375 -10.28515625 134.53515625 C-8.04710156 134.22285012 -8.04710156 134.22285012 -7 133 C-6.89889647 130.0546443 -6.86030721 127.1332244 -6.8671875 124.1875 C-6.86623077 123.30344482 -6.86527405 122.41938965 -6.86428833 121.50854492 C-6.86360649 119.63557871 -6.86546107 117.76261014 -6.86962891 115.88964844 C-6.87497711 113.01231612 -6.86968407 110.13513992 -6.86328125 107.2578125 C-6.86394203 105.44270799 -6.86522319 103.62760357 -6.8671875 101.8125 C-6.86516327 100.94584717 -6.86313904 100.07919434 -6.86105347 99.1862793 C-6.48739586 95.27996781 -6.48739586 95.27996781 -8 92 C-9.84891946 91.76636119 -11.70488031 91.58696365 -13.5625 91.4375 C-15.356875 91.293125 -17.15125 91.14875 -19 91 C-19 86.38 -19 81.76 -19 77 C-13.06 76.505 -13.06 76.505 -7 76 C-6.95065344 70.19760386 -6.91430598 64.39532919 -6.89013672 58.59277344 C-6.88006373 56.61781691 -6.86640479 54.64287534 -6.84912109 52.66796875 C-6.82492961 49.83329582 -6.81353009 46.99881962 -6.8046875 44.1640625 C-6.79436493 43.27756012 -6.78404236 42.39105774 -6.77340698 41.47769165 C-6.7730093 39.31714048 -6.87727466 37.15706282 -7 35 C-9.49505962 32.50494038 -10.67328888 32.64051624 -14.125 32.375 C-16.538125 32.189375 -16.538125 32.189375 -19 32 C-19 25.4 -19 18.8 -19 12 C-12.3125 8.8125 -12.3125 8.8125 -10.2355957 7.84301758 C-6.01775459 5.78146446 -3.14842019 3.48553592 0 0 Z " fill="#CAC7C7" transform="translate(60,254)"/>
<path d="M0 0 C106.92 0 213.84 0 324 0 C324 18.81 324 37.62 324 57 C217.08 57 110.16 57 0 57 C0 38.19 0 19.38 0 0 Z " fill="#6F9381" transform="translate(96,21)"/>
<path d="M0 0 C1.52633644 -0.01830485 3.05260986 -0.04269281 4.57876313 -0.07259566 C8.75299383 -0.13663068 12.92284334 -0.11387561 17.09722733 -0.07616413 C21.60621388 -0.05059803 26.1143369 -0.10568535 30.62307739 -0.15011597 C39.44813422 -0.22385343 48.27159764 -0.22165154 57.09685002 -0.19141405 C64.27152828 -0.16797446 71.44574523 -0.17081379 78.62042618 -0.19227791 C79.64249026 -0.19528934 80.66455435 -0.19830077 81.71759007 -0.20140346 C83.79407608 -0.20759668 85.87056197 -0.21383279 87.94704773 -0.22011132 C107.40977949 -0.27552429 126.87161747 -0.24285966 146.33428158 -0.18155385 C163.02169341 -0.13127911 179.70734209 -0.16318968 196.39456177 -0.2535553 C215.78565434 -0.35855977 235.17564263 -0.4074275 254.56702149 -0.37093073 C256.63637725 -0.36722609 258.70573318 -0.36361352 260.77508926 -0.36009407 C261.79317164 -0.35835635 262.81125402 -0.35661863 263.86018737 -0.35482825 C271.0224577 -0.34661918 278.18388448 -0.37888743 285.34597397 -0.42736626 C294.0806932 -0.48562038 302.81291261 -0.48357542 311.54751168 -0.4047498 C316.00211828 -0.36612133 320.45235475 -0.35435891 324.90678787 -0.41695023 C353.0127116 -0.78342125 353.0127116 -0.78342125 359.58655167 5.58540154 C362.85916409 9.65206636 364.95080288 13.96374368 366.83157349 18.79795837 C367.49157349 20.11795837 368.15157349 21.43795837 368.83157349 22.79795837 C237.49157349 22.79795837 106.15157349 22.79795837 -29.16842651 22.79795837 C-27.84842651 20.48795837 -26.52842651 18.17795837 -25.16842651 15.79795837 C-24.79507758 15.12102874 -24.42172864 14.4440991 -24.03706609 13.74665644 C-17.91857841 2.81855463 -12.8667863 -0.2790712 0 0 Z " fill="#E1E0DF" transform="translate(86.16842651367188,87.20204162597656)"/>
<path d="M0 0 C25.74 0 51.48 0 78 0 C78 52.14 78 104.28 78 158 C75.36 158 72.72 158 70 158 C69.67 135.56 69.34 113.12 69 90 C65.98095907 88.99365302 63.92378456 88.86179167 60.76586914 88.83886719 C59.69788589 88.82925964 58.62990265 88.8196521 57.52955627 88.80975342 C56.37640427 88.80550354 55.22325226 88.80125366 54.03515625 88.796875 C52.85030136 88.79117493 51.66544647 88.78547485 50.44468689 88.77960205 C47.9371734 88.77015107 45.42964748 88.76361768 42.92211914 88.75976562 C39.08132377 88.75004763 35.24106064 88.71901925 31.40039062 88.6875 C28.96614902 88.68097123 26.53190358 88.67572026 24.09765625 88.671875 C22.37096458 88.6533548 22.37096458 88.6533548 20.60939026 88.63446045 C19.00268715 88.6389621 19.00268715 88.6389621 17.36352539 88.64355469 C16.42215225 88.63990906 15.48077911 88.63626343 14.51087952 88.63250732 C11.41770155 89.08522528 10.10654312 89.67890313 8 92 C7.3800784 94.91947922 7.3800784 94.91947922 7.45410156 98.30737305 C7.43438293 99.60849533 7.41466431 100.90961761 7.39434814 102.25016785 C7.39268497 103.67068438 7.39145411 105.09120148 7.390625 106.51171875 C7.37564578 107.96476591 7.35891917 109.41779602 7.34051514 110.87080383 C7.29679944 114.6930519 7.27683353 118.51507031 7.26177979 122.33752441 C7.24222362 126.23882655 7.20025208 130.13988009 7.16015625 134.04101562 C7.08480868 141.69394366 7.03454516 149.34676751 7 157 C4.69 157 2.38 157 0 157 C0 105.19 0 53.38 0 0 Z " fill="#673330" transform="translate(77,308)"/>
<path d="M0 0 C75.9 0 151.8 0 230 0 C230 8.58 230 17.16 230 26 C154.1 26 78.2 26 0 26 C0 17.42 0 8.84 0 0 Z " fill="#FCB65B" transform="translate(198,440)"/>
<path d="M0 0 C151.14 0 302.28 0 458 0 C458 4.62 458 9.24 458 14 C306.86 14 155.72 14 0 14 C0 9.38 0 4.76 0 0 Z " fill="#525D6D" transform="translate(27,477)"/>
<path d="M0 0 C62.7 0 125.4 0 190 0 C190 6.6 190 13.2 190 20 C127.3 20 64.6 20 0 20 C0 13.4 0 6.8 0 0 Z " fill="#6CD8D5" transform="translate(218,388)"/>
<path d="M0 0 C62.7 0 125.4 0 190 0 C190 6.6 190 13.2 190 20 C127.3 20 64.6 20 0 20 C0 13.4 0 6.8 0 0 Z " fill="#6CD8D5" transform="translate(218,356)"/>
<path d="M0 0 C25.74 0 51.48 0 78 0 C78 52.14 78 104.28 78 158 C75.36 158 72.72 158 70 158 C69.67 135.56 69.34 113.12 69 90 C65.98095907 88.99365302 63.92378456 88.86179167 60.76586914 88.83886719 C59.69788589 88.82925964 58.62990265 88.8196521 57.52955627 88.80975342 C56.37640427 88.80550354 55.22325226 88.80125366 54.03515625 88.796875 C52.85030136 88.79117493 51.66544647 88.78547485 50.44468689 88.77960205 C47.9371734 88.77015107 45.42964748 88.76361768 42.92211914 88.75976562 C39.08132377 88.75004763 35.24106064 88.71901925 31.40039062 88.6875 C28.96614902 88.68097123 26.53190358 88.67572026 24.09765625 88.671875 C22.37096458 88.6533548 22.37096458 88.6533548 20.60939026 88.63446045 C19.00268715 88.6389621 19.00268715 88.6389621 17.36352539 88.64355469 C16.42215225 88.63990906 15.48077911 88.63626343 14.51087952 88.63250732 C11.41770155 89.08522528 10.10654312 89.67890313 8 92 C7.3800784 94.91947922 7.3800784 94.91947922 7.45410156 98.30737305 C7.43438293 99.60849533 7.41466431 100.90961761 7.39434814 102.25016785 C7.39268497 103.67068438 7.39145411 105.09120148 7.390625 106.51171875 C7.37564578 107.96476591 7.35891917 109.41779602 7.34051514 110.87080383 C7.29679944 114.6930519 7.27683353 118.51507031 7.26177979 122.33752441 C7.24222362 126.23882655 7.20025208 130.13988009 7.16015625 134.04101562 C7.08480868 141.69394366 7.03454516 149.34676751 7 157 C4.69 157 2.38 157 0 157 C0 105.19 0 53.38 0 0 Z M8.17991638 9.66270447 C6.70785438 12.57871104 6.61282767 14.6337387 6.59594727 17.8984375 C6.58326309 19.08646973 6.57057892 20.27450195 6.55751038 21.49853516 C6.56044601 22.77776855 6.56338165 24.05700195 6.56640625 25.375 C6.5611644 26.69161621 6.55592255 28.00823242 6.55052185 29.36474609 C6.54159671 32.14886061 6.54400723 34.93268819 6.55395508 37.71679688 C6.56545199 41.28145025 6.54522104 44.84511407 6.51603794 48.40963745 C6.49326419 51.81481088 6.50014249 55.2197522 6.50390625 58.625 C6.48705528 60.5438501 6.48705528 60.5438501 6.46986389 62.50146484 C6.47924484 63.68949707 6.48862579 64.8775293 6.49829102 66.1015625 C6.49845718 67.14650879 6.49862335 68.19145508 6.49879456 69.26806641 C7.14085075 72.76773885 8.12967438 73.93150331 11 76 C13.58358879 76.60111205 13.58358879 76.60111205 16.43945312 76.51757812 C18.07134583 76.53649109 18.07134583 76.53649109 19.73620605 76.55578613 C20.90607056 76.54768921 22.07593506 76.53959229 23.28125 76.53125 C24.48688599 76.5350769 25.69252197 76.53890381 26.93469238 76.54284668 C29.48332555 76.54556826 32.03198654 76.53819005 34.58056641 76.52148438 C38.48533302 76.5000804 42.38825948 76.52128003 46.29296875 76.546875 C48.76823323 76.54423177 51.24349657 76.5391069 53.71875 76.53125 C55.47354675 76.54339539 55.47354675 76.54339539 57.26379395 76.55578613 C58.35172241 76.54317749 59.43965088 76.53056885 60.56054688 76.51757812 C61.99472961 76.51280457 61.99472961 76.51280457 63.45788574 76.50793457 C66.83681932 75.83279687 67.99283381 74.78046667 70 72 C70.59674506 69.16393756 70.59674506 69.16393756 70.50170898 65.99389648 C70.51578041 64.17697548 70.51578041 64.17697548 70.53013611 62.323349 C70.51328514 60.36698265 70.51328514 60.36698265 70.49609375 58.37109375 C70.49624877 57.01636172 70.49773824 55.66162924 70.50050354 54.30690002 C70.50188651 51.4714084 70.48934607 48.63642324 70.46655273 45.80102539 C70.43814033 42.16688541 70.44091367 38.53358498 70.45364285 34.89938259 C70.46059732 32.10350879 70.45281404 29.30782907 70.44038582 26.51198006 C70.4336762 24.52056604 70.43801421 22.52912476 70.44248962 20.53770447 C70.42980545 19.32957596 70.41712128 18.12144745 70.40405273 16.87670898 C70.39864975 15.81177719 70.39324677 14.7468454 70.38768005 13.64964294 C70.18794814 11.01507123 70.18794814 11.01507123 68.82008362 9.15795898 C66.29517297 7.55158061 64.45944511 7.61212462 61.47460938 7.59594727 C60.34333618 7.58326309 59.21206299 7.57057892 58.04650879 7.55751038 C56.21364319 7.56191383 56.21364319 7.56191383 54.34375 7.56640625 C53.0899353 7.5611644 51.83612061 7.55592255 50.54431152 7.55052185 C47.89103901 7.54409279 45.23862482 7.54401474 42.58544922 7.55395508 C39.18543791 7.56545226 35.78646404 7.54522465 32.38658905 7.51603794 C29.14313704 7.49328364 25.89976317 7.50014169 22.65625 7.50390625 C20.8233844 7.48705528 20.8233844 7.48705528 18.95349121 7.46986389 C17.82221802 7.47924484 16.69094482 7.48862579 15.52539062 7.49829102 C14.5285022 7.49845718 13.53161377 7.49862335 12.5045166 7.49879456 C9.91141256 7.79350746 9.91141256 7.79350746 8.17991638 9.66270447 Z " fill="#5598FB" transform="translate(77,308)"/>
<path d="M0 0 C2.64 0 5.28 0 8 0 C8.00146656 0.56929891 8.00293312 1.13859781 8.00444412 1.7251482 C8.04147959 15.57103822 8.10070407 29.41667975 8.18390274 43.26237202 C8.22346354 49.9580503 8.25610326 56.65358455 8.27099609 63.34936523 C8.28610594 69.80747485 8.32045055 76.26521842 8.36830902 82.72316551 C8.38318146 85.1907655 8.39104435 87.65841773 8.39188385 90.12606239 C8.39423759 93.57443196 8.42118971 97.02177673 8.45410156 100.4699707 C8.4490712 101.49711685 8.44404083 102.524263 8.43885803 103.58253479 C8.45277084 104.52062988 8.46668365 105.45872498 8.48101807 106.42524719 C8.48470524 107.24103398 8.48839241 108.05682077 8.49219131 108.89732838 C8.85565804 111.10407338 8.85565804 111.10407338 10.52001572 112.76295376 C14.03722109 114.51737846 17.35565635 114.40721863 21.19873047 114.36749268 C22.03237059 114.37076152 22.8660107 114.37403036 23.72491264 114.37739825 C26.52252187 114.38468992 29.31961012 114.37051136 32.1171875 114.35644531 C34.121115 114.35723603 36.12504236 114.35933281 38.12896729 114.36264038 C43.57517925 114.36778047 49.0212027 114.35422667 54.46738434 114.33711338 C60.16168259 114.32209334 65.85597823 114.32325178 71.55029297 114.32244873 C81.11363957 114.31875449 90.67691446 114.30377947 100.24023438 114.28125 C112.52144268 114.25237692 124.80259323 114.24202695 137.08383179 114.2375679 C147.6337276 114.23358923 158.18361082 114.22108684 168.73349762 114.20722103 C172.12878897 114.20312042 175.52407988 114.2001956 178.91937256 114.19742584 C184.25121527 114.19253474 189.58302293 114.18233445 194.91484833 114.16798782 C196.87403802 114.16346275 198.83323243 114.16062566 200.79242706 114.15958023 C203.46207651 114.1578359 206.13163811 114.14995655 208.80126953 114.14044189 C209.58064314 114.14130838 210.36001675 114.14217486 211.16300774 114.1430676 C214.68411601 114.12418072 217.55487636 113.86128091 221 113 C221.33 75.71 221.66 38.42 222 0 C224.64 0 227.28 0 230 0 C230 40.26 230 80.52 230 122 C154.1 122 78.2 122 0 122 C0 81.74 0 41.48 0 0 Z " fill="#E2E1E0" transform="translate(198,306)"/>
<path d="M0 0 C11.22 0 22.44 0 34 0 C34.11803579 16.06073669 33.71894086 32.08822784 33.20043945 48.13842773 C33.08422079 51.73711057 32.97352932 55.33593901 32.86443424 58.93484402 C32.7782362 61.75853943 32.68915281 64.58213846 32.59924126 67.40571785 C32.53733846 69.36454086 32.47774117 71.3234363 32.41822815 73.28233337 C32.37826218 74.49812576 32.3382962 75.71391815 32.29711914 76.96655273 C32.26380997 78.01431381 32.23050079 79.06207489 32.19618225 80.1415863 C31.91010968 85.76791752 31.43207734 91.3829946 31 97 C19.12 97 7.24 97 -5 97 C-4.4334371 73.31767084 -3.12078438 49.75399716 -1.53083801 26.1209259 C-0.95001258 17.41734995 -0.46647051 8.71043966 0 0 Z " fill="#E4E3E3" transform="translate(171,122)"/>
<path d="M0 0 C11.22 0 22.44 0 34 0 C35.43531186 20.09436604 36.57760284 40.19432306 37.625 60.3125 C37.69320953 61.6081488 37.76141907 62.90379761 37.83169556 64.2387085 C38.02851147 67.98843235 38.22187778 71.73831747 38.4140625 75.48828125 C38.47334427 76.6154808 38.53262604 77.74268036 38.59370422 78.90403748 C38.64737656 79.968647 38.70104889 81.03325653 38.75634766 82.13012695 C38.82724106 83.50996513 38.82724106 83.50996513 38.89956665 84.91767883 C39.03073038 88.94312203 39 92.97242047 39 97 C27.12 97 15.24 97 3 97 C1.875 88 1.875 88 1.80381775 84.65917969 C1.78561478 83.89932266 1.7674118 83.13946564 1.74865723 82.35658264 C1.73355103 81.55312912 1.71844482 80.7496756 1.70288086 79.921875 C1.68322769 79.05263901 1.66357452 78.18340302 1.64332581 77.28782654 C1.57994069 74.44195416 1.52234804 71.59599676 1.46484375 68.75 C1.42179133 66.76602408 1.37837463 64.78205604 1.33460999 62.7980957 C1.22084416 57.59669146 1.11200431 52.39519554 1.00421143 47.19366455 C0.89316886 41.87774301 0.77743823 36.56192372 0.66210938 31.24609375 C0.43683386 20.83082225 0.21719917 10.41544305 0 0 Z " fill="#F84867" transform="translate(307,122)"/>
<path d="M0 0 C10.89 0 21.78 0 33 0 C33.30551689 17.09909023 32.21699353 34.10083424 31.20404053 51.16070557 C31.01444953 54.37786614 30.83053824 57.59534089 30.6467371 60.81283665 C30.46768118 63.94009363 30.28607047 67.06719797 30.10360527 70.19425774 C30.01735023 71.67443596 29.93163937 73.154646 29.84651375 74.6348896 C29.7270106 76.70278949 29.604303 78.77047559 29.48071289 80.83813477 C29.41187393 82.00740005 29.34303497 83.17666534 29.27210999 84.38136292 C28.95510801 88.59699327 28.46685285 92.79832439 28 97 C16.12 97 4.24 97 -8 97 C-7.35226672 78.72582497 -5.85484139 60.57909033 -4.20825195 42.37518311 C-3.92787486 39.26153472 -3.65250389 36.14745191 -3.37722778 33.03334904 C-3.10943951 30.00737811 -2.83959575 26.98159348 -2.56903076 23.95586967 C-2.44106722 22.52428128 -2.31349494 21.09265786 -2.18634033 19.66099739 C-2.00896963 17.6697401 -1.82875778 15.6787365 -1.6484375 13.68774414 C-1.54708496 12.56163223 -1.44573242 11.43552032 -1.34130859 10.27528381 C-0.9832991 6.8397339 -0.48849102 3.41943717 0 0 Z " fill="#F84867" transform="translate(126,122)"/>
<path d="M0 0 C10.89 0 21.78 0 33 0 C35.86390418 20.11702603 38.34972509 40.22550338 40.51959229 60.42608643 C40.83290167 63.33119062 41.15104427 66.23575798 41.46918869 69.14033604 C41.77802316 71.96338962 42.08463222 74.78668116 42.39048004 77.61005974 C42.60455151 79.58441967 42.81993038 81.55863772 43.03533936 83.53285217 C43.2261911 85.31398659 43.2261911 85.31398659 43.42089844 87.13110352 C43.53318787 88.17170425 43.64547729 89.21230499 43.76116943 90.28443909 C44 93 44 93 44 97 C32.12 97 20.24 97 8 97 C5.8977122 78.81305279 4.10706914 60.64500103 2.63745117 42.39550781 C2.36370797 38.99671963 2.0829496 35.5985504 1.80032063 32.20049095 C1.52603746 28.89176475 1.25739227 25.58258843 0.98828125 22.2734375 C0.88832352 21.070289 0.78836578 19.8671405 0.68537903 18.62753296 C0.59495834 17.49409454 0.50453766 16.36065613 0.41137695 15.19287109 C0.3316011 14.21063568 0.25182526 13.22840027 0.16963196 12.21640015 C-0.04485373 8.14952624 0 4.07252594 0 0 Z " fill="#F94867" transform="translate(398,122)"/>
<path d="M0 0 C10.89 0 21.78 0 33 0 C33 32.01 33 64.02 33 97 C21.12 97 9.24 97 -3 97 C-3.11450957 79.70142152 -2.73141912 62.44204443 -2.20043945 45.15429688 C-2.08351584 41.34444146 -1.97311547 37.53442735 -1.86443424 33.72432899 C-1.77878306 30.74898978 -1.68953766 27.77376645 -1.59924126 24.79856491 C-1.55703907 23.39292153 -1.51597019 21.9872436 -1.4761219 20.58153152 C-1.4201383 18.62406974 -1.35872454 16.66676558 -1.29711914 14.70947266 C-1.26380997 13.60334625 -1.23050079 12.49721985 -1.19618225 11.35757446 C-0.97413074 7.55725886 -0.47217509 3.77740072 0 0 Z " fill="#F94867" transform="translate(217,122)"/>
<path d="M0 0 C10.89 0 21.78 0 33 0 C33.8364505 6.69160402 34.29042728 13.0975799 34.5 19.8125 C34.53988037 21.03340332 34.57976074 22.25430664 34.62084961 23.51220703 C35.37613343 47.99825344 35.6205597 72.50591797 36 97 C24.12 97 12.24 97 0 97 C0 64.99 0 32.98 0 0 Z " fill="#E4E4E4" transform="translate(262,122)"/>
<path d="M0 0 C10.89 0 21.78 0 33 0 C34.31621022 5.922946 35.48731759 11.68645407 36.32861328 17.66918945 C36.44594818 18.48337845 36.56328308 19.29756744 36.68417358 20.13642883 C37.06634644 22.79489721 37.44348721 25.45405005 37.8203125 28.11328125 C38.08627205 29.97416851 38.35246025 31.83502311 38.61886597 33.69584656 C39.17408754 37.57955005 39.72686509 41.46359109 40.27783203 45.34790039 C40.98413873 50.32624979 41.69609748 55.3037712 42.40980721 60.28106403 C42.95920594 64.11629366 43.50587659 67.95190821 44.05169296 71.78764915 C44.31325779 73.62378307 44.57561482 75.45980431 44.83877945 77.29570961 C45.20531618 79.85602067 45.56823718 82.41681864 45.93017578 84.9777832 C46.03924255 85.73472473 46.14830933 86.49166626 46.26068115 87.27154541 C46.72292675 90.56723456 47 93.66227335 47 97 C35.12 97 23.24 97 11 97 C8.70140089 80.9098062 8.70140089 80.9098062 7.94677734 74.22216797 C7.85870316 73.45601669 7.77062897 72.68986542 7.67988586 71.90049744 C7.39658326 69.43128323 7.11612583 66.96175687 6.8359375 64.4921875 C6.63712259 62.75056741 6.43819675 61.00895997 6.23916626 59.2673645 C5.82610239 55.64876846 5.41448427 52.03001173 5.00390625 48.41113281 C4.47779268 43.77512212 3.94780402 39.13956369 3.41673851 34.50411797 C3.00679007 30.92184545 2.59895766 27.33933446 2.19176102 23.7567482 C1.99707034 22.0462488 1.8017003 20.33582659 1.60563278 18.62548447 C1.33306551 16.24519219 1.06337236 13.86459131 0.79443359 11.48388672 C0.71341904 10.78155411 0.63240448 10.0792215 0.54893494 9.35560608 C0.19536696 6.20043046 0 3.18268137 0 0 Z " fill="#E4E3E3" transform="translate(443,122)"/>
<path d="M0 0 C10.89 0 21.78 0 33 0 C32.2488589 17.4734199 30.72474491 34.86803729 29.20825195 52.28765869 C28.92887175 55.50716342 28.6530219 58.72696661 28.37722778 61.9467802 C28.10909572 65.07398774 27.83933462 68.201053 27.56903076 71.3280735 C27.44109578 72.8090786 27.31352396 74.29011511 27.18634033 75.77118492 C27.00860229 77.83677215 26.82880486 79.9021702 26.6484375 81.9675293 C26.54708496 83.13599899 26.44573242 84.30446869 26.34130859 85.50834656 C25.96611906 89.34660865 25.47834688 93.17322494 25 97 C13.12 97 1.24 97 -11 97 C-9.55143861 77.97151556 -7.4758756 59.06517383 -5.21246338 40.12127686 C-4.84109717 37.0030372 -4.47438756 33.88425685 -4.10771847 30.76546192 C-3.75161395 27.73952451 -3.39339602 24.71384043 -3.03445625 21.68823814 C-2.86453995 20.25501861 -2.69510153 18.82174233 -2.52616692 17.38840675 C-2.29153964 15.40168076 -2.05391619 13.41530931 -1.81616211 11.42895508 C-1.61536293 9.742174 -1.61536293 9.742174 -1.4105072 8.02131653 C-1.04500535 5.33123753 -0.53241527 2.66207637 0 0 Z " fill="#E4E4E4" transform="translate(81,122)"/>
<path d="M0 0 C10.89 0 21.78 0 33 0 C34.04395484 12.35184595 35.08720758 24.70375064 36.12921143 37.05576134 C36.61304173 42.79079248 37.09718427 48.5257969 37.58203125 54.26074219 C38.04959739 59.79141843 38.51635528 65.32216234 38.98254395 70.85295486 C39.1608784 72.96697056 39.33950806 75.08096138 39.51843262 77.19492722 C39.7682696 80.14730225 40.01707316 83.09976263 40.265625 86.05224609 C40.34043091 86.9333757 40.41523682 87.81450531 40.49230957 88.72233582 C41 94.77189568 41 94.77189568 41 97 C29.12 97 17.24 97 5 97 C4.39652052 91.56868465 3.83924967 86.27286426 3.51928711 80.83813477 C3.4801268 80.18298386 3.44096649 79.52783295 3.40061951 78.85282898 C3.27365597 76.71582863 3.15025166 74.57864344 3.02734375 72.44140625 C2.93915065 70.92797001 2.85089772 69.41453726 2.7625885 67.90110779 C2.57851654 64.73503198 2.39645044 61.5688479 2.21557617 58.40258789 C2.03188529 55.1917619 1.84467589 51.98117377 1.65405273 48.77075195 C-0.28701143 16.06338168 -0.28701143 16.06338168 0 0 Z " fill="#E4E4E4" transform="translate(353,122)"/>
<path d="M0 0 C10.89 0 21.78 0 33 0 C32.37873123 9.94030027 31.67023458 19.55896453 30.3125 29.375 C29.95733979 32.02966916 29.60402026 34.68451063 29.25390625 37.33984375 C29.15830414 38.06311356 29.06270203 38.78638336 28.96420288 39.53157043 C27.46234482 50.98801308 26.11912369 62.46461062 24.75 73.9375 C24.6134903 75.0799115 24.47698059 76.222323 24.33633423 77.39935303 C23.55570271 83.93268359 22.77751334 90.46629623 22 97 C10.12 97 -1.76 97 -14 97 C-10.9473082 72.9251083 -7.77075718 48.87734799 -4.1875 24.875 C-4.03497772 23.84946014 -3.88245544 22.82392029 -3.72531128 21.76730347 C-3.29235246 18.86266558 -2.85603658 15.95855884 -2.41796875 13.0546875 C-2.28904236 12.19318588 -2.16011597 11.33168427 -2.02728271 10.44407654 C-1.90637268 9.65026077 -1.78546265 8.85644501 -1.66088867 8.03857422 C-1.55685226 7.35125214 -1.45281586 6.66393005 -1.34562683 5.95578003 C-0.99143533 3.95153557 -0.49363284 1.97453136 0 0 Z " fill="#F94867" transform="translate(36,122)"/>
<path d="M0 0 C62.7 0 125.4 0 190 0 C190 5.61 190 11.22 190 17 C127.3 17 64.6 17 0 17 C0 11.39 0 5.78 0 0 Z " fill="#6BD5D3" transform="translate(218,327)"/>
<path d="M0 0 C12.87 0 25.74 0 39 0 C39 19.14 39 38.28 39 58 C26.13 58 13.26 58 0 58 C0 38.86 0 19.72 0 0 Z " fill="#6BD6D3" transform="translate(96,408)"/>
<path d="M0 0 C12.87 0 25.74 0 39 0 C39 14.52 39 29.04 39 44 C26.13 44 13.26 44 0 44 C0 29.48 0 14.96 0 0 Z " fill="#6CD7D4" transform="translate(96,328)"/>
<path d="M0 0 C5.16401936 2.91027277 8.35282216 6.72881145 10.74609375 12.16015625 C11.42518567 15.68963347 11.44824571 19.07516186 11.37109375 22.66015625 C11.39042969 23.55863281 11.40976563 24.45710938 11.4296875 25.3828125 C11.38299356 31.79855978 9.931687 36.23911568 5.74609375 41.16015625 C0.66119127 45.12638018 -3.48547369 46.58669935 -9.83984375 46.50390625 C-15.51313597 45.69605881 -19.26229718 42.43144993 -22.69140625 38.03515625 C-25.56573627 32.74638901 -25.50310489 28.28452287 -25.56640625 22.41015625 C-25.59541016 21.5284375 -25.62441406 20.64671875 -25.65429688 19.73828125 C-25.71325934 13.64246948 -24.80182879 10.14800348 -21.25390625 5.16015625 C-15.06774946 -0.56203878 -8.23150697 -3.0671993 0 0 Z " fill="#FAFBFB" transform="translate(223.25390625,26.83984375)"/>
<path d="M0 0 C0.76272217 0.01281006 1.52544434 0.02562012 2.3112793 0.03881836 C7.76159881 0.23562085 12.56989381 0.66917492 16.75 4.5 C19.4795131 7.67787692 20.63276536 10.78356606 21.3125 14.9375 C20.36595863 20.93226202 17.09804669 25.3687181 12.75 29.5 C13.03875 30.08007812 13.3275 30.66015625 13.625 31.2578125 C17.57262211 39.56426735 17.57262211 39.56426735 16.75 44.5 C15.5625 46.375 15.5625 46.375 13.75 47.5 C11.3125 48 11.3125 48 8.75 47.5 C4.38361159 43.53055599 2.7278703 37.91810216 0.75 32.5 C0.72421875 33.24765625 0.6984375 33.9953125 0.671875 34.765625 C0.21222983 42.74673657 0.21222983 42.74673657 -1.9375 46.25 C-4.25 47.5 -4.25 47.5 -7.375 47.4375 C-10.25 46.5 -10.25 46.5 -12.25 43.5 C-12.470428 40.5734941 -12.5780386 37.74452235 -12.5859375 34.81640625 C-12.5925943 33.96449203 -12.5992511 33.11257782 -12.60610962 32.23484802 C-12.61623202 30.43352416 -12.62092677 28.63216282 -12.62060547 26.83081055 C-12.62497852 24.07603147 -12.66130042 21.32285492 -12.69921875 18.56835938 C-12.70508705 16.81771381 -12.70905635 15.06706064 -12.7109375 13.31640625 C-12.72530853 12.49338516 -12.73967957 11.67036407 -12.75448608 10.82240295 C-12.72444931 7.0596703 -12.68537478 5.1125539 -10.46044922 1.98217773 C-7.13903297 -0.24493935 -3.86117441 -0.09641458 0 0 Z " fill="#FBFCFB" transform="translate(337.25,25.5)"/>
<path d="M0 0 C0.77537109 -0.00386719 1.55074219 -0.00773437 2.34960938 -0.01171875 C3.15591797 -0.00011719 3.96222656 0.01148437 4.79296875 0.0234375 C5.58767578 0.01183594 6.38238281 0.00023438 7.20117188 -0.01171875 C12.19576432 0.01306831 15.65902654 0.64663767 19.98046875 3.3984375 C24.23766191 8.11586776 25.27873615 10.94004694 25.19921875 17.15234375 C24.70973115 22.17833249 21.09043542 25.64502944 17.98046875 29.3984375 C18.26921875 29.97851562 18.55796875 30.55859375 18.85546875 31.15625 C22.88698433 39.6392307 22.88698433 39.6392307 21.98046875 44.3984375 C19.7791006 47.02314568 18.43776237 47.34978924 15.04296875 47.7109375 C9.40496181 45.29464881 8.02162359 38.97993102 5.83984375 33.5703125 C5.55625 32.85359375 5.27265625 32.136875 4.98046875 31.3984375 C4.94308594 32.30207031 4.90570313 33.20570312 4.8671875 34.13671875 C4.80144531 35.31621094 4.73570312 36.49570312 4.66796875 37.7109375 C4.60996094 38.88269531 4.55195313 40.05445313 4.4921875 41.26171875 C3.98046875 44.3984375 3.98046875 44.3984375 2.59375 46.29296875 C0.26075704 47.89160557 -1.25711092 47.81280055 -4.01953125 47.3984375 C-5.98667962 45.86774247 -6.90442869 44.9716359 -7.40048218 42.50134277 C-7.40406235 41.43236755 -7.40406235 41.43236755 -7.40771484 40.34179688 C-7.41717133 39.53085571 -7.42662781 38.71991455 -7.43637085 37.88439941 C-7.43029816 37.01246948 -7.42422546 36.14053955 -7.41796875 35.2421875 C-7.42083893 34.34350952 -7.42370911 33.44483154 -7.42666626 32.5189209 C-7.4287074 30.61921559 -7.42317403 28.7194893 -7.41064453 26.81982422 C-7.39459146 23.9093534 -7.41049138 21.00027129 -7.4296875 18.08984375 C-7.42770508 16.2447886 -7.42386142 14.39973431 -7.41796875 12.5546875 C-7.42404144 11.68275757 -7.43011414 10.81082764 -7.43637085 9.91247559 C-7.42691437 9.10153442 -7.41745789 8.29059326 -7.40771484 7.45507812 C-7.40532806 6.74242798 -7.40294128 6.02977783 -7.40048218 5.29553223 C-6.57381515 1.17881915 -3.89951478 0.01884474 0 0 Z " fill="#FCFDFD" transform="translate(165.01953125,25.6015625)"/>
<path d="M0 0 C1.31226563 -0.01675781 2.62453125 -0.03351562 3.9765625 -0.05078125 C7.375 0.3125 7.375 0.3125 9.3125 1.64453125 C10.98195558 4.265331 10.75282702 6.28988381 10.375 9.3125 C9.28125 10.97265625 9.28125 10.97265625 7.375 12.3125 C3.84303748 12.72470693 0.37443408 12.75199946 -3.1796875 12.80859375 C-7.1665429 13.39170525 -8.78886581 14.51299485 -11.625 17.3125 C-13.22061887 20.50373774 -13.0049142 23.83995091 -12.625 27.3125 C-10.98812815 30.89802881 -9.93527417 32.10565055 -6.625 34.3125 C-4.6353005 34.70263716 -2.63480131 35.04452649 -0.625 35.3125 C-0.625 33.9925 -0.625 32.6725 -0.625 31.3125 C-1.594375 31.18875 -2.56375 31.065 -3.5625 30.9375 C-5.0784375 30.628125 -5.0784375 30.628125 -6.625 30.3125 C-8.00625018 27.54999964 -7.81579306 25.36518901 -7.625 22.3125 C-5.625 20.3125 -5.625 20.3125 -2.4375 20.046875 C-0.5503125 20.05460937 -0.5503125 20.05460937 1.375 20.0625 C2.633125 20.05734375 3.89125 20.0521875 5.1875 20.046875 C8.375 20.3125 8.375 20.3125 10.375 22.3125 C10.82795333 25.93894504 10.69904802 29.59851738 10.6875 33.25 C10.70361328 34.26513672 10.71972656 35.28027344 10.73632812 36.32617188 C10.73697266 37.30005859 10.73761719 38.27394531 10.73828125 39.27734375 C10.74126221 40.1705835 10.74424316 41.06382324 10.74731445 41.98413086 C10.375 44.3125 10.375 44.3125 9.05810547 46.10009766 C4.78384252 49.17900537 -2.56194149 47.78765669 -7.625 47.3125 C-14.62001852 45.35009662 -19.69404777 40.30252244 -23.625 34.3125 C-26.3338563 28.44497731 -26.69349868 22.37136075 -25.04296875 16.1015625 C-22.23184975 9.60646562 -16.53216786 4.35533396 -10.31640625 1.10546875 C-6.81249431 0.07311153 -3.64919462 0.01079643 0 0 Z " fill="#FBFCFC" transform="translate(139.625,25.6875)"/>
<path d="M0 0 C1.64548828 -0.00773437 1.64548828 -0.00773437 3.32421875 -0.015625 C4.46503906 -0.00015625 5.60585938 0.0153125 6.78125 0.03125 C8.49248047 0.00804688 8.49248047 0.00804688 10.23828125 -0.015625 C11.33527344 -0.01046875 12.43226563 -0.0053125 13.5625 0 C15.06393555 0.00676758 15.06393555 0.00676758 16.59570312 0.01367188 C19.99264425 0.66835507 21.21179997 1.80075992 23.28125 4.53125 C23.21875 7.65625 23.21875 7.65625 22.28125 10.53125 C19.23443939 12.56245707 18.68006676 12.77784875 15.26953125 12.7265625 C14.51220703 12.72011719 13.75488281 12.71367188 12.97460938 12.70703125 C11.79608398 12.68189453 11.79608398 12.68189453 10.59375 12.65625 C9.79646484 12.64722656 8.99917969 12.63820313 8.17773438 12.62890625 C6.212111 12.60536585 4.24664225 12.56949547 2.28125 12.53125 C2.28125 14.51125 2.28125 16.49125 2.28125 18.53125 C3.32925781 18.49644531 3.32925781 18.49644531 4.3984375 18.4609375 C5.30851562 18.44289063 6.21859375 18.42484375 7.15625 18.40625 C8.51363281 18.37144531 8.51363281 18.37144531 9.8984375 18.3359375 C12.28125 18.53125 12.28125 18.53125 14.28125 20.53125 C14.59375 24.03125 14.59375 24.03125 14.28125 27.53125 C11.07744983 29.66711678 10.26185033 29.76257175 6.59375 29.65625 C5.78550781 29.63820313 4.97726562 29.62015625 4.14453125 29.6015625 C3.52964844 29.57835938 2.91476562 29.55515625 2.28125 29.53125 C2.28125 31.51125 2.28125 33.49125 2.28125 35.53125 C3.46203125 35.48484375 4.6428125 35.4384375 5.859375 35.390625 C7.41664134 35.35310051 8.97393508 35.31670107 10.53125 35.28125 C11.30855469 35.24773438 12.08585937 35.21421875 12.88671875 35.1796875 C18.65054526 35.08116055 18.65054526 35.08116055 21.83203125 37.3515625 C23.28125 39.53125 23.28125 39.53125 23.21875 42.65625 C22.28125 45.53125 22.28125 45.53125 19.28125 47.53125 C15.15050197 47.99784612 10.99801149 47.90159014 6.84375 47.90625 C5.69841797 47.93074219 4.55308594 47.95523438 3.37304688 47.98046875 C2.27154297 47.98433594 1.17003906 47.98820312 0.03515625 47.9921875 C-0.97216553 48.00040527 -1.9794873 48.00862305 -3.01733398 48.01708984 C-5.71875 47.53125 -5.71875 47.53125 -8.04516602 46.05126953 C-10.50525145 42.34696584 -10.29304139 39.10831567 -10.25 34.75 C-10.2538269 33.89950073 -10.25765381 33.04900146 -10.26159668 32.17272949 C-10.26431458 30.37734796 -10.25696182 28.58192676 -10.24023438 26.78662109 C-10.21882167 24.04044207 -10.24003871 21.29687903 -10.265625 18.55078125 C-10.2629817 16.80468173 -10.25785667 15.05858384 -10.25 13.3125 C-10.25809692 12.49261597 -10.26619385 11.67273193 -10.27453613 10.82800293 C-10.21428674 7.16010449 -10.11157018 5.12093811 -8.04296875 2.015625 C-5.163671 0.17674577 -3.4052213 0.01534871 0 0 Z " fill="#FAFBFB" transform="translate(292.71875,25.46875)"/>
<path d="M0 0 C2.4296875 1.83203125 2.4296875 1.83203125 4 4 C3.9375 7.125 3.9375 7.125 3 10 C-0.51844312 12.34562875 -2.15186525 12.22132115 -6.3125 12.3125 C-11.98901033 12.63042021 -11.98901033 12.63042021 -16.75 15.4375 C-19.43144153 18.49136397 -19.94413651 19.25980878 -20.25 23.3125 C-19.984656 27.22632394 -19.36680088 28.93192479 -17 32 C-12.64627355 34.9024843 -8.48512359 34.34208968 -3.34765625 34.4609375 C0 35 0 35 2.4453125 36.84375 C4 39 4 39 3.9375 42.125 C3 45 3 45 0 47 C-7.08613452 47.7229034 -15.02343299 48.25631419 -21.2890625 44.3984375 C-26.34309281 40.26751775 -30.85930488 35.59068292 -32 29 C-32.66502424 21.54750608 -32.66268068 15.13005372 -28 9 C-20.2638839 0.59367582 -11.269911 -1.74333581 0 0 Z " fill="#FAFCFB" transform="translate(272,26)"/>
<path d="M0 0 C29.37 0 58.74 0 89 0 C89 2.97 89 5.94 89 9 C59.63 9 30.26 9 0 9 C0 6.03 0 3.06 0 0 Z " fill="#6E9583" transform="translate(319,306)"/>
<path d="M0 0 C29.37 0 58.74 0 89 0 C89 2.97 89 5.94 89 9 C59.63 9 30.26 9 0 9 C0 6.03 0 3.06 0 0 Z " fill="#6E9583" transform="translate(218,306)"/>
<path d="M0 0 C4.04829851 1.2759827 5.13153473 3.04105209 7.4609375 6.53515625 C8.14929688 7.54707031 8.83765625 8.55898438 9.546875 9.6015625 C10.05476563 10.38402344 10.56265625 11.16648437 11.0859375 11.97265625 C13.88378548 8.48961979 13.88378548 8.48961979 16.61328125 4.953125 C20.40602183 0.13077617 20.40602183 0.13077617 23.7734375 -0.65234375 C26.53578514 0.09423669 27.54827583 0.54476939 29.0859375 2.97265625 C29.54297209 5.91751117 29.64637003 8.04848597 28.06616211 10.65429688 C26.62020495 12.51222773 25.13559386 14.33507263 23.6484375 16.16015625 C17.67360731 24.00258707 16.94391685 30.43156745 17.2109375 40.0859375 C17.0859375 43.97265625 17.0859375 43.97265625 15.80078125 45.72338867 C14.0859375 46.97265625 14.0859375 46.97265625 10.5234375 46.84765625 C7.0859375 45.97265625 7.0859375 45.97265625 5.0859375 42.97265625 C5.07137901 40.90327078 5.06449243 38.83327723 5.11279297 36.7644043 C5.25522567 26.85752692 3.19082565 20.87366499 -3.14038086 13.22583008 C-6.90953268 8.61513615 -6.90953268 8.61513615 -6.9375 4.6484375 C-5.49685 0.88185257 -4.01646173 -0.03768798 0 0 Z " fill="#FAFBFB" transform="translate(371.9140625,26.02734375)"/>
<path d="M0 0 C12.21 0 24.42 0 37 0 C37 13.80156658 37 13.80156658 31.50390625 19.5703125 C26.68352353 23.77762909 22.66535468 24.36297685 16.49609375 24.2734375 C10.51786739 23.61854572 6.84427497 19.15019054 3.2578125 14.71875 C-0.50141797 9.58191334 0 6.78626602 0 0 Z " fill="#EB2F57" transform="translate(310,231)"/>
<path d="M0 0 C12.21 0 24.42 0 37 0 C37 12.7625 37 12.7625 32.125 18.0234375 C26.6748745 22.9325579 22.82957294 24.37322479 15.5 24.27734375 C10.3952147 23.71103163 7.70028568 20.71620127 4.25 17.1875 C0.15595793 11.38760706 0 7.10952527 0 0 Z " fill="#EB2F57" transform="translate(213,231)"/>
<path d="M0 0 C12.21 0 24.42 0 37 0 C36.04117045 9.58829549 34.88678808 14.86887052 27.8125 20.9375 C22.68421837 24.69823986 18.2478448 24.63627274 12 24 C6.03595826 21.07219769 2.92495418 16.84990836 0 11 C0 7.37 0 3.74 0 0 Z " fill="#E3E2E2" transform="translate(165,231)"/>
<path d="M0 0 C11.88 0 23.76 0 36 0 C37.84867207 3.69734414 37.33645425 7.9563184 37 12 C35.20646165 17.28097404 32.39000798 19.79895251 28 23 C22.51494178 24.82835274 17.72151193 24.71234976 12.375 22.5 C7.22894401 19.11727788 3.12811825 14.45243098 0.5625 8.875 C0 6 0 6 0 0 Z " fill="#EB2E57" transform="translate(407,231)"/>
<path d="M0 0 C11.88 0 23.76 0 36 0 C36 13.9929078 36 13.9929078 31.34765625 18.65625 C26.21614132 23.25617036 22.37642859 24.36729703 15.5 24.27734375 C10.43732995 23.71570379 7.45757952 20.66314879 4.25 17 C-0.55306476 10.59591366 0 8.97063714 0 0 Z " fill="#E3E3E3" transform="translate(262,231)"/>
<path d="M0 0 C12.21 0 24.42 0 37 0 C35.79044942 10.88595524 33.84345494 14.78480293 26 21.6171875 C21.6039883 24.65661747 16.17077294 24.63847805 11 24 C6.13020316 21.61104306 3.68086997 18.66669958 1 14 C0 11 0 11 0 0 Z " fill="#E4E3E3" transform="translate(68,231)"/>
<path d="M0 0 C11.88 0 23.76 0 36 0 C36 8.75531821 35.11252092 12.4086297 29.5625 18.8125 C24.18653208 23.40174091 20.74154078 24.56107379 13.65625 24.3515625 C8.61188191 23.68392555 5.98247747 21.08869125 2.6875 17.4375 C-1.44385462 11.46998777 0 8.50192259 0 0 Z " fill="#EC2E57" transform="translate(117,231)"/>
<path d="M0 0 C12.21 0 24.42 0 37 0 C37 14 37 14 35.375 17.625 C31.38134683 21.61865317 28.33230344 24.21181041 22.5625 24.4375 C16.86193431 24.15007652 12.65801551 22.42666451 8.3125 18.6875 C3.3556263 12.92680895 0 7.75682729 0 0 Z " fill="#E4E3E3" transform="translate(455,231)"/>
<path d="M0 0 C11.88 0 23.76 0 36 0 C36 13.9 36 13.9 33 18 C29.06531127 21.93468873 25.90166349 23.87322243 20.25 24.25 C14.99799483 24.13478234 10.95836207 22.87477344 7.078125 19.16015625 C1.16433453 12.59878128 0 9.51850534 0 0 Z " fill="#E4E3E3" transform="translate(359,231)"/>
<path d="M0 0 C11.88 0 23.76 0 36 0 C36 7.60020443 35.28931307 11.49780863 30.12890625 16.9921875 C24.22896553 22.36793689 19.56215058 24.5973818 11.5078125 24.453125 C7.28685378 23.69045956 4.6442474 21.27526098 2 18 C0 14 0 14 0 0 Z " fill="#EC2E57" transform="translate(20,231)"/>
<path d="M0 0 C4.62 0 9.24 0 14 0 C14 7.26 14 14.52 14 22 C9.38 22 4.76 22 0 22 C0 14.74 0 7.48 0 0 Z " fill="#6D917F" transform="translate(469,356)"/>
<path d="M0 0 C4.62 0 9.24 0 14 0 C14 7.26 14 14.52 14 22 C9.38 22 4.76 22 0 22 C0 14.74 0 7.48 0 0 Z " fill="#6D917F" transform="translate(29,356)"/>
<path d="M0 0 C4.29 0 8.58 0 13 0 C13 6.93 13 13.86 13 21 C8.71 21 4.42 21 0 21 C0 14.07 0 7.14 0 0 Z " fill="#6E9583" transform="translate(470,415)"/>
<path d="M0 0 C4.29 0 8.58 0 13 0 C13 6.93 13 13.86 13 21 C8.71 21 4.42 21 0 21 C0 14.07 0 7.14 0 0 Z " fill="#6E9583" transform="translate(29,415)"/>
<path d="M0 0 C4.29 0 8.58 0 13 0 C13 6.93 13 13.86 13 21 C8.71 21 4.42 21 0 21 C0 14.07 0 7.14 0 0 Z " fill="#6E9583" transform="translate(470,298)"/>
<path d="M0 0 C4.29 0 8.58 0 13 0 C13 6.93 13 13.86 13 21 C8.71 21 4.42 21 0 21 C0 14.07 0 7.14 0 0 Z " fill="#6E9583" transform="translate(29,298)"/>
<path d="M0 0 C1.66259766 1.27929688 1.66259766 1.27929688 3 3 C3.2981028 5.92257643 3.41882117 8.58345783 3.375 11.5 C3.38660156 12.27214844 3.39820313 13.04429688 3.41015625 13.83984375 C3.3806742 19.51022421 3.3806742 19.51022421 1.66259766 21.72070312 C-0.90188757 23.69396342 -2.86975745 23.39128032 -6 23 C-7.66259766 21.72070312 -7.66259766 21.72070312 -9 20 C-9.2981028 17.07742357 -9.41882117 14.41654217 -9.375 11.5 C-9.38660156 10.72785156 -9.39820313 9.95570312 -9.41015625 9.16015625 C-9.3806742 3.48977579 -9.3806742 3.48977579 -7.66259766 1.27929688 C-5.09811243 -0.69396342 -3.13024255 -0.39128032 0 0 Z " fill="#6E9583" transform="translate(219,38)"/>
<path d="M0 0 C2.97 0 5.94 0 9 0 C9.042721 1.66611905 9.04063832 3.33382885 9 5 C8 6 8 6 6.15234375 6.09765625 C4.1015625 6.06510417 2.05078125 6.03255208 0 6 C0 4.02 0 2.04 0 0 Z " fill="#7FA192" transform="translate(169,38)"/>
<path d="M0 0 C2.64 0 5.28 0 8 0 C8.625 1.875 8.625 1.875 9 4 C7 6 7 6 3.375 6.125 C2.26125 6.08375 1.1475 6.0425 0 6 C0 4.02 0 2.04 0 0 Z " fill="#769B8A" transform="translate(337,38)"/>
</svg>
